<?xml version="1.0" encoding="UTF-8"?>
<svg xmlns="http://www.w3.org/2000/svg" viewBox="0 0 1000 1000">
  <path d="M215.29,962.59 L222.8,967.31 L225.17,969.45 L224.97,970.04 L224.39,970.26 L218.31,970.84 L216.18,970.03 L212.82,969.43 L206.97,969.42 L198.64,970.3 L184.34,973.19 L179.54,973.63 L177.84,973.24 L178.5,972.6 L180.55,972.88 L184.3,972.49 L188.75,971.34 L195.45,970.15 L205.62,968.79 L208.61,968.8 L212.02,968.27 L214.1,966.86 L215.27,964.6 L215.29,962.59 Z M481.44,28.13 L502.48,28.1 L502.66,28.1 L503.13,28.12 L503.83,28.12 L506.06,28.16 L509.71,28.17 L517.88,28.27 L520.08,28.28 L523.6,28.31 L526.65,28.32 L532.08,28.38 L544.13,28.38 L550.85,28.3 L558.14,28.19 L573.71,28.29 L575.19,28.3 L663.98,28.84 L670.97,28.88 L671.82,28.88 L715.34,29.57 L717.31,41.55 L717.32,41.58 L719.71,54.24 L725.79,84.42 L725.8,84.46 L728.02,94.65 L728.02,94.67 L729.38,101.2 L730.82,108.17 L733.44,120.77 L733.49,120.97 L733.49,120.98 L733.8,122.14 L734.54,125.53 L735.72,130.82 L735.75,130.94 L743.69,168.17 L744.41,171.53 L744.53,172.26 L745.07,174.82 L745.13,175.25 L751.74,208.96 L756.29,232.12 L758.7,244.51 L763.63,269.87 L763.9,271.06 L768.37,293.85 L771.44,309.52 L772.93,317.11 L773.11,318.24 L773.12,318.32 L775.02,327.63 L777.11,338.51 L788.5,397.76 L789.32,402.02 L791.13,411.05 L791.41,412.45 L798.9,449.17 L810.95,468.68 L809.24,470.27 L808.3,473.78 L808.23,474.05 L812.67,485.87 L814.65,494.42 L819.08,501.47 L819.51,502.15 L819.58,502.29 L821.63,506.05 L826.59,510.9 L830.98,514.19 L834.03,517.97 L835.18,520.13 L835.23,520.63 L835.24,520.69 L835.29,521.41 L835.79,528.7 L838.65,533.5 L839.53,540.13 L837.97,546.2 L837.95,546.29 L833.84,555.12 L834.03,556.77 L835.07,558.03 L847.61,562.26 L851.99,566.14 L853.49,569.64 L850.99,575.64 L850.6,575.99 L842.42,583.25 L836.25,585.26 L825.94,593.76 L824.32,609.43 L825.48,617.14 L823.09,623.56 L821.09,628.94 L819.14,632.93 L814.28,638.78 L809.06,644.12 L807.29,653.73 L807.39,664.98 L807.92,665.52 L809.5,667.14 L810.59,668.18 L810.73,668.97 L811.84,675.0 L811.18,676.97 L810.33,678.16 L810.53,682.49 L818.17,693.2 L822.5,696.5 L823.63,697.02 L824.04,697.64 L827.25,713.05 L826.14,717.72 L821.93,735.55 L818.05,759.15 L815.29,764.18 L813.24,769.13 L814.1,783.41 L815.56,787.57 L817.16,788.6 L818.85,788.73 L820.23,789.27 L828.37,798.94 L829.54,801.33 L831.05,805.44 L835.56,817.67 L834.97,820.28 L830.66,820.28 L829.98,820.28 L829.47,820.29 L829.26,820.29 L825.11,820.3 L824.57,820.3 L824.02,820.3 L806.5,820.28 L805.26,820.24 L805.23,820.25 L804.79,820.25 L738.53,821.0 L736.61,821.03 L736.55,821.03 L630.02,821.74 L626.56,821.76 L625.82,821.78 L604.64,821.67 L603.43,821.67 L602.2,821.65 L601.2,821.61 L599.81,821.61 L579.56,821.65 L576.52,821.6 L564.55,821.52 L563.68,821.51 L562.64,821.51 L559.84,821.57 L559.84,821.57 L559.18,821.57 L556.61,821.6 L546.73,821.65 L546.01,821.61 L535.19,821.67 L533.78,821.76 L525.15,821.36 L524.32,821.39 L505.05,821.5 L502.33,821.5 L500.36,821.4 L493.0,821.04 L492.62,821.04 L492.41,821.06 L481.03,821.02 L480.99,821.02 L472.14,820.93 L471.86,820.94 L463.71,820.89 L460.7,820.9 L433.12,820.56 L431.28,820.55 L430.56,820.5 L427.83,820.59 L425.79,820.58 L424.88,820.59 L406.23,820.6 L406.13,820.61 L387.89,820.76 L387.77,820.77 L387.49,820.78 L387.3,820.76 L386.96,820.78 L386.79,820.78 L385.79,820.76 L381.16,820.75 L380.75,820.74 L378.65,820.73 L378.16,820.78 L376.54,820.73 L372.22,820.76 L367.91,820.77 L366.25,820.77 L365.49,820.76 L354.0,820.8 L352.7,820.77 L349.23,820.76 L348.06,820.75 L347.47,820.74 L346.88,820.77 L346.85,820.77 L345.85,820.78 L345.84,820.78 L343.49,820.77 L343.29,820.77 L343.19,820.77 L329.63,820.83 L325.12,820.84 L319.63,820.92 L319.63,820.92 L320.59,825.11 L319.15,833.06 L315.01,840.76 L312.48,847.03 L314.63,851.04 L332.79,871.33 L338.68,875.52 L339.76,875.96 L342.99,876.68 L349.31,880.17 L357.7,885.56 L359.71,889.16 L360.26,891.53 L360.21,894.81 L349.2,916.74 L349.22,916.8 L349.52,917.06 L353.04,921.42 L355.31,937.48 L353.66,937.83 L351.04,941.19 L348.91,946.01 L349.0,950.17 L349.17,957.14 L348.72,959.31 L335.63,963.23 L330.43,964.18 L327.73,964.42 L323.12,965.45 L308.13,969.33 L292.52,971.12 L279.61,973.37 L272.09,973.8 L254.69,973.17 L247.52,973.33 L240.03,974.08 L237.14,974.76 L234.39,975.0 L234.22,974.69 L235.27,973.16 L246.61,972.12 L250.15,967.97 L252.72,966.99 L256.25,968.61 L257.14,969.7 L259.78,970.95 L261.23,971.41 L263.98,971.54 L267.8,971.2 L276.2,968.42 L279.31,968.66 L282.15,968.43 L286.35,966.82 L288.6,963.85 L288.55,961.09 L285.13,957.02 L280.37,954.54 L277.88,952.86 L273.79,948.67 L272.33,945.59 L270.77,943.98 L269.04,943.77 L266.82,942.78 L258.62,937.64 L258.11,936.67 L257.07,930.34 L255.9,925.48 L255.07,924.4 L253.54,923.4 L253.26,922.16 L257.66,914.52 L258.82,912.2 L259.54,909.55 L259.05,906.56 L258.31,905.14 L257.61,904.52 L256.91,902.61 L257.39,896.67 L256.04,892.65 L253.71,889.35 L252.59,888.41 L248.76,888.12 L243.76,884.9 L238.36,882.94 L237.56,883.29 L235.65,885.14 L234.73,887.6 L233.16,889.14 L231.23,889.37 L227.72,890.9 L228.2,896.02 L229.31,897.33 L227.15,902.13 L225.16,903.99 L223.06,907.1 L223.83,910.46 L223.6,913.95 L222.02,914.97 L220.01,917.72 L219.43,919.47 L219.59,921.04 L220.8,925.4 L220.05,927.35 L218.9,929.03 L219.37,934.08 L218.74,944.02 L217.12,948.12 L215.3,951.09 L214.61,951.7 L213.0,955.23 L209.11,953.95 L205.9,954.45 L202.01,955.97 L201.19,955.13 L200.66,951.64 L201.06,950.7 L202.61,950.41 L202.61,949.8 L200.32,946.97 L199.44,947.02 L188.29,943.0 L183.93,942.9 L182.34,945.31 L178.18,945.67 L177.21,945.46 L176.6,943.4 L174.08,941.79 L172.28,941.59 L167.78,941.88 L165.67,942.36 L161.63,945.57 L160.19,917.5 L159.94,913.08 L159.86,911.05 L159.84,910.71 L159.15,895.29 L159.16,893.52 L159.04,892.47 L158.74,886.16 L158.39,878.7 L158.35,877.39 L158.22,873.93 L158.2,873.65 L158.17,872.89 L155.55,820.75 L155.53,820.38 L155.52,820.19 L154.29,797.73 L153.08,774.76 L153.06,774.52 L151.67,749.79 L151.67,749.77 L150.98,736.88 L150.98,736.81 L150.83,733.92 L148.84,697.04 L148.79,696.57 L147.85,681.91 L147.85,681.89 L146.53,651.53 L146.51,651.44 L146.75,643.03 L146.97,635.79 L147.01,635.21 L149.72,614.06 L149.73,613.89 L152.96,587.79 L152.97,587.65 L154.35,576.76 L156.38,560.68 L159.89,532.68 L159.89,532.66 L162.88,507.21 L164.01,497.57 L164.02,497.51 L171.02,437.55 L172.46,425.22 L179.59,366.25 L182.25,344.27 L184.97,321.77 L185.09,320.97 L185.52,317.49 L186.43,310.18 L186.53,309.77 L186.62,308.97 L186.81,307.36 L187.01,305.98 L187.04,305.54 L189.15,288.11 L189.19,287.95 L189.49,285.38 L189.53,284.79 L190.73,275.63 L195.07,242.56 L195.07,242.53 L195.09,242.29 L198.9,213.42 L199.62,207.83 L204.92,166.68 L205.12,165.03 L205.57,161.28 L207.1,149.4 L207.16,148.97 L209.21,133.09 L212.25,109.55 L212.39,108.34 L212.5,108.06 L216.53,81.25 L220.6,47.93 L215.21,45.94 L200.32,27.4 L203.82,25.0 L243.02,25.29 L264.25,25.45 L264.29,25.44 L265.31,25.42 L269.1,25.43 L269.12,25.42 L269.43,25.41 L284.97,25.55 L286.15,25.58 L287.88,25.6 L297.69,25.72 L299.11,25.75 L299.46,25.74 L300.2,25.77 L305.25,25.83 L306.69,25.83 L318.22,25.87 L353.43,25.98 L354.84,26.0 L355.66,26.0 L360.84,26.06 L362.87,26.11 L367.19,26.17 L369.18,26.2 L379.12,26.35 L384.91,26.45 L392.74,26.63 L394.03,26.66 L395.49,26.7 L396.67,26.72 L436.28,27.49 L438.5,27.5 L443.58,27.62 L443.94,27.6 L444.41,27.61 L445.03,27.64 L465.86,28.13 L468.31,28.13 L468.97,28.15 L470.98,28.17 L470.99,28.17 L474.09,28.17 L481.44,28.13 L481.44,28.13 Z" fill="black" fill-rule="evenodd"/>
</svg>
