<?xml version="1.0" encoding="UTF-8"?>
<svg xmlns="http://www.w3.org/2000/svg" viewBox="0 0 1000 1000">
  <path d="M399.67,33.52 L400.34,33.51 L427.61,33.44 L429.47,33.46 L585.08,33.38 L586.22,33.38 L586.28,33.38 L621.79,33.47 L694.13,33.1 L736.19,32.99 L763.24,33.92 L817.65,33.96 L919.66,33.77 L920.19,33.77 L937.97,33.75 L938.28,33.75 L939.07,33.75 L941.78,33.73 L943.94,33.75 L952.61,33.75 L975.0,33.78 L975.0,38.65 L974.99,38.75 L974.97,54.21 L974.97,54.28 L974.88,197.93 L974.87,210.52 L974.86,210.53 L974.86,216.64 L974.87,218.11 L974.82,261.47 L974.82,261.85 L974.79,273.01 L974.79,273.03 L974.86,334.24 L974.9,369.64 L974.85,432.3 L974.84,441.64 L974.84,441.67 L974.77,564.22 L974.73,631.02 L974.7,631.57 L974.72,632.18 L974.74,632.23 L974.67,657.98 L974.69,669.66 L974.69,669.74 L974.71,677.09 L974.72,677.25 L974.63,680.96 L974.63,681.12 L974.69,729.02 L974.69,729.02 L974.6,742.88 L974.6,743.45 L974.6,744.05 L974.6,744.86 L974.55,786.86 L974.5,842.4 L974.49,843.23 L974.42,852.44 L974.44,854.83 L974.45,878.36 L974.42,879.91 L974.42,888.24 L974.35,890.59 L974.24,939.5 L974.24,939.51 L974.21,967.01 L912.14,966.76 L741.97,966.92 L692.43,966.97 L656.88,967.0 L636.91,965.8 L592.69,951.63 L557.62,940.4 L447.85,905.8 L345.58,874.29 L302.94,861.56 L268.71,850.74 L242.46,842.43 L117.69,803.74 L25.0,775.68 L25.69,755.45 L26.02,754.75 L27.36,754.13 L30.23,754.14 L34.96,748.66 L35.81,747.7 L40.48,738.71 L47.23,735.77 L47.48,735.83 L50.49,736.23 L50.59,736.23 L57.61,737.11 L57.59,736.95 L77.17,721.69 L77.26,721.65 L82.3,712.29 L82.3,712.25 L82.76,707.9 L81.82,697.06 L74.78,688.53 L73.86,687.96 L72.77,687.29 L64.85,686.36 L63.76,686.56 L62.69,687.74 L61.86,688.07 L59.15,688.16 L56.25,687.66 L47.81,684.56 L42.42,677.39 L42.69,675.04 L44.23,670.78 L45.84,668.97 L47.11,666.12 L47.77,661.84 L48.31,649.82 L43.69,636.22 L40.21,627.02 L49.43,623.98 L55.71,620.99 L56.41,617.2 L61.08,610.86 L66.95,604.8 L70.78,598.72 L70.73,598.66 L70.01,596.77 L69.96,594.99 L71.65,580.52 L72.7,579.43 L73.5,579.0 L77.23,577.62 L77.6,575.8 L75.93,567.82 L72.8,559.63 L72.44,554.28 L73.61,541.28 L76.67,533.99 L82.64,528.78 L86.82,523.98 L87.36,521.48 L87.28,514.57 L87.62,513.14 L89.74,510.66 L91.19,509.58 L92.9,509.31 L94.67,509.57 L98.63,508.17 L106.03,504.96 L107.51,503.91 L118.78,498.12 L121.8,494.47 L131.91,486.25 L137.05,485.13 L137.34,484.82 L136.22,477.76 L129.86,470.17 L126.14,468.18 L115.46,461.6 L103.06,453.35 L84.46,420.07 L82.31,413.69 L67.97,401.4 L54.74,384.42 L54.39,383.59 L54.13,381.27 L55.09,378.28 L55.4,365.29 L55.37,364.34 L54.74,362.67 L54.66,360.43 L54.34,358.35 L56.56,347.42 L60.32,343.07 L62.77,342.42 L63.72,341.8 L64.67,340.16 L65.19,336.16 L65.25,332.79 L60.85,309.45 L59.47,304.78 L55.71,295.57 L51.62,292.33 L49.95,289.85 L47.39,282.35 L47.54,280.82 L47.83,278.92 L48.46,277.26 L51.32,264.28 L51.38,262.42 L50.71,261.18 L47.55,257.44 L45.46,255.73 L43.66,247.66 L42.44,229.3 L42.79,223.21 L43.02,222.69 L42.7,218.29 L38.56,207.35 L36.53,201.0 L34.55,183.96 L36.32,182.06 L37.75,181.13 L54.96,174.88 L64.79,173.35 L74.47,173.41 L96.17,174.99 L98.74,176.29 L104.85,180.94 L107.8,184.52 L108.4,185.71 L108.99,187.37 L110.8,189.9 L115.66,194.05 L117.39,194.99 L119.67,195.92 L120.57,195.96 L123.8,195.75 L133.61,194.39 L134.49,193.82 L136.23,191.52 L138.28,185.55 L139.2,181.48 L148.62,167.53 L149.06,167.13 L151.28,166.36 L151.24,157.05 L151.0,150.62 L151.35,137.07 L151.34,120.35 L150.67,90.24 L150.66,66.54 L150.66,59.46 L150.66,33.56 L164.61,33.62 L164.61,33.63 L329.21,33.59 L340.26,33.57 L387.95,33.5 L396.32,33.51 L398.6,33.51 L399.38,33.52 L399.67,33.52 Z" fill="black" fill-rule="evenodd"/>
</svg>
