<?xml version="1.0" encoding="UTF-8"?>
<svg xmlns="http://www.w3.org/2000/svg" viewBox="0 0 1000 1000">
  <path d="M260.83,228.61 L303.76,228.54 L323.09,228.59 L377.77,228.73 L379.7,228.74 L379.99,228.76 L380.87,228.77 L386.16,228.85 L386.9,228.85 L395.73,229.13 L413.41,229.27 L430.92,229.41 L475.69,229.43 L476.45,229.43 L537.04,229.25 L537.08,229.25 L539.83,229.25 L540.07,229.25 L582.22,229.25 L590.47,229.25 L642.62,228.76 L642.63,228.76 L680.85,228.78 L680.92,228.79 L681.29,228.79 L693.19,228.79 L695.76,228.8 L698.26,228.8 L700.85,228.8 L702.71,228.82 L704.6,228.8 L706.75,228.75 L707.45,228.79 L713.62,228.79 L713.79,228.8 L716.2,228.79 L723.96,228.77 L726.43,228.78 L729.07,228.78 L767.51,228.77 L777.94,228.79 L779.39,228.75 L788.15,228.74 L788.16,228.74 L793.5,228.75 L795.82,228.76 L796.14,228.76 L834.74,228.7 L834.91,228.7 L837.21,228.69 L837.42,228.69 L839.39,228.69 L840.03,228.7 L845.0,228.67 L845.26,228.68 L847.61,228.71 L847.78,228.72 L850.19,228.71 L850.34,228.73 L850.59,228.73 L850.74,228.72 L852.74,228.7 L852.97,228.73 L855.35,228.7 L855.55,228.72 L857.92,228.7 L858.16,228.71 L860.51,228.71 L860.74,228.72 L863.16,228.71 L863.44,228.74 L865.67,228.7 L866.05,228.7 L868.24,228.69 L868.65,228.72 L875.92,228.68 L876.85,228.7 L878.48,228.69 L880.51,228.71 L892.18,228.69 L896.57,228.66 L902.3,228.7 L902.7,228.7 L902.73,228.71 L904.01,228.71 L905.26,228.71 L914.58,228.68 L916.94,228.68 L917.11,228.68 L929.25,228.7 L931.35,228.71 L940.99,228.71 L941.02,228.71 L941.03,228.71 L941.19,228.71 L943.8,228.7 L944.38,228.68 L949.23,228.69 L951.9,228.67 L952.29,228.68 L954.75,228.69 L963.71,228.69 L971.07,228.68 L973.63,228.69 L973.64,228.69 L973.68,262.9 L973.68,262.9 L973.67,269.95 L973.63,291.56 L973.65,293.97 L973.66,304.81 L973.61,310.71 L973.65,311.16 L973.63,317.1 L973.6,332.51 L973.6,333.34 L973.6,342.34 L973.59,344.28 L973.62,363.95 L973.65,384.69 L973.67,385.55 L973.68,386.93 L973.69,388.86 L973.78,408.27 L973.87,419.54 L973.89,422.02 L973.89,422.81 L973.92,426.77 L973.9,427.08 L973.9,431.21 L973.94,442.42 L973.94,443.11 L973.97,445.09 L974.0,449.14 L974.07,458.69 L974.23,481.17 L974.24,481.7 L974.25,482.16 L974.32,493.35 L974.48,524.98 L974.49,526.86 L974.48,529.03 L974.49,530.84 L974.5,532.81 L974.49,532.97 L974.51,540.66 L974.52,541.88 L974.52,542.12 L974.51,543.68 L974.52,543.72 L974.53,544.44 L974.5,551.8 L974.5,551.81 L974.51,556.35 L974.51,559.45 L974.51,561.47 L974.52,564.18 L974.5,566.65 L974.5,566.67 L974.54,583.04 L974.59,592.8 L974.59,598.69 L974.59,598.7 L974.6,599.56 L974.62,601.24 L974.69,644.81 L974.69,645.08 L974.78,652.95 L974.8,658.88 L974.81,661.67 L974.85,663.67 L974.92,667.54 L974.94,670.47 L974.96,672.45 L975.0,678.33 L974.98,680.33 L975.0,681.84 L975.0,683.23 L974.99,688.16 L974.96,694.91 L974.96,697.18 L974.94,697.98 L974.97,701.93 L974.97,706.89 L974.98,711.57 L974.99,711.59 L974.99,714.95 L974.97,717.75 L974.93,722.68 L974.95,722.71 L974.97,728.54 L974.99,730.15 L974.95,735.49 L974.94,751.25 L974.92,753.51 L974.93,753.51 L974.97,755.28 L974.94,756.01 L974.95,765.69 L974.98,765.78 L974.95,766.08 L974.95,766.26 L974.95,767.09 L974.91,771.37 L973.25,771.37 L955.68,771.3 L952.43,771.28 L932.54,771.18 L932.53,771.17 L903.35,771.09 L862.13,770.48 L848.03,770.63 L847.19,770.63 L847.03,770.63 L844.97,770.42 L833.62,770.45 L746.02,770.7 L745.87,770.7 L708.85,770.94 L610.83,771.32 L610.82,771.32 L574.48,771.35 L558.21,771.05 L553.57,771.06 L544.7,771.09 L517.8,770.99 L514.67,770.98 L514.02,770.97 L511.59,770.98 L505.68,770.99 L505.19,771.01 L502.29,770.99 L489.62,771.02 L484.58,770.99 L477.58,771.0 L477.31,771.0 L439.72,771.05 L439.54,771.05 L438.3,771.06 L405.67,771.21 L405.54,771.21 L374.74,771.32 L355.66,771.39 L355.67,771.38 L354.11,771.36 L354.1,771.36 L349.68,771.35 L347.75,771.36 L321.47,771.46 L303.76,770.43 L246.87,770.43 L246.87,770.43 L238.64,770.44 L129.49,770.49 L129.45,770.5 L125.11,770.5 L125.07,770.5 L117.16,770.51 L84.61,770.54 L84.52,770.53 L39.3,770.58 L38.7,770.58 L27.01,770.56 L27.02,760.59 L27.03,760.33 L27.04,758.74 L27.01,757.4 L27.02,755.62 L27.01,755.28 L27.02,755.27 L26.93,719.68 L27.3,704.76 L27.46,698.61 L27.46,698.6 L27.47,688.66 L27.43,686.83 L27.43,686.0 L27.48,674.17 L27.48,673.9 L27.48,657.3 L27.48,656.46 L27.43,651.16 L27.29,638.56 L27.33,635.47 L27.33,635.17 L27.43,614.36 L27.44,614.03 L25.0,597.79 L25.01,567.4 L25.07,537.64 L25.83,512.66 L25.85,512.54 L25.92,507.51 L25.92,507.45 L26.16,482.8 L26.17,450.09 L26.18,432.36 L26.2,410.32 L26.24,356.39 L26.25,356.3 L26.23,339.9 L26.23,339.88 L26.25,334.22 L26.37,291.28 L26.35,291.22 L26.6,275.89 L26.59,274.68 L26.35,228.92 L134.56,228.99 L179.53,228.73 L260.83,228.61 Z" fill="black" fill-rule="evenodd"/>
</svg>
