<?xml version="1.0" encoding="UTF-8"?>
<svg xmlns="http://www.w3.org/2000/svg" viewBox="0 0 1000 1000">
  <path d="M947.61,803.72 L947.07,804.41 L946.42,805.88 L945.42,806.37 L942.91,811.1 L940.49,814.26 L935.01,822.62 L934.69,823.41 L935.21,825.34 L934.12,827.19 L931.81,830.13 L928.97,832.88 L925.4,834.5 L925.06,835.29 L923.52,836.93 L921.19,837.7 L919.71,838.91 L917.21,841.63 L917.81,842.53 L917.1,843.56 L911.7,847.66 L908.22,851.66 L907.49,852.23 L905.42,852.54 L904.44,852.91 L902.49,854.13 L899.51,857.31 L896.53,859.25 L896.3,858.97 L896.43,858.31 L897.61,857.92 L898.79,857.14 L900.97,855.03 L901.09,854.48 L900.93,854.05 L901.25,853.4 L904.32,851.62 L906.31,850.84 L906.68,851.08 L907.6,851.16 L909.1,850.0 L910.94,846.45 L911.04,845.52 L910.7,844.59 L913.39,844.32 L915.31,842.9 L916.28,841.26 L917.0,840.5 L917.83,840.18 L918.8,839.36 L921.36,836.58 L920.76,835.62 L920.17,835.26 L918.73,834.95 L917.11,833.66 L918.42,832.76 L919.26,833.02 L919.42,834.01 L920.95,834.79 L922.65,835.35 L923.33,834.82 L924.75,833.15 L924.76,832.11 L922.99,827.98 L923.14,827.53 L927.29,829.31 L928.54,828.72 L929.51,827.61 L930.55,825.09 L930.4,823.61 L929.95,822.42 L930.55,821.68 L932.69,820.64 L934.1,820.57 L935.21,820.12 L936.77,817.53 L937.21,814.71 L936.92,813.75 L936.1,812.94 L932.92,811.16 L933.44,810.64 L936.51,810.19 L937.1,810.71 L937.84,810.64 L939.47,809.68 L942.36,807.16 L942.74,805.82 L944.44,803.45 L945.86,802.17 L946.81,801.3 L947.11,798.86 L947.55,797.52 L948.14,796.63 L950.66,795.67 L951.55,795.08 L952.15,794.34 L953.11,792.19 L954.0,789.15 L954.89,787.3 L955.18,785.74 L954.96,784.56 L955.33,783.0 L956.52,781.59 L957.11,781.67 L957.18,786.11 L955.93,787.89 L953.41,794.93 L951.18,796.78 L949.18,801.23 L948.89,803.08 L947.7,803.6 L947.61,803.72 Z M781.15,889.07 L781.44,887.77 L783.65,884.8 L784.31,884.86 L786.24,886.29 L787.09,886.47 L789.14,885.44 L789.45,883.88 L789.96,883.45 L792.64,882.66 L794.42,882.51 L794.73,883.13 L795.35,883.38 L796.62,883.0 L797.24,882.57 L797.52,882.1 L797.42,879.39 L796.93,878.91 L797.6,877.99 L798.9,879.5 L799.18,880.55 L799.54,880.93 L800.0,881.06 L801.12,879.93 L801.3,879.22 L800.61,878.19 L800.18,878.01 L800.13,877.45 L800.82,877.3 L803.65,877.78 L804.88,878.5 L805.21,879.11 L805.32,880.01 L805.8,880.65 L808.95,882.82 L810.76,882.97 L814.09,883.76 L814.65,884.95 L814.75,886.33 L815.29,888.29 L816.74,889.32 L816.7,889.63 L816.11,889.96 L812.39,891.47 L804.61,893.78 L803.76,893.47 L803.59,891.38 L802.23,890.52 L799.96,890.67 L797.93,891.39 L795.2,891.17 L793.89,890.78 L793.78,890.49 L794.27,890.18 L794.45,889.77 L793.94,888.95 L791.68,888.29 L791.13,888.81 L790.81,889.59 L790.41,890.89 L790.38,892.48 L790.11,893.27 L789.18,893.88 L785.7,894.55 L778.64,898.11 L770.99,899.77 L769.68,900.87 L768.36,901.57 L767.57,901.42 L762.46,901.86 L758.27,902.4 L755.75,903.09 L752.73,903.32 L752.41,903.1 L752.22,900.96 L752.6,900.19 L753.94,900.04 L754.77,898.16 L757.3,898.29 L760.51,897.64 L761.62,897.67 L762.2,898.39 L762.71,898.67 L764.53,897.92 L764.58,897.35 L765.85,896.71 L766.6,896.71 L767.24,897.42 L768.14,897.35 L769.19,896.71 L770.4,895.43 L772.05,894.38 L774.38,893.74 L777.16,891.07 L777.2,890.09 L779.3,889.49 L780.54,889.42 L781.15,889.07 Z M710.21,899.37 L711.16,897.24 L712.12,896.8 L713.38,896.73 L716.02,897.88 L716.41,898.33 L716.61,899.85 L715.99,901.26 L714.44,902.77 L709.12,902.88 L708.39,902.39 L708.49,900.99 L710.21,899.37 Z M822.77,887.25 L823.23,886.94 L823.59,887.17 L823.4,887.77 L818.77,889.7 L819.2,888.86 L821.49,887.06 L822.77,887.25 Z M865.23,873.78 L865.69,875.19 L864.97,875.79 L861.66,875.48 L851.99,881.43 L851.0,881.81 L850.4,881.34 L849.92,880.5 L849.69,880.5 L845.91,881.99 L845.1,882.45 L844.5,883.39 L844.14,884.35 L844.18,884.87 L840.48,885.34 L838.47,883.31 L838.31,882.88 L840.56,882.32 L840.82,882.51 L841.59,882.42 L845.63,880.93 L847.66,879.22 L848.76,878.55 L849.39,878.57 L849.58,878.92 L851.21,879.78 L851.86,879.59 L854.67,878.42 L855.67,877.33 L858.96,875.89 L865.17,873.63 L865.23,873.78 Z M814.29,876.76 L815.81,876.85 L817.64,879.31 L817.96,881.31 L816.12,882.14 L815.15,880.54 L814.18,880.24 L813.14,880.37 L810.23,878.11 L809.32,876.82 L811.16,876.89 L813.05,876.13 L813.42,875.52 L814.29,876.76 Z M867.65,872.46 L868.4,872.48 L868.47,872.62 L867.39,873.17 L865.61,873.46 L867.65,872.46 Z M880.43,868.4 L880.15,869.2 L879.46,869.93 L876.17,869.85 L873.19,871.05 L872.68,871.1 L872.61,870.96 L873.2,870.49 L875.2,869.64 L877.15,867.93 L879.87,865.94 L881.39,866.36 L880.43,868.4 Z M887.8,863.26 L888.96,863.35 L891.08,861.32 L892.49,860.71 L892.66,861.24 L891.06,862.74 L889.98,863.51 L883.79,866.9 L883.09,866.91 L885.78,865.1 L886.39,864.25 L887.42,863.33 L887.8,863.26 Z M697.08,633.61 L697.16,633.02 L698.23,633.23 L698.74,634.74 L698.31,635.46 L698.23,636.11 L699.37,638.79 L701.76,643.23 L702.26,646.16 L704.48,651.55 L705.63,655.57 L706.85,658.73 L708.29,660.31 L710.37,661.82 L712.6,661.89 L714.04,662.33 L717.99,664.62 L719.43,663.26 L721.22,662.76 L724.24,664.41 L727.09,664.66 L727.32,664.74 L727.3,665.01 L721.15,668.34 L719.66,668.76 L718.68,668.76 L716.78,668.4 L713.21,666.99 L710.46,664.59 L707.43,663.07 L706.92,662.58 L706.46,661.99 L705.74,660.37 L703.87,651.99 L703.36,650.71 L701.28,647.73 L699.19,641.98 L697.97,639.74 L696.18,637.36 L695.55,636.19 L696.01,634.22 L697.08,633.61 Z M382.05,258.29 L387.97,254.35 L389.57,253.08 L392.1,250.48 L392.43,251.14 L392.33,251.49 L389.98,254.04 L383.56,259.25 L382.08,260.19 L379.31,261.52 L372.48,263.62 L368.63,265.18 L359.49,270.13 L349.69,273.09 L347.84,273.34 L347.39,272.7 L345.53,271.05 L342.32,268.9 L342.08,268.56 L342.36,268.24 L345.9,270.46 L349.4,271.76 L351.28,272.07 L352.06,271.16 L355.74,270.42 L358.17,269.55 L362.63,267.05 L363.48,266.09 L364.17,265.63 L367.22,264.53 L371.44,262.64 L377.53,260.83 L379.43,259.3 L382.05,258.29 Z M334.67,261.76 L337.05,261.17 L337.39,260.89 L339.94,260.63 L342.48,261.11 L343.75,261.83 L344.56,262.85 L342.79,265.63 L342.07,267.58 L338.61,268.15 L336.38,267.28 L333.91,265.42 L331.16,263.71 L328.69,262.62 L326.41,261.96 L326.68,261.69 L328.1,261.49 L331.13,261.37 L333.14,261.41 L334.67,261.76 Z M626.39,476.06 L625.36,475.55 L625.51,469.14 L626.21,467.78 L626.2,466.02 L625.8,464.93 L625.11,463.75 L624.54,462.47 L624.93,461.34 L625.27,460.96 L625.82,461.14 L626.2,463.08 L626.8,464.41 L627.4,466.97 L627.19,470.05 L626.41,470.56 L626.36,471.3 L626.93,472.6 L627.19,474.9 L626.39,476.06 Z M565.43,142.47 L565.46,142.47 L565.46,142.47 L572.08,142.86 L580.68,143.36 L582.3,143.46 L583.69,143.53 L584.58,143.58 L587.03,143.72 L619.24,145.63 L619.43,145.64 L641.71,146.98 L641.75,146.99 L642.88,147.05 L642.92,147.05 L656.07,147.79 L657.91,147.89 L658.38,147.94 L659.92,148.02 L660.94,148.09 L662.04,148.15 L663.45,148.24 L671.59,148.73 L671.62,148.73 L676.7,149.05 L682.2,149.39 L693.13,150.08 L696.79,150.32 L697.82,150.41 L702.19,150.89 L702.25,150.89 L702.51,159.31 L703.29,164.82 L702.76,168.68 L703.53,171.59 L705.35,174.73 L707.61,176.77 L708.4,177.0 L713.44,175.93 L722.78,176.46 L722.79,176.44 L727.02,159.59 L726.91,156.84 L728.35,151.33 L727.38,147.31 L724.34,142.61 L722.86,139.86 L722.73,137.24 L726.14,124.03 L729.06,123.23 L740.78,119.01 L745.45,122.68 L748.98,123.48 L750.65,123.16 L753.19,123.07 L759.1,125.35 L761.36,126.44 L762.44,128.03 L764.03,128.69 L774.36,130.04 L775.98,129.75 L778.24,132.01 L785.93,132.69 L798.49,133.06 L799.91,133.89 L800.57,134.52 L800.15,138.1 L798.62,146.65 L798.68,152.36 L799.74,156.44 L798.66,158.02 L798.12,158.8 L798.99,159.55 L800.75,159.67 L802.65,161.5 L803.13,169.0 L804.32,171.68 L804.45,179.25 L805.05,183.82 L805.81,187.52 L806.51,190.13 L809.55,201.42 L815.37,225.55 L817.09,230.65 L817.87,232.33 L819.43,234.17 L820.19,236.34 L820.91,239.45 L821.07,244.14 L821.9,248.63 L823.88,254.31 L825.36,257.38 L827.38,262.88 L827.54,263.33 L833.54,277.29 L838.5,287.39 L841.24,293.31 L848.15,308.21 L854.55,320.93 L858.2,328.19 L860.93,332.82 L865.56,338.64 L867.26,342.15 L869.19,345.35 L880.59,362.26 L887.43,372.75 L889.81,376.41 L889.82,376.42 L889.87,376.5 L890.24,377.07 L890.39,377.26 L894.93,382.98 L896.06,384.41 L897.97,386.82 L897.99,386.84 L898.05,386.92 L898.23,387.18 L898.78,387.96 L899.08,388.39 L900.04,389.75 L901.86,392.33 L905.97,396.93 L907.09,398.5 L908.03,401.35 L908.83,405.3 L911.94,411.81 L913.31,414.21 L913.11,415.18 L908.59,416.92 L907.19,418.17 L905.48,420.28 L904.43,422.8 L903.53,426.14 L903.09,429.57 L902.94,432.72 L903.43,439.41 L905.21,449.37 L908.15,459.66 L910.49,465.52 L915.34,475.3 L923.07,488.86 L923.06,489.01 L923.05,489.14 L930.98,504.09 L934.97,516.26 L935.12,518.05 L935.89,519.56 L937.57,521.9 L938.35,525.44 L938.78,526.91 L939.97,531.01 L941.29,534.04 L942.29,534.04 L945.74,544.01 L947.23,549.1 L949.74,553.91 L950.59,556.23 L954.02,563.69 L954.79,565.38 L958.74,572.46 L959.76,575.4 L958.98,576.15 L960.2,578.62 L961.6,582.62 L964.33,587.51 L967.19,594.23 L968.98,600.24 L970.59,605.6 L973.14,614.14 L975.0,622.0 L974.91,625.1 L974.38,625.14 L974.24,625.75 L974.81,632.13 L974.81,633.93 L974.45,637.03 L974.5,644.99 L974.06,650.36 L972.63,657.83 L971.35,665.94 L970.1,679.46 L969.89,679.6 L969.57,681.38 L969.51,681.68 L968.94,688.47 L968.23,690.35 L967.75,692.53 L966.25,703.03 L965.77,709.47 L965.57,709.88 L965.3,710.45 L965.23,710.6 L964.88,714.85 L964.2,723.2 L964.2,724.6 L964.19,732.02 L963.82,736.09 L963.96,741.36 L963.67,744.25 L963.0,747.58 L962.93,749.95 L961.74,752.69 L960.93,753.88 L959.82,758.62 L959.67,761.07 L959.89,761.88 L959.56,763.29 L958.81,763.36 L956.81,760.84 L957.63,757.66 L958.37,756.25 L958.15,755.36 L957.33,754.25 L955.85,753.29 L954.22,753.43 L950.29,754.92 L948.89,755.95 L948.37,756.84 L947.63,760.47 L945.7,764.18 L945.55,764.99 L944.29,766.85 L942.88,767.66 L941.85,768.7 L941.25,769.81 L940.73,772.33 L940.73,774.55 L941.18,775.52 L939.7,779.07 L938.36,779.52 L937.84,779.89 L936.51,784.04 L936.51,786.63 L936.81,788.26 L937.92,791.08 L938.88,791.82 L938.14,793.6 L938.22,796.71 L938.88,797.52 L940.14,797.75 L940.59,798.41 L940.14,799.82 L937.03,804.12 L934.88,805.23 L933.73,805.53 L932.18,806.79 L931.06,808.79 L930.69,810.42 L926.54,813.53 L924.22,814.82 L923.06,815.46 L921.09,816.92 L920.47,817.38 L920.4,817.45 L920.22,817.64 L918.54,819.38 L918.0,820.47 L917.94,820.58 L917.92,820.6 L917.03,821.52 L916.93,821.49 L916.65,821.44 L916.62,821.43 L916.08,821.05 L916.06,821.04 L915.48,820.64 L915.43,820.61 L915.43,820.61 L914.83,819.36 L914.61,819.24 L914.54,819.2 L913.9,818.85 L913.55,818.94 L913.23,819.12 L912.67,819.42 L911.33,819.17 L911.2,818.72 L911.33,818.33 L911.35,817.74 L910.39,816.88 L909.17,816.57 L907.6,816.53 L905.3,818.47 L905.5,820.49 L905.85,821.36 L905.86,821.36 L904.66,822.27 L903.75,822.96 L902.75,823.71 L902.75,823.71 L901.58,824.28 L901.58,824.28 L899.71,824.34 L898.97,824.37 L898.92,824.37 L898.85,824.4 L898.65,824.5 L898.24,824.69 L898.23,824.69 L898.19,824.75 L897.89,825.22 L897.8,825.36 L896.84,825.42 L896.37,825.45 L895.21,825.52 L894.67,825.56 L893.98,825.6 L893.47,825.63 L892.91,825.86 L892.08,826.75 L891.3,828.11 L891.0,829.06 L889.57,828.84 L888.73,828.31 L887.89,828.41 L887.12,828.49 L886.67,828.55 L886.1,828.61 L885.66,827.88 L885.68,827.03 L884.98,825.98 L884.27,825.6 L879.53,824.9 L879.44,824.89 L877.07,825.83 L876.83,825.92 L876.04,826.23 L875.66,826.38 L875.65,826.39 L875.65,826.38 L875.57,826.21 L875.53,826.13 L875.41,825.87 L875.21,825.43 L874.19,824.6 L873.51,824.41 L873.17,824.31 L873.17,824.31 L871.7,824.37 L871.62,824.39 L869.68,824.64 L869.62,824.65 L869.54,824.66 L869.5,824.67 L869.1,824.88 L869.07,824.89 L867.51,825.67 L866.54,826.15 L866.46,826.19 L866.46,826.23 L866.33,826.88 L866.27,827.2 L866.27,827.22 L866.44,827.62 L866.61,827.99 L866.4,828.98 L866.4,828.99 L866.39,828.98 L866.18,828.96 L865.65,828.91 L864.48,828.78 L864.48,828.78 L862.55,829.27 L861.88,829.44 L861.56,829.52 L861.35,829.57 L861.08,829.64 L861.07,829.64 L859.65,829.51 L859.53,829.5 L859.46,829.5 L859.3,829.48 L859.13,829.5 L858.04,829.63 L858.04,829.63 L858.01,829.64 L858.0,829.64 L857.7,829.68 L857.63,829.68 L857.63,829.68 L857.53,829.7 L857.52,829.7 L857.5,829.7 L857.33,829.76 L856.83,829.94 L854.98,830.6 L854.71,830.69 L854.08,830.92 L854.01,830.91 L852.78,830.77 L851.1,830.27 L850.83,830.28 L849.8,830.32 L849.23,830.35 L847.82,830.4 L847.81,830.4 L847.8,830.4 L847.74,830.41 L847.67,830.41 L844.0,831.59 L842.17,830.56 L839.99,828.26 L838.91,827.41 L837.29,826.91 L836.36,825.96 L836.2,823.57 L836.18,823.52 L836.12,823.4 L835.64,822.31 L834.58,820.49 L834.55,820.44 L834.51,820.4 L832.98,819.09 L832.58,818.75 L832.48,818.66 L832.49,818.49 L832.56,817.14 L832.57,816.92 L832.62,815.84 L832.62,815.72 L832.77,815.3 L832.8,815.23 L832.83,815.15 L832.95,814.8 L833.73,810.22 L834.07,809.13 L834.95,808.26 L835.37,806.7 L835.0,805.86 L835.47,804.86 L836.47,803.82 L837.25,803.58 L838.81,804.11 L839.21,803.3 L839.33,802.09 L837.92,798.89 L836.31,798.79 L835.17,798.05 L835.15,796.56 L835.59,795.92 L835.64,795.51 L832.91,788.48 L831.56,787.04 L830.0,785.87 L827.96,783.35 L827.72,781.86 L828.59,779.7 L828.44,779.1 L827.82,777.89 L825.8,776.66 L824.9,774.8 L824.86,773.15 L823.93,771.59 L823.91,769.77 L822.25,766.7 L820.38,764.36 L819.32,763.35 L817.7,760.54 L812.88,756.82 L812.12,757.02 L810.74,756.29 L810.75,754.41 L811.0,753.02 L810.65,752.23 L809.61,751.43 L809.06,750.69 L808.76,749.89 L810.9,748.7 L811.45,748.15 L811.3,747.16 L810.93,746.07 L810.35,744.38 L809.91,743.73 L808.71,743.43 L805.73,741.5 L804.69,740.01 L801.81,738.37 L800.97,738.02 L800.37,738.32 L798.83,738.52 L796.69,737.87 L795.05,736.28 L794.76,735.44 L793.07,735.44 L791.38,735.98 L790.38,735.98 L789.89,735.69 L790.04,734.39 L789.54,734.0 L788.05,733.8 L786.36,733.95 L781.84,735.34 L780.95,735.39 L777.17,734.74 L776.08,734.34 L774.0,734.27 L773.45,734.24 L772.2,734.79 L771.04,735.79 L769.94,739.4 L769.23,740.82 L768.42,740.59 L767.83,739.9 L764.87,734.29 L764.31,733.73 L763.13,733.09 L762.53,730.05 L761.76,728.74 L760.82,727.79 L760.31,726.43 L760.54,722.21 L760.19,721.69 L759.34,721.45 L758.72,720.74 L753.82,710.47 L752.92,702.47 L752.2,699.86 L751.92,695.61 L751.44,691.92 L749.88,684.7 L748.46,680.55 L748.3,680.22 L745.41,674.19 L741.29,670.16 L741.19,669.5 L740.07,668.13 L738.58,666.94 L736.73,665.89 L734.46,664.98 L733.51,664.28 L733.15,663.67 L733.26,663.39 L732.85,661.96 L731.45,661.4 L729.41,660.92 L727.92,661.02 L727.33,660.17 L727.9,658.37 L725.96,657.44 L723.59,656.58 L720.65,657.37 L720.07,659.95 L717.2,661.03 L715.83,661.03 L715.04,653.92 L714.18,651.41 L713.75,649.11 L711.81,641.85 L710.3,639.77 L706.35,636.32 L706.57,634.45 L707.36,633.81 L710.09,633.52 L711.67,633.66 L713.32,634.09 L714.18,635.17 L715.76,638.12 L716.55,638.69 L717.41,638.33 L718.2,635.89 L718.42,633.74 L719.07,631.94 L720.72,628.71 L721.29,625.24 L721.36,624.76 L721.36,622.89 L722.15,621.24 L721.8,618.79 L721.72,616.71 L721.94,614.2 L721.65,611.97 L720.72,611.25 L717.7,610.46 L717.41,608.23 L717.77,606.15 L718.63,605.58 L720.57,605.58 L721.29,605.14 L721.36,604.21 L721.15,602.77 L719.5,601.77 L715.55,601.84 L714.91,602.08 L714.4,602.27 L713.46,603.35 L711.88,605.79 L708.79,605.86 L707.86,606.15 L707.14,606.94 L707.43,609.38 L709.51,615.06 L710.66,622.82 L710.16,623.61 L707.43,624.18 L706.71,624.97 L702.88,625.02 L701.32,625.04 L700.03,623.68 L699.89,623.53 L699.8,623.63 L698.81,624.76 L697.66,627.05 L696.57,631.86 L696.08,630.83 L695.97,626.94 L695.36,623.46 L695.09,622.85 L693.86,620.14 L692.92,618.07 L691.34,616.35 L685.1,608.0 L682.09,603.3 L678.98,598.44 L676.66,593.96 L673.35,588.98 L671.52,584.07 L670.9,582.72 L670.45,582.36 L669.44,578.91 L665.03,570.63 L661.6,564.78 L660.93,563.94 L659.19,562.97 L657.85,561.64 L657.91,559.25 L657.07,557.91 L654.37,554.6 L651.09,551.3 L648.72,547.86 L648.72,547.86 L644.69,543.54 L642.6,541.93 L642.7,541.04 L640.6,535.63 L639.76,534.03 L638.51,532.38 L636.2,530.2 L635.86,529.23 L636.28,529.17 L640.56,531.15 L640.25,533.87 L640.72,534.28 L642.77,534.53 L643.27,534.43 L643.21,533.08 L643.62,532.44 L644.75,531.63 L646.32,531.23 L647.73,531.2 L648.32,529.89 L650.07,527.6 L652.57,525.18 L652.45,523.73 L652.48,523.67 L652.61,523.43 L654.51,522.33 L655.99,522.09 L657.74,520.48 L658.36,519.63 L659.25,516.76 L659.76,515.95 L661.92,512.48 L664.78,508.4 L667.2,506.73 L668.76,506.61 L669.36,506.22 L669.53,505.36 L669.42,504.7 L668.78,503.77 L669.27,503.32 L671.87,502.53 L674.73,501.05 L675.06,500.59 L674.81,499.84 L676.68,497.38 L676.76,496.2 L677.71,495.24 L678.7,495.02 L679.89,491.91 L679.38,490.15 L678.73,486.28 L677.32,483.93 L675.02,483.94 L672.61,483.17 L671.56,482.66 L671.61,482.0 L671.3,481.6 L669.31,480.65 L667.84,481.66 L667.68,482.3 L668.14,484.73 L668.06,488.66 L669.05,489.95 L670.11,490.69 L670.46,491.19 L670.01,493.78 L669.65,493.98 L667.83,493.78 L665.17,493.1 L659.83,490.55 L659.95,488.77 L661.74,488.49 L662.42,487.77 L662.83,486.92 L661.65,485.98 L661.22,485.28 L661.35,484.89 L662.09,484.36 L662.65,483.62 L662.35,479.98 L661.42,477.98 L659.83,475.74 L655.39,475.25 L651.63,475.4 L648.0,475.82 L639.51,476.81 L639.01,477.14 L638.56,478.1 L638.83,478.88 L638.9,479.08 L639.03,479.46 L639.06,479.56 L640.32,480.57 L642.62,481.0 L643.44,482.07 L645.17,482.48 L650.57,482.81 L649.8,483.64 L650.06,485.22 L652.82,487.42 L658.08,486.14 L658.09,486.41 L658.22,489.35 L654.27,489.41 L654.72,491.18 L655.41,492.14 L655.76,494.51 L653.14,496.74 L651.23,499.12 L650.26,502.36 L650.95,505.01 L650.86,505.72 L649.87,507.77 L649.1,508.61 L647.51,509.06 L646.21,508.81 L646.17,508.79 L645.64,508.57 L645.48,508.5 L645.27,508.42 L645.21,508.39 L645.13,508.36 L645.12,508.36 L645.06,508.35 L644.94,508.35 L644.81,508.34 L644.41,508.32 L644.2,509.59 L644.17,509.76 L642.36,509.07 L639.87,509.26 L639.23,510.09 L638.7,512.69 L638.88,513.6 L639.54,515.17 L640.01,515.76 L641.82,516.73 L640.95,518.43 L637.44,519.97 L637.01,519.42 L636.92,518.7 L636.86,518.25 L636.69,516.98 L636.83,508.24 L636.54,506.82 L635.8,505.18 L634.86,504.56 L633.97,503.45 L632.83,500.61 L631.19,498.62 L630.3,497.65 L626.53,494.88 L625.51,493.82 L623.27,489.82 L622.95,488.7 L622.7,485.82 L623.11,482.83 L623.98,479.46 L625.16,476.35 L625.98,476.59 L626.34,477.0 L625.23,480.24 L624.27,482.97 L625.07,482.95 L626.49,480.7 L627.99,477.47 L628.4,476.59 L629.36,472.79 L630.0,470.22 L630.0,467.58 L631.24,464.63 L631.1,458.33 L631.31,456.58 L631.42,455.67 L630.75,453.5 L630.24,452.56 L629.2,452.65 L628.02,452.27 L628.45,450.1 L629.36,448.15 L633.75,444.25 L633.52,444.12 L633.57,441.08 L634.2,439.88 L635.81,438.98 L637.48,435.14 L637.15,434.08 L637.65,431.0 L639.6,428.45 L640.81,425.63 L640.79,421.47 L641.9,419.12 L643.56,418.14 L644.23,417.46 L644.35,417.34 L644.73,416.39 L644.03,414.49 L645.02,413.55 L645.94,411.09 L646.02,410.54 L645.78,409.48 L645.31,409.05 L645.4,406.66 L645.57,405.62 L646.11,405.37 L646.99,403.54 L646.36,402.93 L646.37,402.38 L646.94,400.64 L647.31,397.79 L646.07,395.83 L646.99,393.68 L646.76,392.06 L647.3,388.1 L648.27,384.85 L648.39,384.46 L647.46,383.45 L647.07,382.6 L647.46,381.75 L647.07,380.66 L646.3,379.5 L647.69,378.26 L648.39,375.78 L648.7,373.84 L648.7,372.91 L648.0,372.14 L647.77,371.05 L647.46,367.79 L649.24,366.24 L648.7,364.15 L649.09,362.14 L648.47,360.51 L647.07,359.27 L644.9,359.11 L642.97,358.46 L641.25,355.05 L640.48,354.67 L638.6,352.48 L637.11,349.96 L636.85,347.21 L634.22,347.51 L634.01,347.54 L633.57,346.71 L634.16,345.84 L634.89,343.36 L634.12,339.9 L631.17,338.6 L631.51,337.48 L626.97,337.15 L626.13,334.31 L627.9,333.6 L628.94,333.54 L629.19,332.85 L629.22,332.37 L628.37,330.45 L628.49,328.35 L625.7,326.88 L621.81,326.4 L618.19,326.46 L613.76,325.46 L612.54,325.69 L610.93,325.7 L607.26,325.32 L606.65,325.2 L605.7,324.17 L605.14,324.1 L604.58,324.42 L601.82,327.75 L601.71,329.01 L600.29,329.93 L597.45,330.32 L596.99,328.4 L595.57,327.54 L596.48,325.31 L596.45,324.67 L595.94,323.62 L594.23,322.07 L593.12,319.63 L594.76,315.69 L594.44,314.77 L592.97,313.37 L590.67,313.08 L588.41,311.83 L588.1,311.35 L585.8,310.54 L585.38,310.47 L584.01,310.86 L583.34,310.58 L582.91,310.39 L582.01,307.41 L581.82,305.7 L582.0,305.53 L582.17,303.61 L580.41,301.27 L579.02,299.96 L578.8,297.39 L576.85,294.13 L574.05,292.55 L571.11,292.22 L570.11,292.66 L567.27,291.96 L565.73,289.24 L565.63,288.09 L565.17,287.24 L563.71,287.1 L562.72,287.25 L560.36,285.53 L559.53,284.21 L557.83,284.21 L556.71,283.76 L556.12,282.58 L554.09,282.05 L553.92,281.29 L554.14,280.07 L553.46,274.42 L553.49,272.26 L554.18,270.09 L553.61,266.61 L552.58,263.35 L552.52,263.15 L552.28,262.89 L549.59,262.04 L548.54,262.07 L548.1,262.3 L547.2,262.16 L543.73,260.4 L543.68,259.39 L542.41,258.16 L540.04,257.15 L536.92,256.33 L535.73,255.19 L534.75,253.89 L533.38,251.54 L531.76,250.67 L531.04,249.71 L530.87,248.64 L531.25,248.3 L531.39,247.71 L530.89,245.25 L529.69,243.22 L528.47,242.17 L526.81,241.43 L524.38,235.96 L521.64,234.28 L519.23,231.91 L518.33,231.26 L509.48,226.98 L505.55,224.61 L500.56,223.83 L498.47,221.97 L487.71,216.85 L487.44,216.59 L487.66,216.21 L487.47,215.94 L484.19,213.62 L480.2,211.25 L479.06,209.71 L476.12,208.83 L473.07,208.84 L471.28,209.06 L469.65,209.8 L468.78,210.2 L468.28,210.22 L467.32,209.87 L466.32,210.03 L464.93,211.05 L463.55,210.41 L462.2,211.36 L459.5,212.65 L458.18,212.81 L456.77,212.59 L454.35,210.74 L453.97,210.74 L453.75,211.0 L453.16,211.14 L449.54,211.04 L448.46,210.11 L448.23,209.09 L447.11,208.76 L445.5,209.53 L445.11,210.19 L444.92,211.35 L445.37,212.3 L445.32,213.22 L444.52,214.2 L442.95,214.58 L441.94,214.55 L439.75,213.05 L436.42,213.75 L434.31,214.46 L433.44,218.66 L433.93,223.26 L434.18,223.64 L435.71,223.71 L436.29,224.84 L436.52,226.63 L436.75,228.48 L437.11,228.91 L437.45,231.26 L437.18,232.6 L436.25,234.28 L435.54,234.62 L431.81,235.08 L428.56,234.07 L426.2,233.85 L424.89,233.43 L423.72,232.5 L422.72,230.59 L420.39,231.16 L417.36,232.48 L415.18,232.15 L412.2,232.96 L407.01,235.75 L403.78,237.21 L402.55,238.22 L398.2,240.83 L397.15,241.98 L397.14,242.44 L395.48,243.11 L393.7,242.8 L392.69,243.09 L387.91,245.86 L384.75,248.15 L383.82,248.11 L376.18,251.93 L374.56,252.23 L370.67,253.91 L368.98,254.98 L368.2,256.41 L367.64,256.38 L366.48,254.75 L367.95,252.24 L369.57,250.11 L367.46,248.57 L366.19,248.43 L364.82,248.8 L364.09,250.1 L361.91,252.94 L360.88,253.59 L358.71,253.91 L358.11,255.83 L357.09,256.56 L355.05,257.34 L349.56,257.83 L345.2,256.84 L341.51,256.87 L339.04,257.23 L335.07,258.18 L332.06,259.19 L327.06,259.84 L325.79,260.01 L321.76,261.55 L317.89,261.2 L314.33,261.52 L311.28,262.71 L310.77,263.31 L311.14,264.86 L310.16,264.24 L308.06,261.58 L306.7,259.4 L304.5,254.15 L302.49,246.74 L301.99,243.11 L302.17,241.39 L302.54,240.1 L303.51,238.5 L305.18,237.86 L304.39,239.31 L303.61,242.95 L303.5,246.48 L304.79,251.42 L306.99,258.01 L308.76,260.02 L310.0,261.12 L311.11,261.08 L314.52,260.3 L315.31,259.52 L316.56,247.08 L316.41,245.71 L316.12,245.33 L315.3,244.92 L314.91,243.93 L314.88,242.9 L315.12,242.69 L314.55,241.86 L313.61,241.1 L312.7,240.98 L312.15,240.56 L310.85,237.73 L308.77,234.36 L306.14,231.61 L305.65,231.18 L303.6,229.42 L300.99,227.99 L296.68,226.78 L295.56,227.0 L293.27,226.57 L290.6,225.3 L286.6,222.26 L282.76,218.43 L281.57,217.01 L280.72,214.79 L279.1,214.69 L276.97,213.55 L274.59,212.57 L272.59,212.0 L267.15,209.62 L263.0,206.97 L260.52,204.67 L257.33,202.2 L252.86,199.45 L244.5,194.79 L238.94,191.99 L229.76,188.1 L229.28,187.9 L218.03,183.8 L201.46,178.8 L191.95,176.37 L183.77,174.94 L179.63,174.43 L179.24,174.39 L177.79,174.21 L175.63,174.08 L172.46,173.89 L172.27,173.88 L172.17,173.87 L170.44,173.77 L170.05,173.78 L166.03,173.97 L163.17,173.39 L150.19,172.22 L135.45,172.77 L129.28,173.44 L122.99,174.13 L115.61,175.2 L114.41,175.42 L84.92,180.78 L78.56,181.63 L70.87,182.31 L69.0,181.91 L67.42,181.31 L64.41,182.02 L60.54,182.62 L51.87,184.61 L39.57,186.69 L47.81,184.22 L48.1,182.86 L47.99,178.47 L47.93,175.85 L49.27,172.82 L50.92,170.7 L51.96,170.48 L50.53,160.37 L48.31,157.63 L48.13,157.46 L48.12,157.42 L55.04,143.62 L55.08,141.56 L54.73,140.06 L53.46,137.8 L48.19,134.41 L44.21,132.21 L42.17,131.76 L41.49,131.48 L37.79,128.84 L26.35,116.07 L25.0,113.55 L26.59,109.59 L29.2,104.75 L30.1,99.75 L29.5,97.11 L29.5,97.11 L32.95,97.06 L35.79,97.05 L44.33,97.01 L44.4,97.01 L44.52,97.01 L46.0,97.02 L46.0,97.02 L46.63,97.01 L46.65,97.01 L47.02,96.99 L47.39,97.0 L48.13,97.0 L50.32,97.01 L51.13,97.03 L58.37,97.0 L58.85,97.01 L59.89,97.01 L62.6,97.0 L65.33,96.98 L66.34,97.02 L66.65,96.98 L67.97,96.99 L68.23,97.0 L71.15,97.01 L71.78,97.01 L71.88,97.02 L72.1,97.01 L72.22,97.01 L72.4,97.01 L72.47,97.0 L83.95,96.91 L84.01,96.91 L95.75,96.9 L96.33,96.89 L97.62,96.9 L99.33,96.84 L99.79,96.87 L100.94,96.88 L118.31,97.09 L120.2,97.09 L125.33,97.12 L125.51,97.11 L131.08,97.17 L131.11,97.17 L138.26,97.2 L138.4,97.18 L138.64,97.18 L143.27,97.41 L144.51,97.47 L146.23,97.47 L158.36,97.4 L158.87,97.39 L164.31,97.63 L165.2,97.58 L172.01,97.54 L172.46,97.56 L178.68,97.53 L180.3,97.52 L180.71,97.52 L180.71,97.52 L182.48,97.48 L183.13,97.48 L183.68,97.48 L191.21,97.54 L193.13,97.56 L205.88,97.54 L206.75,97.54 L207.38,97.56 L208.16,97.58 L208.92,97.58 L222.25,97.65 L222.72,97.63 L224.89,97.62 L291.96,97.17 L291.99,97.17 L293.2,97.16 L334.91,96.68 L335.19,96.68 L335.21,96.68 L335.99,96.7 L347.02,96.72 L347.37,96.72 L347.7,96.72 L350.32,96.71 L350.45,96.71 L350.77,96.71 L351.2,96.7 L353.92,96.7 L354.38,100.36 L356.27,104.85 L359.26,107.96 L361.47,110.78 L367.19,127.95 L371.12,132.83 L371.27,132.84 L403.39,134.29 L403.41,134.29 L411.76,134.67 L412.3,134.71 L431.59,135.56 L443.85,136.11 L444.02,136.11 L468.69,137.28 L472.0,137.43 L473.33,137.49 L473.93,137.54 L474.19,137.54 L478.22,137.76 L478.23,137.76 L494.11,138.54 L494.12,138.54 L497.24,138.72 L501.53,138.94 L502.83,139.03 L511.17,139.47 L519.54,139.91 L519.88,139.93 L527.67,140.36 L527.67,140.36 L548.01,141.47 L549.12,141.52 L550.42,141.58 L550.44,141.58 L555.36,141.85 L556.68,141.93 L559.4,142.1 L561.49,142.22 L561.51,142.23 L565.16,142.45 L565.43,142.47 Z" fill="black" fill-rule="evenodd"/>
</svg>
