<?xml version="1.0" encoding="UTF-8"?>
<svg xmlns="http://www.w3.org/2000/svg" viewBox="0 0 1000 1000">
  <path d="M183.45,39.78 L183.71,39.78 L183.92,39.78 L190.35,39.74 L199.29,39.68 L200.01,39.69 L221.13,39.63 L243.38,39.69 L243.55,39.69 L266.31,39.69 L266.5,39.68 L280.87,39.62 L319.22,39.8 L319.24,39.8 L339.08,39.83 L340.79,39.81 L343.96,39.81 L357.68,39.8 L357.73,39.8 L410.12,39.87 L420.78,38.88 L434.9,38.8 L448.12,38.55 L522.76,37.15 L522.79,37.15 L515.87,52.31 L495.99,61.68 L491.14,70.65 L487.98,72.93 L479.82,79.44 L476.82,88.89 L474.17,93.91 L474.15,93.93 L474.37,94.24 L474.45,94.48 L474.39,96.78 L477.0,99.53 L477.07,99.58 L486.28,106.41 L496.45,112.17 L496.45,112.21 L511.03,116.97 L510.34,117.3 L510.48,118.57 L523.13,130.21 L527.05,133.82 L529.93,136.13 L534.03,138.38 L537.51,140.29 L543.07,142.11 L545.37,142.07 L545.9,141.17 L545.99,141.15 L548.51,140.45 L556.58,139.75 L563.84,139.81 L567.79,141.18 L569.59,142.68 L569.39,143.2 L574.61,152.18 L591.08,178.17 L593.28,181.65 L595.88,190.79 L595.59,191.36 L595.39,191.85 L595.89,194.81 L595.98,195.08 L597.89,201.13 L600.76,206.68 L603.43,208.58 L608.77,210.44 L610.61,212.73 L612.41,216.05 L612.51,216.13 L613.42,216.68 L613.79,216.81 L615.96,218.96 L616.07,219.08 L624.77,234.22 L631.25,245.5 L631.27,245.51 L658.25,263.44 L659.52,263.86 L662.4,263.34 L663.29,263.51 L679.12,272.57 L683.71,276.2 L694.48,286.02 L700.23,299.24 L704.63,310.35 L707.96,313.27 L716.89,318.23 L718.08,318.45 L718.93,318.19 L720.57,318.49 L724.12,319.17 L730.06,321.35 L734.58,323.66 L738.19,327.42 L740.97,330.34 L742.3,331.73 L742.4,331.83 L750.39,340.24 L752.21,342.64 L761.25,354.57 L763.21,370.03 L773.3,386.72 L773.34,386.75 L789.23,400.16 L804.25,412.84 L819.53,417.05 L820.43,417.63 L835.17,426.97 L841.18,431.19 L844.18,434.04 L845.21,436.36 L844.56,440.26 L843.55,443.29 L858.71,473.86 L862.47,486.52 L862.43,486.93 L860.51,508.37 L859.78,508.91 L859.73,509.97 L861.08,512.16 L865.58,516.74 L865.59,516.75 L873.79,521.95 L877.66,523.56 L879.75,523.86 L886.03,526.83 L888.29,527.9 L903.52,542.29 L909.7,562.01 L915.11,565.8 L916.42,567.33 L918.82,574.57 L919.21,578.48 L917.68,580.37 L918.19,590.18 L918.88,603.2 L919.83,612.01 L920.61,612.89 L930.88,617.93 L934.67,618.61 L942.39,621.06 L966.03,628.56 L971.3,630.74 L972.66,630.14 L974.49,630.63 L975.0,633.21 L974.73,634.94 L973.43,637.8 L970.56,641.58 L966.57,643.62 L963.61,645.62 L960.91,646.68 L957.34,646.44 L957.11,644.1 L953.48,643.99 L948.71,647.17 L948.05,650.7 L949.49,652.25 L952.29,653.06 L954.9,652.81 L956.27,653.57 L953.72,656.16 L948.9,659.8 L944.67,663.85 L943.14,664.03 L940.32,661.89 L934.92,660.15 L930.2,659.97 L931.52,663.81 L931.43,665.35 L930.69,666.42 L928.02,668.14 L928.09,669.55 L931.81,670.82 L933.05,670.88 L933.65,670.38 L935.27,670.76 L935.84,671.44 L935.86,672.8 L933.77,674.77 L929.63,681.57 L927.84,683.07 L923.79,684.69 L917.16,690.76 L915.6,691.11 L912.37,690.06 L911.17,689.67 L904.77,688.65 L903.65,690.08 L902.62,691.4 L906.06,694.98 L911.09,696.99 L912.38,696.5 L912.92,695.6 L913.43,695.42 L915.41,695.3 L917.06,696.12 L916.17,698.57 L916.01,700.3 L916.94,704.35 L916.59,710.56 L913.31,716.52 L911.23,721.11 L908.7,724.01 L907.55,724.09 L906.67,723.18 L906.1,721.59 L904.45,721.58 L902.47,721.56 L900.43,723.67 L895.22,724.73 L892.52,724.0 L891.35,725.53 L890.59,728.66 L890.68,728.99 L891.6,729.36 L899.75,729.72 L900.63,729.54 L903.43,727.66 L904.72,728.01 L907.0,729.63 L907.66,730.69 L907.87,731.75 L905.4,734.44 L902.36,740.52 L893.98,750.55 L891.64,754.21 L887.62,761.63 L887.51,764.84 L886.8,769.75 L888.47,769.8 L889.77,770.21 L892.4,771.95 L891.18,774.25 L889.39,776.13 L888.44,777.14 L888.01,784.06 L886.81,786.13 L885.56,789.89 L885.7,792.77 L884.72,793.71 L882.4,793.74 L880.56,793.39 L875.61,797.58 L872.45,801.51 L871.27,803.77 L871.56,805.11 L869.79,807.63 L866.08,808.29 L863.52,808.11 L863.04,809.85 L862.71,813.49 L863.21,817.67 L863.2,820.34 L860.44,829.52 L859.37,831.52 L858.52,832.12 L856.98,832.26 L856.53,831.93 L856.49,831.3 L854.85,831.53 L853.2,831.76 L851.93,832.8 L851.64,833.72 L849.64,835.64 L845.39,837.85 L844.78,839.33 L846.11,840.91 L848.34,841.63 L849.03,840.85 L850.13,840.65 L852.77,841.71 L854.0,843.48 L858.08,843.5 L859.44,840.02 L860.3,839.4 L861.76,839.29 L862.77,843.24 L862.43,853.15 L857.76,867.48 L857.3,868.52 L855.45,870.47 L854.1,872.66 L852.43,876.54 L851.48,880.73 L851.28,883.96 L851.6,886.3 L853.61,891.56 L854.66,892.73 L834.62,892.15 L822.34,891.05 L818.73,887.45 L816.15,887.92 L799.66,885.77 L797.13,884.71 L795.41,882.17 L791.81,880.43 L782.37,876.78 L778.31,876.93 L775.65,877.44 L770.02,876.17 L762.56,870.31 L743.85,877.05 L739.19,878.32 L733.77,899.4 L733.97,903.58 L736.32,907.97 L741.17,915.47 L742.73,921.88 L740.43,930.68 L740.61,935.07 L733.85,961.96 L733.84,961.99 L718.93,961.15 L710.88,962.85 L709.62,962.48 L706.02,959.22 L703.12,954.22 L701.89,949.58 L702.74,943.41 L701.49,934.63 L701.08,921.19 L700.98,921.18 L694.01,920.41 L692.36,920.28 L686.53,919.9 L669.08,918.79 L660.3,918.24 L652.19,917.74 L652.14,917.74 L639.16,916.96 L636.9,916.82 L635.14,916.73 L633.53,916.61 L631.07,916.47 L630.32,916.41 L627.38,916.24 L606.39,915.06 L606.34,915.06 L604.53,914.96 L604.47,914.95 L568.91,912.81 L568.6,912.79 L517.2,909.75 L513.3,909.52 L511.87,909.44 L509.66,909.33 L507.07,909.18 L493.35,908.37 L482.77,907.74 L482.77,907.74 L482.73,907.74 L482.3,907.71 L476.47,907.36 L476.44,907.36 L473.11,907.16 L468.78,906.89 L466.66,906.76 L458.8,906.33 L458.78,906.33 L456.7,906.23 L454.93,906.15 L422.48,904.39 L422.47,904.38 L410.04,903.69 L409.5,903.66 L396.15,902.96 L382.82,902.27 L380.76,902.12 L373.92,901.76 L368.93,901.48 L368.91,901.48 L343.57,900.23 L343.56,900.23 L337.13,899.89 L336.71,899.87 L335.76,899.81 L333.64,899.71 L328.35,899.46 L288.98,897.61 L288.71,897.59 L269.14,896.73 L238.37,895.36 L237.51,895.31 L224.17,894.69 L224.14,894.69 L172.88,892.38 L172.64,892.36 L166.37,884.58 L157.24,857.18 L153.71,852.68 L148.95,847.71 L145.94,840.56 L145.19,834.71 L145.78,832.09 L141.25,819.8 L139.73,815.68 L138.56,813.28 L130.38,803.56 L129.0,803.02 L127.3,802.89 L125.68,801.85 L124.22,797.67 L123.36,783.33 L125.41,778.35 L128.19,773.3 L132.09,749.6 L136.32,731.68 L137.43,726.98 L134.2,711.5 L133.79,710.89 L132.65,710.36 L128.31,707.05 L120.63,696.28 L120.43,691.94 L121.29,690.74 L121.95,688.77 L120.84,682.7 L120.69,681.91 L119.6,680.87 L118.01,679.24 L117.48,678.7 L117.38,667.39 L119.16,657.74 L124.4,652.38 L129.29,646.5 L131.24,642.49 L133.25,637.09 L135.65,630.64 L134.49,622.89 L136.12,607.14 L146.47,598.61 L152.67,596.59 L160.89,589.3 L161.28,588.95 L163.8,582.92 L162.29,579.4 L157.89,575.51 L145.29,571.26 L144.25,569.99 L144.05,568.33 L148.18,559.46 L148.2,559.37 L149.76,553.27 L148.89,546.61 L146.01,541.78 L145.51,534.46 L145.46,533.75 L145.45,533.68 L145.4,533.18 L144.25,531.01 L141.17,527.21 L136.77,523.91 L131.79,519.04 L129.72,515.26 L129.65,515.12 L129.22,514.43 L124.77,507.35 L122.78,498.76 L118.32,486.89 L118.39,486.62 L119.33,483.09 L121.05,481.49 L108.95,461.89 L101.42,425.0 L101.15,423.6 L99.33,414.53 L98.51,410.24 L87.06,350.72 L84.96,339.8 L83.05,330.44 L83.04,330.36 L82.86,329.23 L81.36,321.6 L78.27,305.86 L73.78,282.96 L73.51,281.76 L68.56,256.29 L66.14,243.84 L61.57,220.58 L54.93,186.71 L54.87,186.28 L54.33,183.71 L54.2,182.97 L53.48,179.59 L45.51,142.19 L45.48,142.08 L44.3,136.76 L43.55,133.36 L43.24,132.19 L43.24,132.18 L43.19,131.97 L40.56,119.32 L39.1,112.32 L37.74,105.75 L37.74,105.74 L35.51,95.5 L35.5,95.46 L29.39,65.14 L26.99,52.42 L26.99,52.39 L25.0,40.36 L51.06,40.5 L73.1,40.62 L84.2,40.42 L84.76,40.4 L85.55,40.4 L86.94,40.36 L90.32,40.3 L90.66,40.3 L92.81,40.28 L94.83,40.26 L98.7,40.2 L99.73,40.2 L101.43,40.2 L101.69,40.18 L102.22,40.16 L102.48,40.16 L108.59,40.1 L109.66,40.08 L136.65,39.92 L136.68,39.92 L149.68,39.77 L150.25,39.76 L154.51,39.73 L156.74,39.72 L157.76,39.71 L173.31,39.74 L173.97,39.75 L179.2,39.7 L180.75,39.76 L181.46,39.71 L182.09,39.75 L183.4,39.77 L183.45,39.78 Z" fill="black" fill-rule="evenodd"/>
</svg>
