<?xml version="1.0" encoding="UTF-8"?>
<svg xmlns="http://www.w3.org/2000/svg" viewBox="0 0 1000 1000">
  <path d="M523.68,26.38 L524.45,26.42 L536.57,26.62 L543.46,26.77 L544.11,26.74 L547.31,26.76 L547.66,26.77 L557.87,26.89 L558.18,26.88 L565.01,26.95 L565.83,26.94 L566.41,26.95 L569.49,27.02 L574.27,27.07 L579.11,27.07 L584.11,27.09 L584.13,27.1 L587.68,27.11 L587.73,27.11 L596.21,27.26 L596.7,27.27 L596.7,27.27 L624.81,27.45 L636.67,27.52 L636.67,27.52 L671.06,27.3 L677.29,27.34 L678.87,27.35 L686.41,27.35 L705.75,27.32 L711.41,27.31 L720.81,27.12 L723.68,27.11 L723.79,27.11 L749.48,27.23 L759.7,27.36 L762.94,27.45 L775.13,27.62 L784.85,27.74 L789.6,27.81 L792.23,27.81 L792.24,27.81 L792.27,28.04 L792.5,29.98 L792.63,31.05 L792.65,31.28 L792.19,35.71 L791.75,40.04 L791.72,40.53 L791.68,41.21 L791.4,46.2 L791.27,46.43 L789.65,49.34 L789.48,49.65 L788.75,50.17 L788.74,50.18 L787.74,53.27 L787.07,55.35 L787.01,55.53 L786.97,55.84 L786.36,60.47 L786.58,61.61 L786.71,62.25 L786.74,62.43 L786.96,63.52 L787.42,65.89 L787.51,66.11 L787.57,66.23 L787.7,66.54 L787.98,67.2 L790.19,72.35 L790.19,72.37 L790.21,72.41 L790.22,72.43 L790.88,73.72 L791.66,75.24 L792.31,76.51 L792.57,76.86 L792.61,76.92 L792.75,77.11 L792.76,77.12 L792.85,77.24 L792.88,77.28 L794.33,79.26 L794.51,79.52 L796.56,82.32 L799.3,86.06 L799.8,86.75 L799.9,86.88 L800.08,87.13 L800.14,87.2 L800.15,87.22 L800.83,88.15 L801.16,88.6 L801.51,89.08 L802.33,90.2 L802.39,90.27 L802.48,90.38 L802.49,90.39 L802.66,90.6 L802.7,90.64 L803.66,91.8 L804.25,92.52 L804.44,92.74 L804.44,92.74 L804.62,92.96 L804.64,92.99 L804.8,93.18 L804.85,93.23 L805.16,93.6 L805.25,93.72 L805.26,93.72 L805.41,93.86 L805.65,94.08 L805.67,94.09 L805.79,94.21 L805.98,94.38 L805.99,94.39 L806.38,94.74 L806.47,94.83 L806.51,94.86 L806.53,94.88 L807.38,95.65 L807.6,95.84 L808.38,96.38 L808.69,96.59 L808.81,96.67 L809.07,96.85 L812.5,99.2 L812.53,99.25 L812.78,99.65 L812.94,99.89 L814.37,102.19 L814.54,103.11 L814.5,103.22 L814.43,103.48 L814.42,103.52 L814.3,103.97 L814.44,104.85 L814.8,107.2 L821.32,123.67 L821.34,123.73 L821.99,126.48 L822.38,128.11 L822.49,128.56 L822.51,128.62 L822.7,129.0 L823.23,129.11 L823.64,129.69 L824.2,130.48 L824.52,130.49 L824.63,130.68 L824.63,130.94 L824.46,131.19 L824.2,131.34 L824.31,132.01 L824.29,132.02 L823.93,132.27 L823.79,132.37 L823.84,134.68 L825.01,138.74 L826.54,141.9 L828.84,144.54 L828.85,144.56 L829.9,145.76 L829.9,145.78 L829.97,146.03 L830.69,148.9 L833.38,152.33 L836.44,154.71 L838.51,155.38 L839.64,159.54 L839.66,162.23 L839.51,163.21 L839.52,165.09 L839.56,174.82 L839.54,175.25 L839.56,176.95 L839.56,187.1 L839.38,203.06 L839.38,203.09 L839.39,205.92 L839.19,232.59 L839.19,232.61 L839.23,255.24 L839.23,255.63 L839.21,256.27 L839.2,256.39 L839.21,257.33 L839.21,258.14 L839.21,259.78 L839.2,262.9 L839.24,279.48 L839.27,281.92 L839.27,281.96 L839.27,281.96 L839.31,298.85 L839.25,301.88 L839.33,304.22 L839.31,304.37 L839.36,308.72 L839.3,328.86 L839.3,328.87 L839.28,363.43 L839.27,363.49 L839.26,370.95 L839.26,371.01 L839.24,373.43 L839.24,373.47 L839.23,373.68 L839.19,376.0 L838.63,412.28 L838.64,412.39 L838.5,422.38 L838.45,426.11 L838.39,429.87 L838.39,429.89 L838.34,430.53 L838.37,432.46 L838.24,453.29 L838.24,453.31 L838.25,455.27 L838.24,455.66 L838.2,457.43 L838.18,459.11 L838.16,459.57 L838.16,460.24 L838.09,475.33 L838.09,475.35 L838.1,487.71 L838.12,488.91 L838.12,490.23 L838.11,492.72 L838.18,512.77 L838.22,515.99 L838.23,515.98 L838.26,522.64 L838.3,530.07 L838.31,533.18 L838.3,536.43 L838.35,541.82 L838.36,542.47 L838.35,544.97 L838.35,544.98 L838.36,546.3 L838.36,546.84 L838.38,549.72 L838.41,551.73 L838.41,551.92 L838.36,567.14 L837.39,566.42 L836.24,566.28 L829.23,568.95 L828.5,569.55 L825.94,573.04 L824.91,578.41 L825.68,582.03 L825.93,582.31 L827.75,584.37 L828.77,584.06 L825.74,594.93 L821.7,599.82 L819.4,599.87 L817.76,600.99 L816.55,603.49 L824.08,609.21 L831.33,616.99 L841.7,634.64 L840.56,639.99 L839.0,642.57 L838.96,642.6 L836.79,644.6 L834.63,650.26 L835.12,650.91 L837.4,651.94 L838.29,652.12 L838.95,652.26 L839.34,652.76 L844.61,664.04 L844.04,668.17 L840.42,678.76 L838.43,681.02 L836.92,681.86 L830.17,683.01 L827.72,683.88 L826.6,684.72 L823.18,688.66 L821.94,694.2 L817.79,700.9 L814.61,704.83 L814.76,705.43 L817.0,708.87 L802.62,727.05 L800.9,729.23 L781.51,750.3 L771.06,754.03 L766.3,757.26 L765.68,758.91 L764.69,761.53 L765.04,763.42 L766.37,765.24 L768.19,767.27 L770.22,768.04 L772.48,768.63 L773.32,769.6 L773.28,770.54 L770.4,774.08 L767.93,775.76 L762.43,777.44 L755.76,780.6 L750.79,790.41 L750.89,791.96 L755.86,802.3 L755.71,816.55 L755.09,817.37 L754.39,817.57 L748.52,817.02 L745.76,816.24 L749.53,824.92 L753.25,827.82 L753.21,832.8 L751.32,836.88 L750.29,839.12 L749.27,840.8 L747.79,842.52 L745.57,844.12 L737.02,848.16 L732.0,854.1 L730.88,855.91 L730.54,857.1 L731.11,861.35 L734.0,869.3 L735.13,871.39 L735.13,871.4 L735.15,871.41 L735.16,871.41 L737.17,872.44 L745.62,879.19 L747.15,881.43 L747.5,883.22 L747.5,883.24 L747.28,885.95 L743.71,888.65 L714.24,891.55 L709.7,892.27 L704.39,894.33 L701.3,896.26 L696.53,900.45 L687.89,896.96 L686.84,897.26 L682.65,898.47 L679.79,899.83 L677.35,901.93 L676.26,903.54 L669.73,920.0 L669.51,921.18 L670.64,924.94 L677.09,932.14 L679.32,933.27 L681.2,934.99 L685.21,943.76 L681.75,952.99 L679.29,957.25 L675.18,958.39 L673.91,958.47 L669.78,958.72 L666.83,958.38 L664.46,957.9 L661.95,956.87 L661.24,956.45 L659.08,955.18 L656.94,952.81 L650.65,949.41 L619.2,937.44 L600.72,931.43 L598.82,931.09 L596.4,930.65 L597.9,931.31 L597.9,931.31 L592.16,930.47 L589.34,930.68 L586.31,931.41 L579.39,935.1 L571.63,941.5 L557.64,957.17 L556.99,958.21 L556.33,959.26 L555.36,961.96 L555.17,963.51 L555.77,966.31 L556.69,967.95 L557.92,969.33 L563.71,972.96 L557.31,975.0 L554.65,974.45 L550.96,972.92 L547.66,972.43 L544.36,972.8 L541.67,972.92 L539.96,972.43 L538.68,971.85 L536.36,971.24 L531.11,968.36 L521.58,963.11 L520.61,961.94 L520.35,960.45 L515.37,948.45 L506.25,932.47 L502.21,927.25 L497.78,921.54 L497.55,920.27 L498.67,916.59 L502.59,912.72 L503.34,912.47 L505.06,911.9 L509.7,911.5 L511.67,910.82 L512.22,910.37 L513.02,908.81 L514.24,903.4 L513.41,900.01 L511.03,894.91 L509.11,892.7 L504.9,889.04 L502.07,885.16 L497.78,877.74 L496.98,874.3 L497.01,872.78 L497.03,871.76 L497.05,870.59 L497.61,869.73 L498.65,869.63 L499.58,862.68 L498.05,854.74 L471.32,832.48 L470.8,832.13 L459.55,824.62 L441.56,814.56 L440.48,814.83 L438.44,816.05 L435.26,819.02 L431.77,820.69 L428.11,820.55 L425.67,819.86 L425.53,819.79 L423.41,818.69 L419.45,812.49 L419.23,810.93 L415.43,804.67 L402.53,795.45 L393.23,791.22 L379.96,783.14 L373.23,779.04 L371.34,777.44 L357.59,765.78 L354.22,761.68 L352.5,757.82 L350.79,750.01 L351.03,742.89 L351.32,741.14 L354.73,734.03 L355.56,732.86 L356.56,731.98 L364.27,725.16 L366.0,722.29 L367.03,717.32 L369.8,709.12 L370.28,707.73 L370.71,707.1 L372.23,704.92 L376.42,699.79 L380.19,697.38 L381.31,696.39 L383.28,693.46 L383.6,692.35 L384.39,689.65 L384.45,688.1 L383.86,685.22 L383.81,685.08 L382.95,682.61 L381.44,680.42 L380.24,679.41 L379.04,677.81 L378.56,676.27 L378.92,673.81 L385.54,666.87 L386.61,666.17 L393.81,661.46 L394.74,660.14 L395.25,658.55 L396.21,654.71 L396.16,653.66 L395.49,652.67 L379.42,644.15 L376.19,642.44 L372.0,640.66 L367.6,639.44 L348.76,634.22 L345.22,633.24 L337.6,632.35 L337.6,632.35 L334.69,633.37 L333.94,633.88 L332.18,636.35 L332.12,638.02 L331.39,639.52 L327.88,643.5 L321.61,648.26 L319.61,648.99 L317.74,649.32 L314.86,649.29 L307.7,645.92 L302.18,640.5 L301.13,639.16 L300.71,638.11 L292.87,618.79 L292.51,617.56 L292.7,617.03 L297.81,611.67 L298.1,609.57 L291.59,588.23 L290.22,583.73 L289.71,582.92 L277.81,573.11 L270.46,568.17 L263.51,564.68 L253.68,559.31 L244.45,554.27 L236.12,549.27 L216.18,531.95 L214.5,529.91 L212.85,524.21 L204.05,520.32 L189.67,509.33 L183.51,504.63 L180.3,501.76 L179.92,501.16 L179.93,499.02 L180.27,496.6 L180.71,493.49 L169.13,482.63 L166.82,477.51 L165.19,464.62 L164.43,458.65 L158.5,448.86 L155.85,433.32 L155.39,424.22 L155.85,420.77 L156.59,415.09 L157.37,412.59 L159.36,406.21 L164.11,396.54 L167.08,392.98 L171.44,390.39 L176.77,389.25 L178.93,388.06 L179.48,386.46 L180.96,371.2 L180.91,369.5 L180.08,367.36 L177.43,364.2 L174.06,362.8 L173.6,361.35 L173.87,360.13 L181.66,352.04 L183.57,350.69 L185.11,350.04 L190.81,347.85 L199.98,345.84 L205.92,345.76 L209.44,346.16 L211.31,345.96 L211.58,345.83 L219.71,341.91 L222.39,340.23 L224.13,335.85 L224.19,335.71 L227.14,318.42 L226.74,317.62 L226.65,316.6 L227.44,314.43 L241.75,300.79 L243.65,299.5 L248.71,297.61 L249.75,296.61 L251.58,291.62 L253.3,277.78 L252.73,273.15 L252.22,271.69 L252.07,271.26 L252.07,271.26 L252.54,267.16 L245.16,257.03 L243.75,255.85 L242.45,255.33 L240.12,255.45 L234.84,253.2 L223.89,242.33 L223.8,240.85 L229.72,226.49 L229.89,226.08 L235.19,213.25 L236.55,211.94 L238.62,211.07 L245.11,209.64 L269.56,205.68 L280.05,206.05 L282.56,206.41 L288.41,206.52 L302.43,204.46 L310.99,198.96 L329.25,194.87 L333.56,194.58 L335.78,193.93 L346.67,185.58 L356.32,177.13 L356.06,172.55 L357.55,167.16 L360.55,158.67 L360.86,157.78 L361.78,156.23 L362.99,155.08 L367.13,152.1 L373.29,149.29 L376.8,147.68 L379.17,146.99 L382.69,145.96 L383.72,145.29 L388.84,124.38 L388.93,124.03 L390.81,112.88 L390.71,110.66 L389.04,107.14 L388.48,106.52 L386.71,104.47 L386.37,102.84 L386.05,99.2 L386.9,97.17 L387.29,94.29 L387.1,92.49 L386.19,91.19 L378.68,85.78 L374.63,83.82 L362.35,79.53 L360.68,78.98 L355.04,77.15 L353.7,76.95 L350.58,75.35 L347.84,73.52 L343.0,68.54 L341.02,64.47 L341.04,63.44 L342.14,61.88 L343.54,57.08 L343.48,56.43 L343.05,55.84 L333.48,46.76 L333.06,46.36 L318.96,38.31 L307.83,33.47 L303.99,31.24 L302.74,30.11 L302.34,29.24 L302.31,28.28 L302.41,27.85 L304.99,25.0 L308.96,25.04 L309.5,25.04 L317.93,25.12 L319.58,25.14 L320.38,25.1 L321.48,25.1 L321.55,25.1 L323.63,25.13 L330.58,25.12 L332.69,25.15 L333.46,25.14 L339.97,25.2 L341.79,25.21 L345.3,25.24 L351.35,25.2 L351.83,25.2 L352.72,25.22 L362.81,25.14 L368.12,25.13 L368.73,25.1 L369.1,25.11 L371.51,25.17 L371.94,25.13 L376.64,25.09 L379.58,25.1 L383.78,25.04 L386.74,25.01 L390.41,25.03 L398.63,25.07 L398.97,25.02 L411.73,25.17 L412.01,25.2 L415.05,25.24 L415.41,25.27 L417.39,25.32 L417.49,25.32 L427.54,25.43 L427.56,25.43 L427.59,25.43 L442.79,25.47 L448.91,25.49 L449.29,25.49 L450.28,25.49 L452.62,25.51 L454.45,25.51 L459.12,25.5 L467.51,25.55 L468.09,25.53 L471.95,25.57 L474.92,25.63 L475.97,25.65 L481.25,25.75 L482.94,25.81 L483.55,25.79 L484.44,25.83 L489.65,25.97 L496.84,26.1 L501.87,26.16 L501.97,26.16 L503.4,26.18 L513.54,26.3 L513.75,26.28 L513.99,26.31 L514.26,26.32 L517.61,26.35 L517.61,26.35 L523.68,26.38 Z" fill="black" fill-rule="evenodd"/>
</svg>
