<?xml version="1.0" encoding="UTF-8"?>
<svg xmlns="http://www.w3.org/2000/svg" viewBox="0 0 1000 1000">
  <path d="M29.05,665.44 L26.4,662.04 L25.18,659.67 L25.0,658.65 L25.59,657.19 L27.36,655.57 L28.17,655.22 L30.49,655.08 L33.93,655.68 L35.83,656.24 L36.55,656.69 L37.27,657.73 L37.96,659.36 L38.25,660.7 L38.2,661.48 L37.38,663.5 L35.8,665.51 L34.87,665.49 L34.18,665.48 L29.05,665.44 Z M895.54,446.9 L890.48,457.12 L891.51,460.57 L893.43,462.4 L895.74,463.01 L896.05,463.13 L902.66,470.16 L903.67,472.91 L906.11,476.73 L907.34,477.64 L910.1,478.0 L912.88,479.7 L913.05,479.99 L912.94,480.69 L908.9,484.6 L908.9,484.63 L908.52,485.73 L911.73,488.99 L918.85,493.96 L921.03,496.31 L929.82,505.8 L931.18,507.92 L930.26,510.18 L930.34,510.81 L932.65,514.32 L933.93,516.87 L939.77,520.56 L943.59,522.4 L953.32,528.39 L955.35,530.4 L955.31,531.02 L956.47,532.82 L964.98,536.39 L970.0,536.1 L971.06,534.95 L971.27,534.89 L975.0,535.55 L934.57,563.8 L932.82,565.12 L932.21,565.59 L927.19,569.37 L907.21,575.49 L901.87,577.65 L900.4,578.24 L900.4,578.24 L892.96,582.39 L880.83,589.54 L881.0,592.52 L880.77,597.11 L874.61,600.78 L873.91,600.83 L872.47,601.72 L872.44,601.74 L872.27,601.84 L872.22,601.9 L871.01,601.75 L869.11,601.84 L868.83,601.97 L867.26,602.63 L867.44,603.05 L867.23,603.56 L866.85,603.75 L866.58,604.14 L866.26,604.36 L866.08,604.35 L864.66,604.68 L864.51,604.62 L863.22,605.25 L862.97,605.37 L862.83,605.46 L862.75,605.49 L862.64,605.55 L862.53,605.68 L862.44,605.97 L862.44,605.97 L862.3,606.99 L862.31,607.05 L862.66,607.34 L862.91,607.98 L863.06,607.99 L863.23,608.02 L863.52,608.24 L863.78,608.49 L864.12,608.51 L864.07,608.68 L863.51,609.51 L863.42,609.63 L863.37,610.33 L863.52,610.56 L863.74,611.11 L863.78,611.15 L863.34,612.21 L863.15,612.45 L862.07,613.56 L861.86,613.7 L860.38,615.19 L857.13,618.46 L857.11,618.46 L849.42,620.35 L837.02,620.91 L833.62,624.62 L829.64,630.05 L829.69,631.84 L830.39,632.55 L830.38,632.57 L830.12,633.88 L829.05,634.84 L825.18,635.33 L821.14,635.54 L803.26,640.07 L801.91,640.64 L801.78,640.71 L788.51,644.61 L788.49,644.61 L783.87,643.92 L780.22,644.48 L764.94,650.64 L761.7,652.62 L761.49,653.15 L759.79,654.9 L729.81,654.19 L722.69,654.02 L722.66,654.02 L692.74,653.76 L688.49,653.72 L623.88,652.32 L623.02,652.3 L623.01,652.3 L613.72,651.92 L613.72,651.91 L599.33,650.93 L585.4,649.98 L584.19,649.91 L561.68,649.41 L561.68,649.41 L559.21,649.54 L541.67,650.45 L537.3,650.68 L532.65,650.85 L527.29,650.76 L527.22,650.75 L497.66,649.99 L497.66,649.99 L474.2,649.17 L467.16,648.93 L467.11,648.92 L466.46,648.87 L461.17,648.48 L461.01,648.49 L446.56,647.8 L445.65,647.76 L445.58,647.75 L444.24,647.66 L444.21,647.65 L443.88,647.62 L443.49,647.61 L429.64,646.63 L419.85,646.41 L412.71,646.24 L412.25,646.25 L412.1,646.27 L412.09,646.27 L400.76,648.54 L400.75,648.53 L395.65,646.21 L395.48,646.21 L376.43,646.6 L375.88,646.61 L369.66,646.77 L369.27,646.76 L368.99,646.77 L367.15,646.82 L364.51,646.86 L358.04,646.94 L357.98,646.94 L338.7,647.3 L331.94,647.42 L331.94,647.42 L317.5,647.49 L317.44,647.49 L315.36,647.49 L311.52,647.51 L311.13,647.5 L304.32,647.53 L303.3,647.54 L302.85,647.54 L294.54,647.59 L293.2,647.59 L291.76,647.63 L275.95,647.84 L275.72,647.84 L266.19,647.97 L266.19,647.97 L259.57,648.12 L239.7,648.57 L240.15,644.76 L219.88,643.1 L212.54,642.96 L212.83,645.26 L214.41,648.26 L215.72,652.35 L216.9,657.5 L217.3,660.14 L216.63,663.49 L216.42,663.92 L214.71,665.58 L214.7,665.58 L181.27,665.16 L180.64,665.16 L180.02,665.15 L169.33,665.12 L165.11,665.08 L164.81,665.11 L162.31,665.09 L160.25,665.08 L160.23,665.08 L157.39,665.03 L157.35,665.03 L156.84,665.04 L156.83,665.04 L153.24,664.99 L149.23,664.97 L138.75,664.94 L131.99,664.88 L127.95,664.86 L121.45,664.87 L119.3,664.87 L118.02,664.86 L117.99,664.86 L117.07,664.85 L117.04,664.85 L112.06,664.91 L100.85,664.94 L96.4,664.89 L95.56,664.88 L95.1,664.88 L92.08,664.85 L89.05,664.82 L87.4,664.81 L85.14,664.79 L81.72,664.77 L81.44,664.76 L76.01,664.65 L75.99,664.65 L69.99,664.51 L61.54,664.4 L61.14,664.37 L53.17,664.82 L53.17,664.82 L51.85,664.94 L48.92,665.16 L48.7,665.21 L45.94,665.32 L44.27,665.34 L46.36,660.43 L47.91,656.04 L49.38,650.99 L50.73,649.59 L53.46,648.85 L55.48,648.71 L55.58,648.7 L57.25,650.21 L59.59,653.51 L62.46,656.3 L63.92,657.08 L66.85,656.87 L68.01,656.55 L69.72,655.21 L71.09,652.53 L71.31,650.45 L71.71,649.11 L72.95,647.58 L74.58,646.42 L74.58,646.42 L74.93,643.66 L71.48,638.22 L71.29,637.01 L71.69,635.3 L73.35,633.53 L75.28,632.8 L78.63,633.31 L80.12,633.77 L80.97,629.58 L80.97,629.57 L74.01,626.12 L74.1,625.66 L74.27,623.26 L77.96,621.84 L83.82,609.74 L83.81,609.74 L79.83,604.97 L75.61,602.33 L74.72,601.32 L74.05,600.13 L73.6,598.09 L73.75,596.96 L74.45,594.99 L74.93,594.22 L75.41,593.47 L85.6,582.05 L91.25,577.39 L96.29,574.7 L98.5,574.17 L100.55,574.02 L104.73,574.63 L104.73,574.63 L103.64,574.15 L105.4,574.47 L106.79,574.72 L120.25,579.1 L143.15,587.82 L147.74,590.29 L149.3,592.02 L150.87,592.94 L151.38,593.25 L153.21,594.0 L154.94,594.35 L157.09,594.59 L160.09,594.41 L161.02,594.36 L164.01,593.52 L165.8,590.42 L168.33,583.7 L165.41,577.31 L164.03,576.06 L162.41,575.24 L157.72,569.99 L156.89,567.25 L157.05,566.39 L161.81,554.4 L162.6,553.23 L164.38,551.7 L166.46,550.71 L169.52,549.83 L170.28,549.61 L176.57,552.16 L180.05,549.1 L182.3,547.69 L186.16,546.19 L189.47,545.67 L210.94,543.56 L213.54,541.6 L213.7,539.62 L213.7,539.6 L213.45,538.3 L212.33,536.67 L206.17,531.75 L204.71,531.0 L204.7,531.0 L204.69,530.99 L204.69,530.99 L203.87,529.47 L201.76,523.68 L201.34,520.58 L201.59,519.71 L202.41,518.39 L206.06,514.07 L212.29,511.12 L213.91,509.96 L214.99,508.71 L215.73,507.48 L216.48,505.85 L217.85,502.88 L219.19,502.55 L220.77,502.77 L224.31,504.28 L225.0,504.85 L228.38,505.68 L233.0,501.83 L233.38,500.57 L232.88,498.09 L232.57,497.36 L231.99,496.59 L230.44,495.45 L229.32,494.3 L228.85,493.41 L228.75,492.37 L228.84,491.83 L229.25,491.22 L230.42,490.04 L233.25,487.18 L234.09,486.85 L235.93,487.01 L237.28,487.67 L238.15,488.41 L239.19,490.21 L241.2,492.5 L242.52,493.23 L247.48,493.33 L248.39,493.07 L251.06,491.43 L258.79,490.18 L260.84,489.85 L261.87,490.05 L263.03,490.82 L263.48,492.09 L261.13,495.8 L261.1,496.99 L261.44,498.25 L262.48,499.23 L265.6,499.55 L269.41,498.79 L270.51,497.95 L272.4,495.71 L272.74,495.17 L272.78,494.19 L272.39,491.89 L271.69,491.24 L268.8,489.43 L268.05,488.27 L267.72,486.95 L271.16,481.23 L272.22,480.81 L273.09,480.86 L273.69,481.11 L274.49,481.83 L274.66,482.46 L274.55,483.44 L274.83,484.36 L276.41,486.4 L277.54,487.18 L282.39,489.49 L289.93,485.16 L290.02,485.11 L291.72,484.77 L294.0,484.7 L296.0,485.01 L298.79,485.84 L308.53,490.49 L312.62,493.15 L313.45,493.68 L321.03,497.31 L329.73,503.91 L330.22,504.57 L331.41,504.93 L332.42,504.97 L334.98,504.31 L336.63,503.26 L337.83,502.03 L339.08,499.35 L340.82,493.94 L340.88,492.8 L340.53,491.56 L341.02,490.5 L342.12,489.47 L345.01,487.83 L348.93,486.52 L348.95,486.52 L356.38,485.71 L358.5,484.52 L360.68,482.25 L364.3,479.38 L368.36,477.93 L369.38,477.94 L369.45,477.97 L371.92,479.17 L372.83,481.36 L375.02,485.26 L377.42,488.68 L378.68,489.97 L379.86,491.0 L380.85,491.19 L381.48,491.15 L382.64,490.59 L388.75,494.66 L389.37,497.47 L389.37,497.47 L390.28,497.61 L392.0,497.31 L395.7,495.5 L405.63,481.77 L405.66,474.31 L406.05,473.01 L406.62,472.47 L407.31,472.24 L409.92,472.07 L409.92,472.07 L412.92,471.97 L414.75,471.49 L416.49,470.25 L417.17,469.4 L417.51,467.97 L417.96,467.58 L421.44,464.52 L429.7,461.54 L430.42,460.98 L430.84,460.42 L431.98,459.98 L432.55,459.75 L435.77,459.91 L437.36,461.54 L436.51,465.0 L436.42,466.64 L437.07,469.37 L437.9,470.66 L443.72,474.31 L448.89,476.38 L449.74,476.56 L467.56,478.72 L471.42,478.07 L477.31,477.1 L477.75,476.91 L478.57,476.57 L479.97,475.51 L480.95,474.21 L482.29,469.44 L482.97,467.03 L483.17,465.27 L483.1,463.92 L482.56,460.29 L482.65,457.66 L483.8,455.26 L484.04,454.77 L492.57,443.21 L493.27,442.74 L494.22,442.44 L497.29,441.74 L497.29,441.74 L498.62,441.75 L499.57,442.04 L500.49,442.75 L500.42,443.1 L501.1,443.74 L502.37,444.33 L503.13,444.41 L510.79,440.88 L511.86,440.15 L514.53,436.92 L516.38,432.63 L516.48,430.28 L516.48,430.27 L517.11,428.36 L518.66,424.93 L520.28,422.91 L538.41,413.75 L542.08,412.33 L542.1,412.31 L543.33,411.38 L544.05,410.23 L544.27,409.53 L544.24,407.38 L542.79,404.49 L541.3,401.53 L539.1,391.69 L539.71,389.17 L541.96,386.65 L543.47,385.98 L544.85,385.7 L554.55,385.28 L560.06,385.03 L561.78,385.19 L563.86,385.62 L565.4,386.36 L567.95,389.65 L569.55,390.9 L571.02,391.39 L572.54,391.89 L574.64,391.82 L576.69,391.3 L578.87,390.44 L582.84,387.74 L583.58,386.98 L593.17,382.42 L596.7,380.74 L598.12,380.45 L599.52,380.48 L603.16,380.94 L615.64,379.45 L619.52,378.05 L622.3,370.86 L622.96,369.15 L623.05,367.84 L622.5,367.26 L619.54,361.52 L615.01,352.73 L611.36,349.06 L610.06,347.75 L609.05,346.3 L609.02,345.68 L610.08,344.56 L617.29,340.11 L618.67,339.67 L622.73,338.44 L625.34,335.54 L626.88,334.52 L628.17,334.42 L629.68,334.8 L631.36,335.72 L634.96,339.83 L635.57,340.3 L642.12,343.26 L643.21,343.55 L643.66,343.67 L645.75,343.64 L657.41,341.15 L657.45,341.15 L657.91,340.97 L658.41,340.77 L659.45,340.05 L667.06,341.07 L680.34,349.42 L681.17,350.09 L681.95,350.73 L683.07,352.04 L691.85,366.19 L692.14,367.78 L692.1,368.51 L691.94,371.14 L692.24,374.02 L692.41,374.38 L692.99,375.63 L694.54,377.13 L695.46,377.51 L712.21,381.53 L714.56,381.52 L715.59,381.52 L723.79,379.45 L725.88,379.41 L728.14,379.89 L733.14,381.82 L733.15,381.82 L737.33,382.64 L738.76,383.24 L739.47,383.76 L748.9,393.53 L749.42,395.17 L749.96,395.93 L750.83,396.32 L757.87,398.19 L761.19,399.07 L763.14,399.34 L764.2,399.11 L764.91,398.74 L765.29,398.14 L765.75,397.42 L766.6,394.01 L767.76,392.91 L769.16,392.31 L774.28,391.25 L779.45,390.07 L781.0,389.95 L782.05,390.12 L799.98,395.41 L804.44,397.63 L805.59,398.66 L806.04,399.99 L810.84,402.45 L812.88,402.17 L826.48,400.26 L828.24,399.69 L829.22,398.86 L830.14,397.52 L842.23,387.14 L842.26,387.12 L844.62,386.58 L848.67,387.09 L850.0,386.74 L853.2,384.93 L855.63,384.08 L859.31,383.26 L859.94,383.33 L861.15,383.9 L861.65,384.43 L861.78,384.67 L862.17,385.41 L862.34,386.53 L862.29,387.57 L861.9,389.07 L862.39,393.06 L864.39,401.46 L865.19,403.43 L866.14,404.56 L868.56,406.24 L869.08,406.48 L871.07,407.43 L872.36,407.83 L879.71,407.92 L880.47,408.13 L884.0,410.06 L884.76,410.75 L887.88,414.6 L887.89,414.61 L896.86,425.09 L896.54,425.61 L896.43,426.21 L896.65,429.98 L896.65,429.98 L896.94,430.93 L899.58,438.34 L899.24,444.83 L898.79,445.96 L898.07,447.01 L896.7,447.13 L895.54,446.9 Z" fill="black" fill-rule="evenodd"/>
</svg>
