<?xml version="1.0" encoding="UTF-8"?>
<svg xmlns="http://www.w3.org/2000/svg" viewBox="0 0 1000 1000">
  <path d="M966.27,721.68 L961.78,727.95 L952.58,739.03 L951.84,738.75 L951.5,738.06 L952.35,735.83 L956.24,732.29 L957.78,731.38 L961.72,725.95 L964.71,720.71 L965.74,718.12 L965.74,714.66 L966.96,712.02 L969.64,709.97 L970.28,708.36 L971.5,703.04 L971.4,702.36 L970.23,701.48 L972.42,698.75 L972.96,691.14 L971.3,686.74 L971.06,683.57 L971.64,682.6 L971.64,681.43 L970.86,679.67 L970.66,677.52 L969.3,674.3 L967.67,671.67 L965.42,668.76 L963.29,667.05 L965.28,667.78 L967.99,670.47 L970.6,674.4 L971.96,676.94 L973.7,682.09 L975.0,688.68 L974.79,696.88 L973.27,704.52 L972.15,708.71 L970.08,713.86 L966.27,721.68 Z M25.0,187.19 L25.0,187.19 L25.04,173.56 L25.02,171.95 L25.04,171.28 L25.06,170.42 L25.07,170.11 L25.02,168.2 L25.07,154.75 L25.02,153.12 L25.05,153.03 L25.05,153.0 L25.05,150.88 L25.05,149.76 L25.01,147.74 L25.01,142.68 L25.01,139.46 L25.03,127.89 L25.31,127.9 L26.33,127.91 L27.76,127.91 L28.39,127.9 L66.55,127.87 L68.3,127.87 L118.01,128.0 L119.2,128.0 L119.92,128.0 L119.92,128.0 L125.39,128.03 L125.46,128.03 L125.64,128.03 L129.72,128.0 L146.07,128.07 L152.75,128.05 L158.56,128.08 L158.6,128.09 L171.25,128.12 L178.74,128.12 L186.56,128.14 L196.18,128.16 L196.27,128.15 L199.82,128.13 L201.32,128.13 L201.77,128.15 L216.67,128.24 L219.87,128.26 L224.34,128.33 L238.71,128.47 L241.13,128.45 L242.93,128.47 L242.97,128.47 L245.38,128.54 L263.12,128.78 L264.61,128.78 L264.66,128.78 L264.87,128.78 L266.27,128.77 L267.1,128.79 L304.83,129.18 L305.26,129.18 L311.01,129.2 L329.09,129.44 L330.44,129.46 L335.34,129.51 L343.2,129.55 L355.9,129.74 L383.84,129.9 L405.13,130.04 L405.49,130.02 L464.26,130.18 L465.91,130.17 L467.48,130.2 L472.78,130.2 L472.81,130.21 L474.14,130.13 L476.48,130.14 L494.49,130.25 L498.96,130.28 L500.84,130.29 L509.83,130.33 L517.65,130.38 L518.24,130.4 L518.85,130.41 L519.09,130.41 L519.56,130.42 L521.46,130.43 L526.48,130.48 L530.01,130.46 L547.99,130.64 L541.49,138.44 L539.27,144.05 L539.49,145.55 L540.32,146.77 L542.41,148.33 L546.29,149.57 L549.1,149.59 L551.81,148.57 L553.81,146.35 L554.16,145.36 L554.38,137.96 L552.99,136.59 L553.75,134.93 L555.44,134.17 L558.81,133.4 L561.04,134.23 L562.4,135.7 L566.55,145.18 L566.58,148.89 L565.35,151.63 L562.42,154.4 L558.98,157.13 L557.08,157.63 L554.93,157.73 L551.82,159.95 L549.4,163.69 L548.79,165.48 L548.3,170.32 L548.13,176.6 L548.48,177.38 L550.1,178.22 L555.79,178.14 L564.15,180.01 L567.13,180.92 L568.28,181.87 L567.81,183.63 L566.56,185.39 L564.35,187.06 L560.23,188.59 L556.68,190.63 L550.53,196.55 L550.22,198.41 L550.67,201.21 L551.6,203.35 L552.52,204.61 L554.93,206.55 L556.39,206.86 L559.25,206.89 L560.59,208.34 L561.68,210.65 L561.71,210.88 L561.92,212.59 L561.14,213.35 L560.39,214.14 L556.96,222.25 L557.09,225.34 L558.4,227.36 L560.85,229.78 L565.42,232.25 L568.56,233.47 L572.8,234.36 L579.26,239.75 L577.36,246.25 L577.54,247.34 L578.16,248.14 L580.6,249.22 L594.11,251.46 L596.08,251.75 L596.61,253.34 L595.42,255.82 L577.35,274.01 L577.03,272.42 L574.27,270.24 L571.09,269.11 L569.73,269.33 L555.89,273.73 L553.9,274.37 L549.45,276.45 L548.34,277.38 L547.09,281.08 L546.45,284.99 L546.97,286.94 L548.1,288.76 L548.58,289.05 L554.29,290.22 L566.0,289.15 L567.73,288.53 L568.67,288.2 L569.71,287.94 L570.81,288.2 L571.92,288.66 L572.7,289.57 L573.28,290.67 L573.25,291.27 L573.17,292.55 L573.1,292.68 L571.87,294.8 L554.91,315.74 L533.07,336.83 L524.84,338.59 L518.75,339.53 L516.66,340.2 L515.34,341.73 L512.83,349.64 L512.06,353.09 L511.72,356.65 L511.82,358.11 L511.04,359.17 L509.12,361.7 L505.85,366.0 L505.45,369.85 L505.82,375.71 L504.62,378.99 L501.45,380.19 L497.96,380.19 L495.88,380.19 L493.7,380.63 L491.84,381.94 L491.3,383.9 L491.3,385.0 L491.3,386.2 L491.41,387.29 L492.61,388.49 L494.8,388.93 L496.63,388.96 L498.61,389.36 L500.91,389.91 L502.65,391.88 L502.44,392.86 L501.34,394.17 L498.63,395.66 L496.38,396.85 L490.98,398.54 L485.25,398.13 L484.42,398.44 L483.12,400.45 L484.54,413.29 L485.41,415.16 L486.33,416.24 L487.22,418.78 L486.36,422.06 L484.78,424.62 L482.68,426.07 L479.79,430.1 L480.04,433.62 L481.62,435.57 L483.69,438.37 L485.68,441.93 L484.45,444.37 L483.22,445.24 L478.64,446.87 L473.75,447.45 L469.39,457.59 L469.12,459.99 L468.35,466.85 L473.23,480.73 L475.63,482.8 L476.15,483.87 L476.4,485.11 L475.94,487.09 L474.26,489.53 L471.9,491.28 L462.4,495.05 L464.55,495.1 L480.25,495.06 L500.79,495.13 L501.17,495.13 L537.31,495.09 L537.45,495.09 L546.15,495.1 L546.16,495.1 L558.49,495.15 L558.53,495.15 L563.49,495.14 L565.77,495.14 L567.23,495.14 L609.8,495.06 L609.84,495.06 L617.49,495.05 L618.2,495.04 L618.9,495.04 L620.11,495.06 L622.03,495.02 L626.43,495.09 L626.45,495.09 L641.59,495.03 L642.03,495.04 L652.95,495.01 L653.19,495.02 L653.72,495.0 L653.89,495.0 L656.85,494.99 L660.41,495.0 L671.48,495.0 L671.64,494.99 L673.2,495.0 L673.45,494.99 L673.78,494.98 L679.53,495.0 L679.66,494.99 L680.46,494.99 L682.37,494.99 L683.23,494.98 L692.81,494.88 L696.84,494.88 L696.84,494.88 L697.06,494.88 L712.78,494.83 L730.02,494.77 L730.1,494.76 L736.07,494.78 L736.62,494.75 L750.74,494.72 L754.58,494.73 L755.93,494.71 L758.99,494.7 L764.42,494.64 L764.9,494.69 L773.2,494.68 L773.93,494.68 L778.59,494.6 L779.46,494.63 L785.98,494.57 L789.79,494.57 L789.85,494.57 L791.84,494.57 L793.33,494.57 L804.92,494.61 L808.58,494.07 L809.38,494.5 L809.38,494.53 L809.33,500.19 L806.35,509.68 L804.21,513.04 L801.6,513.23 L801.15,513.54 L798.16,521.93 L791.56,542.83 L788.57,555.65 L788.57,555.66 L792.06,566.11 L795.07,572.74 L803.48,582.97 L808.57,587.2 L810.02,587.31 L816.2,593.33 L817.51,594.6 L827.23,615.02 L827.24,618.37 L825.27,621.95 L824.75,623.44 L824.77,624.43 L831.28,637.26 L836.17,642.88 L837.64,643.84 L846.39,643.87 L845.17,644.53 L844.03,645.5 L840.85,645.68 L839.43,646.06 L838.44,646.92 L837.74,647.57 L835.02,649.34 L833.58,649.48 L833.03,649.02 L829.48,648.29 L828.51,649.03 L828.12,649.33 L825.22,651.53 L824.57,652.35 L823.5,653.71 L822.31,655.2 L822.02,655.39 L820.28,656.49 L820.19,656.54 L820.1,656.6 L820.09,656.61 L819.42,656.64 L819.2,656.65 L819.1,656.65 L819.04,656.69 L818.9,656.78 L818.83,656.82 L818.46,657.04 L818.46,657.04 L818.44,657.14 L818.41,657.26 L818.4,657.29 L818.19,658.17 L818.16,658.3 L818.16,658.31 L818.12,658.46 L818.06,658.7 L818.04,658.8 L817.9,659.39 L817.78,659.88 L817.75,659.99 L817.73,660.08 L817.73,660.09 L817.71,660.26 L817.71,660.27 L817.7,660.36 L817.7,660.44 L817.69,660.47 L817.69,660.5 L817.64,661.02 L817.57,661.69 L817.55,661.9 L817.45,662.91 L814.94,663.85 L814.77,663.91 L814.77,663.91 L814.69,663.92 L814.65,663.92 L814.56,663.93 L812.34,664.15 L812.14,664.17 L812.13,664.17 L811.93,664.26 L811.8,664.32 L811.68,664.37 L811.6,664.4 L811.54,664.43 L811.51,664.45 L811.45,664.47 L811.42,664.48 L810.49,664.89 L810.05,665.09 L809.71,665.24 L809.5,665.33 L809.4,665.48 L809.12,665.88 L809.1,665.91 L809.08,665.94 L809.06,665.97 L808.86,666.25 L808.86,666.26 L808.82,666.81 L808.78,667.38 L808.78,667.45 L808.76,667.69 L808.76,667.69 L808.76,667.69 L811.53,671.61 L811.53,671.61 L811.53,671.62 L811.52,671.74 L811.52,671.77 L811.52,671.87 L811.52,671.96 L810.01,672.64 L810.01,672.64 L809.81,672.65 L808.43,672.71 L808.25,672.56 L807.4,671.89 L807.3,671.81 L807.06,671.62 L806.16,670.9 L806.07,670.83 L806.04,670.8 L806.04,670.8 L804.11,669.7 L803.0,669.07 L799.49,668.48 L799.11,668.5 L793.83,668.8 L792.94,668.85 L790.9,670.68 L790.78,670.79 L790.46,671.08 L790.32,671.2 L790.17,671.33 L790.02,671.47 L789.92,671.56 L789.06,672.33 L789.06,672.33 L788.87,672.54 L788.73,672.7 L786.4,675.3 L785.85,675.92 L786.81,680.79 L788.28,684.79 L789.32,686.57 L791.04,687.77 L793.04,688.69 L795.5,688.98 L800.78,688.1 L805.68,686.57 L809.41,684.22 L811.03,685.14 L812.15,686.48 L807.89,688.31 L806.73,688.38 L806.08,689.77 L806.77,693.42 L812.46,698.67 L815.95,700.59 L819.66,700.8 L821.66,701.64 L825.76,701.43 L830.28,699.96 L833.01,698.28 L834.27,695.44 L834.06,691.77 L835.74,689.14 L835.74,686.62 L837.22,684.09 L837.32,679.68 L836.06,677.68 L837.84,676.74 L841.52,675.69 L850.56,670.54 L851.93,669.28 L851.82,667.49 L850.98,666.02 L852.03,663.6 L854.13,662.34 L858.31,665.19 L860.92,665.64 L863.75,667.23 L865.67,667.68 L874.05,666.78 L874.73,668.13 L874.05,670.06 L872.46,671.19 L870.2,671.3 L866.12,673.0 L864.88,673.91 L863.07,675.27 L862.95,678.32 L863.07,680.59 L868.05,682.96 L870.2,682.85 L872.8,683.3 L872.92,691.34 L874.84,692.81 L881.41,692.02 L884.39,690.68 L890.19,681.57 L892.05,677.85 L896.2,676.29 L897.44,677.23 L896.3,681.16 L902.1,681.68 L901.06,683.64 L899.71,690.27 L897.23,689.44 L893.92,689.54 L890.81,690.37 L883.88,695.24 L883.15,697.2 L885.12,698.24 L889.16,698.45 L892.26,697.31 L897.85,696.79 L898.78,697.31 L898.78,699.07 L895.47,701.35 L892.68,702.17 L888.12,702.69 L883.98,703.83 L875.7,704.76 L871.97,706.0 L872.08,707.56 L873.94,708.49 L878.91,709.42 L879.43,713.35 L881.39,714.8 L883.88,715.11 L888.43,712.52 L891.33,711.7 L891.33,713.15 L890.09,713.87 L889.98,718.53 L892.78,720.19 L892.47,721.01 L886.26,720.91 L884.29,720.19 L882.64,718.11 L880.36,716.87 L877.36,716.46 L874.98,717.6 L871.56,715.11 L870.01,715.84 L869.18,718.43 L866.38,721.74 L863.9,723.7 L864.63,731.69 L860.28,730.65 L855.94,727.88 L853.22,726.55 L849.75,725.5 L845.35,723.3 L843.55,723.3 L839.91,724.81 L837.59,722.78 L833.02,722.61 L826.48,721.63 L823.36,722.26 L823.64,727.65 L824.57,729.27 L829.32,731.12 L832.85,730.37 L833.95,730.89 L832.73,733.03 L833.25,734.13 L837.42,735.98 L840.43,736.67 L844.71,736.67 L853.04,743.91 L853.51,745.01 L853.26,745.62 L853.22,745.72 L849.99,743.71 L846.66,742.27 L844.45,740.61 L835.7,739.83 L831.05,738.95 L828.83,739.06 L828.39,738.06 L826.73,736.4 L824.62,735.73 L823.63,736.18 L825.18,740.72 L825.18,742.93 L824.07,744.82 L822.19,745.04 L819.08,744.59 L817.31,744.93 L816.65,746.7 L817.31,748.91 L819.75,751.57 L820.19,753.01 L817.31,756.11 L817.31,758.33 L817.93,761.34 L815.18,763.07 L814.55,763.36 L814.34,763.84 L814.4,764.71 L815.61,766.06 L820.71,769.43 L824.66,769.01 L826.25,769.56 L829.48,773.38 L833.3,775.56 L834.04,776.73 L834.57,778.95 L836.83,779.67 L837.28,779.3 L837.28,778.32 L842.0,773.84 L845.68,775.85 L845.0,779.51 L845.04,781.12 L847.51,785.75 L849.29,788.31 L849.93,788.33 L853.16,787.0 L853.69,786.25 L854.06,784.66 L855.0,783.75 L856.28,785.52 L858.61,787.04 L864.96,787.49 L872.66,787.28 L873.91,788.12 L877.11,789.14 L879.88,789.17 L880.55,789.75 L878.55,792.15 L877.99,794.96 L882.99,795.97 L886.52,793.52 L890.29,793.7 L892.19,794.66 L893.51,795.73 L894.87,797.27 L895.65,799.82 L897.95,802.14 L900.98,801.46 L901.12,800.69 L901.79,799.53 L904.53,796.94 L905.31,795.89 L905.27,795.3 L907.32,795.78 L909.1,796.77 L909.5,797.57 L909.34,799.07 L911.74,803.42 L913.09,804.57 L916.24,805.59 L917.32,807.72 L916.84,808.47 L918.16,810.22 L923.54,813.02 L924.26,814.34 L924.37,815.23 L923.85,816.15 L922.5,816.4 L922.42,819.25 L923.44,821.0 L925.25,822.15 L929.33,821.39 L929.49,820.58 L936.45,818.34 L937.77,818.85 L938.98,820.05 L941.62,825.77 L940.78,828.52 L939.33,828.82 L938.4,828.5 L937.33,827.59 L933.75,828.96 L933.15,829.81 L934.7,832.62 L935.92,832.19 L937.35,833.54 L937.39,834.2 L937.01,834.85 L932.29,839.13 L931.65,843.2 L930.41,845.74 L925.15,846.34 L923.91,846.14 L922.65,845.12 L919.64,845.95 L915.66,849.85 L913.32,853.27 L912.29,855.62 L912.23,856.37 L911.78,856.92 L910.86,856.92 L909.79,856.3 L907.92,855.23 L908.63,853.87 L907.22,852.57 L905.77,853.1 L904.92,852.76 L903.36,851.08 L902.45,848.26 L902.56,847.34 L902.26,846.27 L900.68,844.2 L898.78,843.12 L895.43,843.37 L894.97,843.76 L895.04,845.09 L895.63,846.7 L894.59,847.89 L890.26,848.81 L888.82,848.85 L886.32,850.07 L884.41,851.4 L883.91,852.08 L884.44,852.57 L882.69,855.99 L880.8,855.78 L880.25,856.15 L871.97,868.06 L866.94,872.13 L865.41,871.28 L866.77,866.23 L867.54,864.8 L869.37,862.68 L872.28,861.86 L873.56,861.16 L880.89,851.17 L879.96,849.01 L877.24,845.32 L873.66,843.2 L868.0,842.7 L867.0,839.26 L867.32,835.26 L865.81,833.29 L863.76,832.23 L863.04,831.41 L860.4,826.04 L858.88,823.78 L855.88,820.77 L853.97,819.41 L844.2,815.56 L831.46,812.69 L819.62,805.96 L814.99,804.57 L809.74,803.24 L799.56,801.95 L792.7,802.11 L787.17,801.83 L786.3,797.61 L786.55,796.58 L787.75,795.03 L789.95,793.24 L792.53,789.88 L793.24,788.63 L793.38,786.97 L793.24,786.0 L792.82,785.03 L792.27,784.06 L791.58,782.96 L789.88,782.42 L788.4,781.85 L788.12,779.5 L789.63,775.97 L790.2,775.49 L790.2,774.93 L790.33,774.24 L790.2,773.55 L790.06,773.0 L788.95,772.44 L787.29,771.61 L784.94,771.89 L782.46,772.67 L777.74,774.88 L774.68,777.75 L772.21,780.47 L768.06,780.61 L766.88,779.82 L766.4,779.5 L764.88,777.84 L761.42,774.24 L757.68,774.38 L756.58,776.32 L755.89,777.7 L754.6,779.97 L754.09,780.88 L754.23,783.51 L753.91,787.01 L754.6,787.95 L754.58,788.22 L754.51,788.87 L754.37,790.33 L754.37,790.33 L754.35,790.36 L753.85,791.09 L753.52,791.57 L753.35,792.4 L753.99,795.13 L754.18,795.93 L753.73,799.85 L754.77,802.68 L757.45,803.48 L758.2,804.92 L757.0,806.83 L756.41,807.2 L754.13,807.6 L752.09,807.15 L749.58,807.36 L748.86,808.2 L749.11,808.94 L748.96,809.84 L747.12,810.78 L744.19,811.38 L743.4,810.98 L742.2,810.88 L741.56,811.28 L742.5,814.75 L746.62,817.19 L746.62,820.22 L747.12,820.57 L748.4,820.42 L752.16,820.01 L756.36,816.35 L758.92,814.76 L765.42,812.01 L766.2,811.4 L767.32,809.84 L768.83,810.13 L769.06,810.67 L768.91,811.09 L767.87,812.38 L755.95,819.23 L749.32,825.11 L745.55,827.61 L743.84,828.95 L741.02,831.16 L728.28,839.36 L719.32,843.04 L717.79,842.56 L715.37,842.9 L697.56,848.13 L696.56,847.99 L696.36,846.93 L700.79,844.84 L704.67,844.45 L706.71,844.19 L708.52,843.54 L711.55,842.25 L713.03,841.85 L713.94,841.46 L714.55,840.16 L714.51,838.86 L715.63,838.43 L717.38,838.46 L717.35,835.09 L715.71,833.72 L714.76,833.35 L711.06,833.19 L708.97,832.6 L709.37,831.11 L705.97,827.36 L704.91,826.67 L704.89,824.34 L705.26,822.84 L706.66,822.19 L708.55,823.5 L709.81,823.3 L710.65,821.3 L707.86,817.48 L705.37,816.47 L703.3,815.25 L703.33,811.9 L702.5,810.37 L699.46,808.16 L693.22,808.67 L693.04,809.29 L693.24,810.34 L692.23,811.44 L689.44,812.55 L690.18,815.67 L687.34,821.96 L685.69,822.8 L685.54,822.85 L681.26,824.3 L680.72,824.25 L679.26,822.9 L674.07,823.48 L673.93,823.02 L674.75,822.43 L675.03,821.68 L671.65,820.36 L669.99,819.11 L670.71,818.35 L674.83,817.14 L675.29,814.34 L675.82,813.09 L678.04,810.56 L677.76,810.1 L674.02,808.96 L669.92,806.28 L667.15,805.62 L665.93,807.11 L664.3,808.24 L659.62,807.88 L657.17,806.68 L654.07,808.33 L652.76,813.33 L652.99,813.81 L653.81,814.35 L655.16,814.15 L657.18,814.43 L660.97,816.57 L661.21,817.09 L661.01,817.73 L658.8,818.53 L658.64,820.71 L658.0,821.37 L655.39,820.91 L647.54,821.55 L646.5,820.26 L645.91,820.15 L644.74,820.49 L643.58,822.77 L642.6,826.53 L642.68,827.06 L643.46,827.37 L644.17,828.59 L642.34,835.13 L636.76,836.92 L634.33,836.38 L632.55,836.42 L629.44,837.31 L627.03,836.16 L621.05,837.89 L619.36,840.3 L614.64,842.62 L614.16,843.36 L613.86,846.92 L614.77,848.53 L617.81,849.52 L620.86,849.52 L623.61,848.82 L628.11,846.39 L631.06,846.81 L631.74,847.11 L632.33,847.55 L634.13,847.67 L635.69,847.42 L636.9,846.94 L638.97,846.28 L641.38,845.92 L642.86,845.5 L643.39,845.36 L643.76,845.26 L644.05,845.4 L644.34,845.82 L644.08,846.39 L642.16,847.11 L627.1,850.82 L622.59,851.41 L614.96,851.28 L612.45,851.85 L607.38,851.38 L606.76,850.7 L606.38,849.65 L607.04,848.64 L606.43,846.27 L603.13,841.26 L602.22,841.15 L600.43,839.44 L599.02,837.23 L596.68,834.63 L591.67,830.67 L588.75,828.99 L587.62,826.85 L585.22,825.63 L581.55,827.38 L578.16,827.69 L573.83,826.73 L572.4,825.38 L567.52,825.47 L561.09,824.38 L557.32,820.71 L554.7,819.26 L541.89,818.28 L538.36,817.41 L527.5,813.46 L523.16,810.16 L517.3,804.19 L517.69,802.91 L521.95,802.93 L523.82,802.33 L525.13,801.9 L525.39,801.59 L527.33,799.23 L527.89,798.55 L527.97,798.01 L528.32,795.81 L528.99,793.9 L529.09,793.62 L529.11,793.57 L529.72,792.84 L529.92,792.74 L532.45,791.49 L532.51,791.46 L532.82,791.31 L532.9,791.27 L533.54,791.14 L534.82,790.88 L535.4,791.13 L537.76,792.93 L540.5,792.93 L542.28,791.27 L541.81,787.69 L538.47,784.48 L538.92,783.52 L539.23,782.87 L539.64,781.99 L539.08,780.78 L538.65,779.87 L538.54,779.76 L538.33,779.53 L537.98,779.17 L534.25,778.33 L532.5,777.71 L531.24,777.26 L531.0,775.25 L530.95,774.78 L530.92,774.56 L530.91,774.5 L530.63,773.98 L529.89,772.64 L527.05,770.97 L524.68,771.81 L517.15,770.18 L515.73,768.96 L515.31,766.79 L513.35,764.85 L505.07,765.45 L501.75,764.75 L500.54,763.94 L499.59,761.65 L498.21,760.26 L496.86,759.48 L492.97,759.56 L484.15,762.21 L481.65,761.88 L481.57,761.18 L482.59,759.26 L482.65,758.18 L481.98,756.96 L480.48,755.64 L479.66,750.46 L477.56,743.48 L476.22,742.65 L474.46,742.47 L472.41,742.68 L469.08,743.77 L464.55,744.67 L461.14,743.87 L460.22,743.32 L460.27,742.76 L460.66,742.27 L461.26,742.11 L462.32,740.85 L464.15,738.14 L464.55,736.41 L464.24,734.03 L464.78,731.4 L465.75,729.29 L465.82,727.5 L465.2,724.82 L463.14,723.52 L456.91,722.93 L448.95,724.17 L444.16,722.28 L441.44,722.48 L435.72,723.86 L427.21,727.82 L424.4,729.66 L422.1,730.69 L420.67,729.96 L418.08,729.29 L418.03,728.83 L418.52,728.33 L419.01,727.2 L419.02,727.17 L419.02,726.16 L418.51,724.89 L418.26,723.5 L418.51,721.98 L419.17,720.34 L422.0,716.11 L422.82,711.73 L420.03,707.93 L416.56,706.53 L413.33,707.46 L411.67,710.23 L411.1,710.28 L407.18,709.99 L403.45,711.22 L401.77,712.3 L400.33,713.22 L399.33,714.08 L389.92,716.41 L386.15,718.11 L376.86,723.18 L370.15,728.27 L369.25,731.79 L371.98,736.8 L372.26,738.44 L376.08,745.48 L379.42,746.04 L384.47,745.81 L387.74,744.98 L391.8,744.77 L393.44,746.03 L396.33,747.05 L396.4,747.07 L402.76,747.98 L407.33,747.56 L408.21,747.21 L409.2,746.01 L410.43,743.41 L414.76,742.71 L415.17,743.14 L417.79,744.02 L420.74,743.69 L421.3,743.3 L425.25,744.05 L425.67,744.99 L425.32,745.82 L425.8,746.52 L428.81,748.34 L432.06,749.52 L435.49,750.31 L436.66,751.39 L437.34,752.69 L437.36,753.73 L442.51,754.1 L447.46,755.69 L448.09,755.64 L448.75,755.84 L449.26,756.52 L448.82,757.75 L444.76,760.43 L442.38,761.22 L439.04,763.82 L437.86,766.73 L437.75,767.79 L438.2,768.74 L438.12,769.62 L435.96,770.72 L434.73,770.87 L432.73,770.01 L432.13,770.0 L430.1,770.87 L428.83,772.35 L425.76,771.45 L423.91,770.5 L423.2,768.53 L421.43,767.18 L418.44,767.08 L416.98,766.6 L413.46,764.33 L411.79,764.25 L406.03,761.59 L401.98,760.91 L399.0,758.94 L391.53,755.47 L389.95,753.32 L388.92,752.77 L387.98,752.28 L384.31,752.37 L377.15,751.92 L367.57,752.78 L357.76,756.26 L350.62,760.46 L345.43,761.54 L340.17,761.61 L333.28,760.45 L323.3,758.29 L310.31,756.51 L294.86,754.9 L284.38,753.3 L284.11,753.24 L277.58,751.6 L261.13,746.23 L238.03,736.71 L225.45,731.07 L219.29,728.72 L202.74,723.81 L198.59,722.33 L182.46,718.44 L173.37,717.17 L166.0,717.06 L160.89,717.61 L152.43,719.73 L151.91,720.42 L151.48,720.52 L147.0,719.8 L134.83,718.72 L128.23,718.67 L116.74,719.75 L107.23,721.14 L99.14,721.66 L90.35,722.69 L79.75,724.65 L75.37,725.9 L69.34,728.48 L65.75,730.52 L62.3,732.96 L52.43,719.4 L51.3,718.25 L52.72,705.23 L61.78,692.28 L71.12,678.94 L77.08,674.15 L77.92,673.74 L83.29,667.47 L83.45,667.28 L85.18,664.48 L88.16,652.05 L88.24,649.89 L85.19,641.4 L84.43,632.31 L83.64,622.92 L83.09,623.11 L80.85,622.29 L75.41,616.13 L76.9,605.75 L78.03,604.69 L79.8,603.47 L86.89,598.57 L87.69,596.99 L87.77,596.04 L85.54,584.67 L80.1,578.79 L82.32,572.37 L109.48,530.93 L112.23,527.94 L113.07,518.79 L113.08,518.68 L113.74,517.36 L113.81,517.22 L118.11,508.66 L116.4,493.47 L118.71,481.4 L117.96,462.08 L117.35,461.2 L114.84,461.02 L114.18,461.21 L114.16,461.21 L109.33,464.51 L107.64,464.85 L105.77,463.19 L105.61,462.87 L105.13,461.91 L104.24,457.72 L104.07,453.53 L102.94,447.52 L101.77,445.63 L97.48,444.57 L92.53,440.49 L98.14,427.22 L92.8,424.56 L88.13,420.53 L81.99,406.25 L69.55,397.87 L65.82,394.09 L62.85,388.38 L62.85,388.38 L64.42,383.17 L66.1,372.85 L66.93,364.93 L61.92,349.41 L54.98,341.47 L52.99,339.19 L47.33,333.41 L45.18,332.49 L37.32,327.04 L30.0,316.83 L25.08,313.3 L25.08,302.98 L25.15,291.37 L25.08,288.09 L25.1,284.43 L25.11,282.84 L25.11,282.83 L25.1,277.54 L25.09,273.51 L25.08,264.15 L25.08,264.14 L25.07,247.08 L25.07,245.3 L25.04,241.86 L25.04,240.47 L25.05,240.33 L25.03,234.0 L25.04,233.2 L25.04,227.66 L25.05,227.49 L25.04,227.2 L25.03,226.28 L25.03,225.86 L25.01,225.13 L25.01,224.72 L25.04,223.58 L25.05,221.34 L25.01,219.8 L25.0,211.46 L25.01,210.6 L25.04,202.26 L25.04,200.78 L25.04,200.1 L25.06,196.77 L25.07,196.2 L25.04,194.08 L25.0,187.19 Z" fill="black" fill-rule="evenodd"/>
</svg>
