<?xml version="1.0" encoding="UTF-8"?>
<svg xmlns="http://www.w3.org/2000/svg" viewBox="0 0 1000 1000">
  <path d="M652.05,963.61 L655.67,963.63 L657.66,959.98 L658.28,960.75 L658.06,962.0 L656.4,965.27 L652.87,969.41 L647.6,965.27 L640.01,963.82 L652.05,963.61 Z M690.52,965.02 L688.67,965.85 L681.63,967.97 L675.88,968.41 L674.78,968.3 L673.99,967.83 L674.39,967.58 L675.46,967.7 L681.16,967.07 L686.55,965.81 L688.84,964.86 L692.6,962.05 L694.96,961.51 L695.78,961.64 L690.52,965.02 Z M768.01,967.04 L769.39,967.1 L776.15,969.37 L778.57,969.62 L780.69,969.41 L783.12,968.18 L788.81,967.86 L788.19,968.65 L783.52,970.16 L778.52,970.54 L770.67,968.7 L768.85,967.8 L768.01,967.04 Z M727.88,959.86 L738.5,963.18 L755.0,965.41 L755.99,965.39 L757.17,964.45 L756.47,965.37 L755.77,965.66 L752.17,966.09 L743.04,964.68 L736.72,964.18 L727.66,961.46 L721.98,962.25 L719.59,962.22 L717.38,961.69 L715.81,960.9 L723.58,960.74 L726.42,959.44 L727.88,959.86 Z M631.82,25.31 L643.48,25.34 L643.51,25.34 L667.51,25.28 L705.75,25.18 L712.93,25.16 L775.33,25.0 L775.34,25.0 L792.93,25.09 L796.28,25.09 L817.05,25.12 L817.89,25.1 L828.48,25.08 L843.26,43.48 L848.61,45.46 L844.57,78.54 L840.57,105.15 L840.47,105.43 L840.32,106.63 L837.3,130.0 L835.27,145.76 L835.21,146.19 L833.69,157.98 L833.25,161.7 L833.05,163.34 L827.79,204.18 L827.07,209.74 L823.29,238.4 L823.27,238.63 L823.27,238.66 L818.96,271.49 L817.77,280.57 L817.74,281.17 L817.44,283.71 L817.4,283.87 L815.3,301.17 L815.27,301.61 L815.07,302.98 L814.89,304.58 L814.8,305.38 L814.7,305.78 L813.8,313.04 L813.36,316.49 L813.24,317.29 L810.54,339.62 L807.91,361.44 L800.83,419.97 L799.4,432.22 L792.45,491.73 L792.44,491.79 L791.31,501.36 L788.35,526.62 L788.35,526.64 L784.87,554.44 L782.85,570.4 L781.48,581.21 L781.47,581.35 L778.27,607.26 L778.25,607.42 L775.57,628.42 L775.52,628.99 L775.31,636.18 L775.06,644.53 L775.09,644.61 L776.4,674.76 L776.4,674.77 L777.33,689.32 L777.38,689.79 L779.35,726.4 L779.51,729.26 L779.5,729.34 L780.19,742.13 L780.19,742.15 L781.57,766.7 L781.59,766.94 L782.79,789.74 L784.01,812.04 L784.03,812.22 L784.04,812.59 L786.64,864.35 L786.68,865.1 L786.69,865.37 L786.82,868.81 L786.86,870.11 L787.21,877.52 L787.5,883.78 L787.62,884.83 L787.62,886.58 L788.3,901.89 L788.32,902.22 L788.4,904.24 L788.64,908.63 L790.07,936.49 L789.64,936.83 L789.28,938.2 L789.67,939.37 L790.25,939.82 L790.28,940.45 L788.86,941.42 L787.14,941.87 L785.39,939.54 L782.42,939.4 L779.93,940.76 L779.91,942.74 L778.49,944.33 L774.93,946.22 L773.31,946.55 L768.45,945.94 L768.17,945.75 L768.15,944.77 L764.96,942.27 L762.26,941.64 L753.73,941.46 L750.41,938.67 L749.84,938.56 L749.35,939.16 L746.98,939.7 L744.86,938.6 L737.12,937.93 L734.02,939.19 L731.54,940.85 L729.88,941.56 L727.22,941.85 L724.3,941.76 L720.74,940.78 L715.86,937.28 L708.0,933.44 L707.81,932.89 L708.3,932.18 L708.28,931.51 L705.62,930.0 L702.15,928.57 L701.31,929.43 L698.9,931.86 L700.16,935.32 L694.43,933.1 L693.78,932.6 L693.58,932.04 L691.79,931.77 L686.25,931.69 L676.56,932.28 L667.67,933.64 L654.49,936.75 L634.08,944.02 L627.46,945.73 L617.34,949.08 L614.59,949.56 L613.47,949.52 L612.88,948.67 L613.39,944.63 L614.18,943.63 L615.42,943.87 L615.76,940.36 L613.26,937.23 L608.82,935.31 L604.71,935.58 L603.72,935.8 L602.04,936.18 L601.3,936.61 L599.21,938.86 L598.76,939.89 L602.74,941.58 L604.13,941.7 L605.37,942.7 L607.38,946.36 L607.34,947.23 L605.89,949.6 L602.97,951.51 L600.25,952.35 L598.83,953.14 L596.11,956.0 L595.29,956.51 L588.27,959.16 L587.23,960.92 L587.26,962.17 L586.09,965.29 L582.73,968.86 L582.65,972.75 L580.01,974.84 L579.56,975.0 L578.34,974.54 L577.15,971.53 L576.28,971.1 L574.33,972.29 L571.75,973.21 L567.89,973.2 L567.56,973.66 L558.07,973.63 L556.47,972.59 L551.18,966.5 L544.13,952.59 L544.1,951.53 L544.67,949.91 L546.8,946.03 L546.78,942.39 L536.25,920.26 L534.84,918.89 L528.13,912.36 L526.56,912.24 L521.05,907.66 L511.93,896.57 L508.67,889.38 L504.89,878.06 L504.89,878.05 L508.12,864.15 L515.28,841.51 L518.52,832.41 L519.01,832.07 L521.84,831.88 L524.16,828.23 L527.39,817.94 L527.44,811.81 L527.44,811.78 L526.58,811.31 L522.61,811.89 L510.04,811.85 L508.43,811.85 L506.28,811.85 L506.21,811.85 L502.08,811.85 L495.02,811.91 L494.07,811.88 L489.03,811.97 L488.23,811.98 L479.24,811.98 L478.72,811.93 L472.83,811.99 L469.51,812.0 L468.05,812.02 L463.89,812.02 L448.58,812.05 L447.99,812.08 L441.52,812.06 L441.44,812.07 L422.74,812.13 L405.71,812.19 L405.47,812.19 L405.47,812.19 L401.11,812.19 L390.72,812.3 L389.79,812.3 L387.72,812.31 L386.86,812.31 L386.71,812.31 L380.48,812.3 L380.12,812.31 L379.85,812.31 L378.16,812.31 L377.99,812.32 L365.99,812.31 L362.14,812.31 L358.92,812.32 L358.74,812.32 L358.16,812.34 L357.9,812.33 L346.08,812.36 L345.59,812.36 L329.18,812.41 L329.17,812.41 L324.39,812.34 L322.31,812.38 L321.0,812.36 L320.24,812.37 L319.47,812.37 L311.18,812.39 L311.14,812.39 L265.01,812.47 L263.42,812.47 L260.95,812.47 L255.57,812.48 L255.54,812.48 L242.17,812.43 L242.16,812.43 L232.73,812.42 L232.57,812.42 L193.41,812.46 L192.99,812.45 L170.74,812.38 L153.72,812.42 L151.39,812.37 L161.68,808.28 L164.24,806.39 L166.06,803.75 L166.56,801.6 L166.29,800.26 L165.73,799.09 L163.12,796.86 L157.84,781.81 L158.67,774.37 L158.96,771.78 L163.69,760.78 L168.99,760.16 L173.95,758.39 L175.29,757.45 L176.62,754.8 L174.46,750.94 L172.22,747.91 L170.5,745.8 L170.24,741.98 L173.36,737.61 L175.65,736.04 L177.36,733.27 L178.29,729.71 L177.32,726.96 L176.33,725.79 L175.38,723.76 L173.85,709.85 L175.25,707.67 L176.16,707.33 L182.36,707.77 L188.21,705.94 L190.66,704.66 L193.6,703.04 L194.78,701.62 L195.02,700.55 L193.12,698.42 L190.64,697.83 L188.49,697.4 L186.51,697.36 L184.13,696.88 L182.83,695.58 L182.71,694.4 L182.71,693.1 L182.71,691.91 L183.3,689.78 L185.31,688.36 L187.68,687.89 L189.93,687.89 L193.71,687.89 L197.15,686.59 L198.45,683.04 L198.04,676.68 L198.48,672.51 L202.02,667.85 L204.1,665.11 L204.95,663.96 L204.84,662.38 L205.22,658.52 L206.04,654.78 L208.76,646.21 L210.2,644.55 L212.47,643.82 L219.07,642.8 L227.98,640.89 L251.65,618.04 L270.03,595.34 L271.36,593.04 L271.45,592.9 L271.53,591.52 L271.56,590.87 L270.93,589.67 L270.08,588.69 L268.89,588.19 L267.69,587.91 L266.56,588.19 L265.54,588.55 L263.67,589.22 L250.98,590.38 L244.79,589.11 L244.27,588.79 L243.04,586.83 L242.48,584.72 L243.17,580.47 L244.53,576.46 L245.74,575.46 L250.55,573.2 L252.72,572.51 L267.71,567.74 L269.19,567.5 L272.63,568.73 L275.63,571.09 L275.97,572.82 L295.55,553.09 L296.85,550.42 L296.27,548.69 L294.14,548.37 L279.5,545.95 L276.85,544.78 L276.18,543.9 L275.98,542.72 L278.04,535.69 L271.04,529.84 L266.45,528.87 L263.04,527.55 L258.09,524.87 L255.43,522.25 L254.02,520.07 L253.88,516.72 L257.59,507.93 L258.4,507.07 L259.25,506.24 L259.02,504.39 L258.99,504.14 L257.8,501.64 L256.36,500.07 L253.26,500.04 L251.67,499.71 L249.06,497.59 L248.07,496.23 L247.06,493.91 L246.57,490.88 L246.91,488.87 L253.57,482.45 L257.41,480.24 L261.89,478.57 L264.27,476.77 L265.63,474.87 L266.14,472.96 L264.9,471.93 L261.67,470.93 L252.61,468.91 L246.44,469.0 L244.68,468.08 L244.3,467.24 L244.48,460.44 L245.02,455.19 L245.68,453.25 L248.3,449.2 L251.68,446.8 L254.0,446.68 L256.06,446.14 L259.79,443.18 L262.96,440.18 L264.3,437.21 L264.27,433.19 L259.77,422.92 L258.3,421.32 L255.87,420.42 L252.22,421.26 L250.39,422.08 L249.57,423.88 L251.07,425.37 L250.84,433.39 L250.46,434.46 L248.29,436.86 L245.35,437.97 L242.31,437.94 L238.1,436.61 L235.84,434.92 L234.94,433.59 L234.71,431.97 L237.11,425.88 L244.15,417.43 L245.81,416.03 L252.11,410.7 L259.61,389.64 L259.93,374.57 L255.09,369.79 L249.05,359.45 L240.54,335.58 L250.89,333.51 L253.53,329.76 L252.22,325.09 L234.38,313.94 L231.11,309.34 L231.9,307.93 L232.72,306.46 L246.9,303.44 L250.46,301.12 L251.17,298.85 L245.84,294.88 L240.12,290.99 L238.83,288.83 L239.69,286.35 L240.23,284.41 L242.18,283.44 L247.68,284.41 L249.3,283.54 L250.7,282.68 L251.67,281.17 L251.89,278.79 L250.05,274.69 L248.37,270.46 L249.31,265.14 L263.57,252.67 L269.62,238.04 L259.5,229.1 L259.31,226.62 L273.15,220.61 L283.82,219.66 L299.05,214.83 L300.68,208.33 L298.86,204.01 L294.2,202.41 L290.9,200.03 L290.27,197.59 L290.05,196.71 L289.76,195.59 L292.95,190.82 L297.95,190.59 L300.45,187.86 L300.34,185.7 L297.38,183.43 L293.97,179.79 L294.31,177.29 L297.61,175.92 L302.72,176.27 L305.17,174.16 L323.34,149.64 L344.14,147.21 L352.93,144.26 L360.53,139.44 L362.41,135.45 L361.56,117.84 L360.44,94.8 L360.3,91.72 L362.76,90.07 L365.55,90.73 L367.69,91.39 L371.14,90.57 L373.6,87.45 L373.44,85.31 L368.84,81.86 L364.57,77.92 L365.55,70.85 L368.02,66.74 L371.47,67.07 L375.11,69.55 L376.4,70.03 L379.35,69.7 L381.82,67.07 L379.68,57.21 L380.5,53.27 L382.97,52.45 L387.9,52.78 L390.37,56.81 L392.15,57.35 L393.51,57.17 L413.32,54.52 L415.97,51.69 L424.61,42.48 L425.72,36.52 L423.85,33.09 L412.95,25.07 L494.88,25.33 L496.86,25.35 L503.73,25.37 L514.23,25.35 L528.19,25.25 L543.96,25.15 L570.19,25.26 L573.62,25.33 L601.41,25.32 L631.82,25.31 Z" fill="black" fill-rule="evenodd"/>
</svg>
