<?xml version="1.0" encoding="UTF-8"?>
<svg xmlns="http://www.w3.org/2000/svg" viewBox="0 0 1000 1000">
  <path d="M420.93,633.27 L419.99,638.45 L420.04,638.63 L419.94,643.92 L420.05,659.78 L420.07,663.05 L420.56,674.98 L416.01,674.01 L414.73,673.43 L414.04,672.93 L413.4,671.58 L407.09,663.23 L398.83,655.17 L394.56,653.01 L393.2,653.05 L386.34,656.38 L385.75,656.67 L383.57,661.56 L382.85,664.63 L376.87,668.64 L375.59,668.73 L374.48,668.81 L368.73,668.17 L366.12,669.52 L360.64,671.71 L357.73,670.7 L357.25,669.78 L355.57,667.86 L349.45,668.44 L339.12,670.27 L330.53,670.2 L327.79,669.49 L327.18,669.01 L326.67,668.56 L325.82,668.1 L324.9,667.84 L323.65,667.84 L321.68,668.23 L318.46,669.88 L317.87,671.32 L317.12,673.47 L316.94,674.01 L315.96,675.14 L314.71,676.06 L312.87,675.86 L307.9,674.51 L302.28,674.21 L290.89,673.02 L288.44,672.59 L283.53,674.12 L281.09,676.78 L280.3,678.14 L280.3,679.19 L280.2,680.35 L280.09,681.34 L279.73,681.99 L279.57,682.29 L278.15,683.13 L276.05,682.87 L268.57,678.71 L265.94,676.82 L264.08,673.25 L261.73,663.54 L261.99,663.34 L262.32,662.69 L262.15,662.1 L258.23,655.62 L255.58,652.11 L253.71,650.71 L249.78,648.56 L246.67,647.38 L244.2,648.19 L240.16,650.1 L239.19,650.4 L238.25,649.88 L230.23,644.02 L228.58,641.71 L226.77,637.94 L227.11,637.44 L228.19,637.31 L228.83,637.48 L230.85,635.6 L230.95,634.96 L230.96,631.92 L230.68,629.76 L229.52,628.38 L228.75,628.5 L227.84,628.35 L220.62,623.07 L220.63,622.79 L221.44,622.05 L221.45,621.56 L218.8,618.26 L214.8,614.81 L212.88,613.65 L207.79,607.29 L206.03,601.22 L204.99,596.56 L205.65,595.15 L205.08,592.85 L204.03,592.13 L202.14,591.38 L201.88,589.87 L202.78,587.57 L202.56,586.77 L201.84,585.87 L200.14,584.89 L195.29,582.63 L192.32,579.41 L191.66,579.08 L189.37,577.95 L188.09,577.59 L185.88,578.31 L185.59,578.56 L185.34,579.61 L184.36,582.12 L176.42,589.28 L172.26,590.49 L167.52,590.23 L162.63,596.24 L159.37,596.31 L158.12,594.49 L150.69,588.98 L149.64,588.82 L146.44,588.7 L143.51,589.16 L142.75,588.72 L142.68,588.67 L142.53,582.95 L142.74,582.76 L143.55,582.54 L143.96,582.52 L144.26,582.65 L146.35,581.73 L147.49,580.64 L147.93,577.74 L147.76,577.16 L147.18,576.25 L145.3,575.5 L143.79,574.58 L142.33,572.16 L146.41,566.87 L146.83,566.49 L147.66,566.08 L151.63,565.43 L155.97,562.65 L155.35,557.18 L154.53,556.01 L153.13,555.33 L150.31,554.58 L148.88,553.63 L148.31,552.46 L148.26,551.58 L148.26,550.79 L149.44,549.36 L150.13,547.79 L150.08,546.37 L149.44,545.33 L148.9,544.05 L149.73,541.44 L153.35,531.36 L157.22,519.83 L156.64,517.32 L159.71,511.89 L160.93,506.2 L160.93,504.41 L160.39,503.55 L160.12,503.42 L159.47,503.11 L157.84,502.52 L153.72,502.68 L151.77,503.22 L150.64,503.71 L149.0,504.28 L140.27,504.21 L140.08,504.15 L138.52,503.71 L136.82,502.1 L136.28,501.02 L136.35,500.54 L136.39,499.97 L136.28,499.32 L136.12,498.73 L135.25,497.97 L134.33,497.37 L133.68,497.35 L132.49,497.32 L130.35,497.79 L128.64,497.7 L126.43,495.83 L121.78,492.41 L119.62,491.0 L116.86,490.31 L114.31,488.8 L113.72,488.14 L112.86,485.53 L113.08,483.09 L109.93,480.48 L102.24,474.08 L100.17,471.36 L92.73,464.64 L92.15,464.16 L86.92,460.84 L84.91,458.56 L84.7,457.69 L82.69,454.94 L81.18,454.47 L74.66,453.67 L70.1,452.85 L66.59,451.52 L64.4,448.76 L63.6,447.33 L62.38,446.15 L55.7,443.31 L53.39,442.33 L50.97,441.76 L50.28,439.78 L50.59,438.23 L51.68,436.52 L50.28,434.19 L49.5,432.63 L49.81,431.23 L50.96,429.58 L51.21,428.28 L52.14,424.71 L50.76,420.06 L50.34,419.55 L35.29,407.34 L28.34,400.41 L25.08,397.89 L25.08,397.87 L25.01,390.79 L25.0,390.35 L25.0,390.1 L25.0,389.95 L25.0,379.02 L25.01,356.34 L25.03,320.28 L25.03,320.25 L25.02,316.88 L88.15,316.99 L129.52,316.91 L133.47,316.9 L133.77,316.9 L152.41,316.87 L181.73,317.01 L211.41,317.14 L257.02,317.08 L257.51,317.07 L257.77,317.07 L258.06,317.07 L258.46,317.07 L258.68,317.07 L258.94,317.07 L259.27,317.07 L259.46,317.07 L265.35,317.06 L265.44,317.06 L330.02,317.09 L356.87,317.11 L356.87,317.11 L364.18,317.14 L364.19,317.14 L403.02,317.12 L433.34,317.11 L433.4,317.1 L444.75,317.08 L486.44,317.01 L486.49,317.02 L489.97,317.01 L503.89,316.98 L543.91,316.93 L552.21,316.92 L552.26,316.93 L577.86,316.98 L577.88,316.98 L582.59,317.02 L583.06,317.02 L618.78,317.0 L623.14,317.0 L643.04,317.0 L726.63,316.99 L770.47,316.98 L771.11,316.99 L778.97,316.99 L780.36,316.97 L790.33,316.99 L790.84,316.99 L798.27,317.01 L800.49,317.01 L800.73,317.0 L801.45,317.0 L811.09,317.01 L815.96,317.02 L822.64,317.0 L833.08,316.98 L837.7,316.98 L847.63,317.0 L850.61,316.98 L851.01,316.98 L853.3,316.98 L857.72,316.99 L866.48,316.99 L866.8,317.0 L868.11,317.0 L868.42,317.0 L870.92,317.01 L877.11,317.0 L878.09,316.99 L894.52,317.0 L926.96,317.01 L935.17,316.99 L974.32,316.96 L974.34,317.98 L974.33,319.59 L974.33,319.82 L974.31,320.2 L974.33,320.35 L974.32,320.77 L974.31,320.94 L974.32,321.44 L974.32,321.67 L974.31,322.2 L974.32,323.91 L974.32,324.32 L974.33,324.66 L974.32,326.45 L974.31,326.78 L974.31,326.92 L974.31,327.43 L974.32,327.58 L974.3,329.03 L974.33,333.01 L974.33,333.68 L974.33,336.62 L974.35,336.96 L974.39,343.52 L974.39,343.6 L974.39,343.94 L974.39,344.05 L974.39,344.65 L974.39,344.75 L974.41,345.91 L974.41,345.91 L974.41,346.46 L974.41,346.57 L974.38,347.0 L974.36,348.67 L974.38,349.26 L974.39,351.54 L974.39,353.36 L974.4,354.02 L974.39,354.07 L974.41,354.46 L974.4,355.1 L974.41,356.97 L974.42,359.11 L974.43,360.23 L974.43,360.26 L974.44,360.68 L974.45,360.79 L974.46,362.75 L974.44,363.54 L974.46,365.16 L974.46,365.25 L974.46,365.25 L974.48,366.41 L974.51,366.46 L974.51,368.98 L974.53,375.75 L974.55,375.88 L974.56,376.59 L974.56,376.71 L974.56,376.96 L974.57,380.72 L974.58,380.83 L974.57,382.12 L974.58,383.06 L974.68,396.37 L974.68,396.63 L974.7,398.31 L974.73,399.66 L974.75,400.05 L974.83,404.68 L974.88,406.95 L974.86,408.58 L974.81,411.23 L974.82,411.46 L974.82,411.62 L974.76,416.05 L974.75,416.07 L974.64,438.83 L974.63,440.48 L974.61,443.72 L974.59,448.0 L974.59,448.91 L974.59,449.05 L974.6,453.26 L974.6,453.5 L974.61,453.7 L974.61,454.05 L974.61,454.13 L974.6,454.29 L974.61,467.82 L974.61,468.74 L974.59,468.95 L974.59,470.11 L974.6,470.62 L974.6,470.92 L974.61,471.93 L974.61,472.19 L974.57,479.81 L974.57,480.39 L974.57,480.4 L974.58,496.89 L974.58,497.14 L974.58,497.21 L974.57,497.8 L974.58,498.21 L974.59,503.53 L974.59,503.53 L974.59,511.48 L974.58,527.23 L974.58,528.6 L974.56,532.11 L974.48,554.27 L974.58,558.6 L974.69,563.61 L974.69,563.61 L974.69,564.4 L974.71,564.68 L974.86,589.24 L974.88,589.81 L974.87,590.73 L974.92,593.56 L974.91,593.82 L974.87,594.55 L974.98,602.25 L975.0,603.77 L974.99,606.06 L974.98,606.8 L974.99,616.54 L975.0,633.38 L973.61,633.58 L940.98,633.5 L940.96,633.5 L925.66,633.47 L925.55,633.49 L918.06,633.45 L917.65,633.44 L897.62,633.34 L897.54,633.35 L897.07,633.35 L896.03,633.35 L893.01,633.35 L831.98,633.34 L826.37,633.55 L825.64,633.88 L818.0,633.88 L799.11,633.87 L749.66,633.7 L749.33,633.7 L734.48,633.63 L730.24,633.37 L692.78,633.3 L692.69,633.31 L668.75,633.3 L651.81,633.3 L642.03,633.42 L616.98,633.33 L615.99,633.34 L612.6,633.34 L577.72,633.41 L576.08,633.41 L574.46,632.91 L561.81,632.95 L561.34,632.96 L519.47,633.2 L501.52,633.09 L501.46,633.09 L494.83,633.07 L486.03,633.68 L460.26,633.97 L459.84,633.99 L447.75,633.98 L444.15,633.54 L434.26,633.21 L420.93,633.27 Z" fill="black" fill-rule="evenodd"/>
</svg>
