<?xml version="1.0"?><svg xmlns="http://www.w3.org/2000/svg" viewBox="0 0 1000 1000"><path d="M504.4,839.89 L488.41,839.91 L475.52,839.93 L472.56,839.98 L471.74,839.98 L454.87,840.02 L444.84,840.02 L442.15,840.02 L439.52,840.05 L415.32,840.14 L415.17,840.14 L411.73,840.14 L410.57,840.13 L410.05,840.14 L409.98,840.14 L407.53,847.17 L407.31,848.35 L405.47,862.15 L405.79,862.83 L406.41,863.37 L407.54,864.37 L408.92,864.4 L409.02,864.46 L415.05,869.58 L415.58,869.69 L418.42,870.88 L418.52,871.0 L418.93,871.34 L418.93,871.33 L419.92,871.89 L420.0,872.06 L420.03,872.13 L420.09,872.28 L420.36,872.94 L420.36,872.95 L420.45,872.94 L420.75,872.91 L421.16,873.16 L421.19,873.28 L421.21,873.38 L421.15,873.72 L421.06,874.12 L421.06,874.2 L386.19,874.23 L386.19,874.2 L348.02,874.23 L347.29,874.24 L346.92,874.23 L346.92,874.26 L300.39,874.22 L280.69,874.25 L280.65,874.25 L157.2,874.25 L157.18,918.82 L157.17,918.83 L157.17,944.96 L56.25,945.13 L54.69,945.13 L25.0,945.1 L25.03,918.87 L25.04,918.87 L25.13,872.21 L25.2,869.98 L25.2,862.03 L25.23,860.55 L25.23,838.11 L25.21,835.83 L25.27,827.05 L25.28,826.26 L25.33,773.28 L25.38,733.23 L25.38,732.45 L25.38,731.88 L25.38,731.33 L25.46,718.12 L25.46,718.12 L25.4,672.43 L25.41,672.28 L25.49,668.74 L25.48,668.59 L25.46,661.57 L25.46,661.51 L25.44,650.36 L25.51,625.81 L25.49,625.76 L25.47,625.18 L25.5,624.65 L25.54,560.94 L25.61,444.05 L25.61,444.03 L25.61,435.11 L25.66,375.36 L25.62,341.6 L25.56,283.22 L25.56,283.2 L25.59,272.55 L25.59,272.19 L25.63,230.84 L25.63,229.44 L25.63,223.6 L25.63,223.6 L25.64,211.59 L25.72,74.58 L25.73,74.52 L25.75,59.77 L25.75,59.67 L25.76,55.03 L39.32,55.05 L40.02,55.05 L92.5,54.99 L92.6,55.0 L130.37,54.97 L139.56,54.96 L139.6,54.96 L144.63,54.96 L144.68,54.95 L271.34,54.89 L280.89,54.88 L280.9,54.88 L346.92,54.88 L367.46,56.07 L397.96,55.96 L400.2,55.94 L405.33,55.96 L405.34,55.95 L407.15,55.98 L407.14,55.99 L429.28,55.91 L465.02,55.78 L465.18,55.78 L503.04,55.61 L504.48,55.6 L504.69,55.6 L548.31,55.53 L548.62,55.53 L556.75,55.53 L562.6,55.56 L577.29,55.53 L580.66,55.55 L581.23,55.53 L588.09,55.51 L590.91,55.51 L591.66,55.51 L595.3,55.53 L626.51,55.64 L636.81,55.61 L642.18,55.6 L661.07,55.94 L703.24,55.91 L703.25,55.91 L817.0,55.47 L859.96,55.19 L860.13,55.19 L961.78,54.9 L974.96,54.87 L974.96,68.77 L975.0,69.09 L974.96,98.95 L974.91,105.9 L974.95,115.01 L974.96,117.29 L974.91,129.24 L974.93,133.36 L968.76,136.79 L968.75,161.97 L968.76,162.08 L968.9,203.28 L968.81,252.91 L968.78,271.25 L968.63,335.75 L968.65,340.26 L968.65,340.26 L968.65,340.32 L968.66,340.46 L968.65,340.98 L968.62,344.01 L968.6,346.3 L968.62,346.61 L968.63,347.73 L968.63,376.24 L968.63,384.81 L968.59,392.55 L968.59,401.67 L968.59,408.71 L968.58,420.68 L968.54,428.75 L968.46,453.43 L968.46,453.89 L968.46,453.9 L968.46,454.53 L968.47,462.42 L968.46,463.17 L968.46,463.73 L968.46,464.26 L968.46,464.78 L968.46,465.05 L968.46,465.64 L968.46,465.68 L968.45,465.86 L968.41,466.27 L968.41,466.47 L968.41,466.49 L968.4,476.98 L968.4,476.98 L968.41,478.58 L968.44,480.64 L968.45,485.75 L968.46,512.29 L968.47,513.64 L968.45,516.2 L968.44,518.25 L968.43,519.27 L968.44,519.46 L968.43,519.58 L968.44,520.25 L968.47,520.97 L968.47,523.28 L968.46,525.54 L968.41,530.09 L968.26,534.65 L968.13,540.82 L968.14,541.57 L967.94,549.62 L967.87,553.65 L967.6,565.96 L967.43,572.92 L967.37,577.56 L967.28,579.8 L967.21,581.01 L967.24,582.35 L967.19,584.3 L967.04,593.55 L966.41,622.17 L966.41,622.17 L966.28,631.43 L966.22,633.67 L965.87,648.75 L965.27,676.58 L965.26,677.1 L965.18,681.56 L965.16,683.2 L965.15,688.78 L965.15,689.61 L965.17,698.89 L965.15,702.13 L965.12,703.86 L965.13,705.53 L965.11,705.6 L965.12,706.84 L965.15,710.12 L965.15,710.27 L965.14,717.02 L965.15,717.17 L965.13,718.16 L965.13,726.12 L965.13,728.94 L965.13,731.75 L965.12,733.03 L965.16,738.72 L965.13,742.16 L965.14,745.72 L965.13,745.95 L965.14,747.9 L965.15,758.23 L965.19,817.48 L965.2,820.93 L965.2,826.58 L965.19,840.17 L961.82,840.18 L961.38,840.18 L941.44,840.17 L933.27,840.18 L933.26,840.2 L932.84,840.2 L931.56,840.19 L924.02,840.2 L861.77,840.22 L821.35,840.24 L814.38,840.25 L734.71,840.24 L734.68,840.21 L717.56,840.19 L717.15,840.19 L685.07,840.18 L674.0,840.18 L649.06,840.16 L648.81,840.17 L642.62,840.18 L640.52,840.17 L640.28,840.17 L637.87,840.18 L637.55,840.18 L636.97,840.18 L599.84,840.16 L594.08,840.16 L593.84,840.16 L593.73,840.16 L521.97,839.95 L519.7,839.93 L504.4,839.89 Z" fill="black" fill-rule="evenodd"/></svg>