<?xml version="1.0" encoding="UTF-8"?>
<svg xmlns="http://www.w3.org/2000/svg" viewBox="0 0 1000 1000">
  <path d="M774.84,415.94 L796.32,415.84 L799.17,416.31 L799.21,416.31 L799.32,416.32 L823.51,416.31 L823.63,416.32 L828.25,416.32 L845.21,416.33 L859.98,416.33 L861.72,416.33 L869.47,416.29 L874.75,416.21 L874.89,416.21 L875.49,416.2 L904.06,416.13 L909.6,416.11 L911.42,416.11 L911.53,416.11 L911.77,416.11 L911.96,416.1 L913.14,416.1 L913.19,416.11 L915.61,416.17 L916.46,416.2 L916.84,416.22 L917.2,416.23 L919.75,416.23 L919.99,416.22 L920.26,416.22 L943.5,416.28 L944.76,413.86 L955.28,414.08 L975.0,414.34 L971.64,416.95 L969.18,422.25 L968.3,422.64 L969.12,424.94 L969.17,425.06 L969.22,425.2 L969.24,425.35 L969.42,425.68 L969.42,425.78 L969.47,426.07 L969.4,426.16 L969.19,426.51 L969.15,426.56 L969.18,426.83 L969.37,426.91 L969.48,427.03 L969.52,427.33 L969.63,427.53 L969.47,428.28 L967.52,431.72 L967.61,431.98 L966.88,438.95 L966.33,444.11 L965.78,444.02 L963.93,444.44 L962.06,444.3 L959.34,443.24 L958.9,441.91 L958.12,442.17 L952.18,444.45 L946.35,448.32 L945.26,449.95 L943.63,452.39 L940.65,456.42 L933.36,467.16 L927.49,469.85 L927.45,469.85 L922.34,469.99 L921.95,469.77 L921.15,468.33 L921.3,467.31 L920.05,465.04 L913.11,464.0 L911.93,464.23 L910.53,465.9 L910.46,466.0 L910.35,466.09 L910.21,466.18 L900.62,468.35 L900.18,468.56 L898.07,468.73 L896.7,469.31 L896.08,469.63 L895.55,469.77 L895.09,469.86 L891.38,472.29 L890.56,473.45 L885.51,480.64 L882.83,482.36 L882.82,482.37 L880.8,483.81 L880.67,483.91 L880.07,484.11 L875.14,486.41 L870.83,485.28 L869.25,484.38 L868.83,481.41 L870.17,477.07 L868.38,475.24 L866.94,474.23 L866.41,474.22 L861.32,476.38 L857.83,478.78 L853.54,480.97 L850.89,484.2 L845.25,488.79 L842.79,487.02 L840.42,486.63 L837.75,487.46 L837.75,487.46 L836.12,489.76 L837.8,494.46 L835.57,498.39 L830.69,503.91 L830.55,504.02 L828.37,505.78 L827.08,506.32 L815.63,506.14 L815.61,506.13 L815.62,506.14 L808.53,507.76 L800.22,511.4 L799.06,512.15 L798.6,512.7 L799.12,513.31 L798.74,514.8 L794.03,518.97 L786.38,521.06 L777.73,524.01 L774.08,527.13 L774.14,527.58 L773.91,527.87 L773.37,528.79 L771.97,529.36 L756.38,529.02 L753.92,528.69 L752.46,528.56 L743.61,529.3 L730.11,534.21 L724.21,539.29 L722.14,540.57 L722.12,540.59 L721.23,540.2 L721.22,540.25 L721.23,540.35 L721.19,540.71 L716.96,544.47 L716.71,544.76 L714.24,552.29 L713.08,552.63 L712.84,552.74 L712.78,552.9 L713.4,555.29 L713.39,555.43 L714.61,558.05 L714.38,558.67 L713.77,559.18 L710.84,561.69 L706.26,563.97 L704.34,563.71 L704.31,563.64 L703.67,563.62 L703.26,563.7 L694.71,563.05 L693.73,561.92 L692.42,561.59 L691.97,561.73 L685.13,566.36 L684.9,568.44 L683.13,580.88 L683.12,580.93 L681.66,592.37 L673.75,592.41 L673.65,592.41 L661.13,592.41 L661.04,592.42 L648.8,592.38 L637.18,592.42 L636.79,592.41 L631.87,592.44 L628.33,592.46 L628.22,592.46 L628.08,592.46 L628.05,592.46 L627.33,592.44 L626.98,592.43 L626.59,592.45 L625.74,592.42 L622.86,592.45 L622.5,592.44 L613.95,592.43 L613.39,592.43 L612.16,592.44 L609.82,592.45 L609.5,592.46 L602.35,592.54 L602.34,592.54 L587.49,592.63 L586.91,592.64 L583.54,592.67 L583.4,592.67 L583.11,592.68 L582.96,592.69 L582.03,592.69 L581.46,592.69 L579.33,592.73 L578.23,592.74 L577.04,592.75 L576.85,592.75 L575.0,592.78 L574.23,592.8 L573.8,592.8 L573.49,592.81 L567.38,592.92 L555.26,592.86 L540.93,592.78 L516.89,592.4 L516.41,592.4 L512.55,592.38 L463.5,592.08 L462.67,592.07 L454.07,592.02 L450.04,592.08 L446.33,592.12 L439.68,592.12 L436.67,592.09 L434.99,592.09 L433.04,592.07 L431.83,592.06 L427.31,592.01 L425.3,592.0 L424.06,591.98 L423.68,591.98 L423.42,591.97 L423.32,591.97 L411.7,591.99 L411.69,591.99 L407.64,592.0 L405.92,592.0 L405.91,592.0 L404.8,591.99 L404.44,591.99 L403.09,591.98 L391.57,591.72 L391.23,591.7 L390.97,591.69 L390.77,591.7 L387.97,591.64 L386.74,591.63 L364.86,591.21 L364.21,591.19 L363.4,591.18 L362.69,591.16 L358.36,591.06 L355.16,591.0 L349.67,590.92 L348.57,590.9 L346.18,590.87 L345.06,590.84 L342.2,590.81 L341.74,590.81 L340.97,590.79 L321.51,590.73 L315.14,590.72 L314.34,590.71 L311.55,590.68 L311.14,590.66 L310.95,590.67 L310.16,590.65 L304.75,590.58 L303.79,590.58 L303.13,590.56 L294.55,590.48 L294.38,590.49 L294.37,590.49 L292.27,590.49 L291.71,590.5 L291.69,590.5 L279.96,590.42 L258.3,590.26 L256.37,591.58 L250.47,591.59 L250.0,591.6 L238.44,591.58 L236.58,591.58 L226.79,591.53 L226.78,591.54 L192.04,591.62 L188.05,591.63 L166.77,591.69 L153.4,591.72 L153.39,591.73 L146.9,591.71 L129.97,591.71 L114.5,591.72 L112.59,591.68 L97.99,591.62 L89.21,591.68 L81.44,591.73 L75.6,591.74 L71.77,591.73 L70.67,591.72 L25.06,591.57 L25.0,590.03 L26.57,586.7 L37.72,584.34 L39.84,578.31 L41.43,576.97 L43.32,576.29 L46.99,578.06 L47.95,578.3 L49.05,578.13 L49.83,577.76 L51.81,576.0 L51.9,575.68 L50.94,567.96 L50.84,567.16 L50.49,566.37 L48.24,563.69 L47.46,563.22 L46.21,563.05 L43.59,563.43 L42.3,563.03 L41.56,562.31 L40.71,560.99 L40.46,560.18 L41.02,558.63 L41.56,558.13 L42.16,557.92 L46.38,557.78 L49.48,550.53 L49.15,549.45 L48.72,547.97 L44.12,549.8 L43.23,550.01 L40.75,550.01 L39.42,549.2 L39.32,548.86 L40.45,544.84 L42.27,543.2 L47.17,538.8 L50.82,539.28 L51.07,539.48 L51.55,539.97 L52.5,540.89 L53.75,540.74 L55.25,539.69 L55.15,538.39 L54.62,531.0 L55.37,530.41 L55.84,530.21 L57.08,530.13 L63.66,533.12 L66.27,532.62 L68.87,532.11 L71.6,519.26 L70.99,519.56 L69.27,519.7 L67.45,519.24 L65.85,518.1 L63.83,515.37 L63.49,511.72 L63.78,510.68 L64.43,510.12 L68.85,507.82 L69.34,507.86 L71.15,508.79 L73.72,509.23 L78.59,508.12 L91.46,501.15 L91.77,500.28 L91.56,499.63 L90.86,499.1 L88.64,498.15 L86.46,497.56 L84.27,496.62 L83.93,496.23 L83.81,495.51 L84.01,494.63 L84.68,493.36 L85.74,492.75 L88.19,491.89 L90.24,491.72 L93.18,492.74 L93.2,491.82 L93.31,487.17 L89.69,484.22 L88.25,481.37 L91.12,481.33 L92.94,478.72 L93.28,477.71 L93.59,475.77 L100.19,469.53 L102.63,468.34 L103.5,467.49 L103.77,465.64 L103.46,464.39 L102.08,462.67 L100.85,461.7 L99.62,461.11 L91.9,454.2 L92.83,453.8 L94.29,454.21 L102.59,455.33 L103.99,455.22 L109.25,454.26 L110.0,453.74 L109.92,451.77 L109.48,451.02 L108.9,450.68 L107.86,450.98 L105.21,449.82 L101.55,447.54 L100.63,446.02 L100.68,445.3 L101.11,444.58 L101.67,444.11 L102.23,443.91 L104.86,443.9 L107.18,444.4 L108.88,444.5 L110.32,444.24 L111.73,443.21 L112.37,441.97 L112.76,440.31 L111.67,429.3 L111.33,428.66 L109.53,426.81 L114.03,426.84 L114.63,426.85 L115.45,426.86 L114.53,428.94 L114.56,429.88 L115.32,430.82 L116.91,431.32 L118.15,431.2 L119.46,430.51 L121.56,428.6 L122.88,426.71 L124.35,426.7 L126.78,426.6 L126.96,426.56 L129.54,426.37 L130.69,426.26 L130.69,426.26 L137.69,425.86 L138.04,425.89 L145.46,425.99 L150.72,426.11 L150.74,426.11 L155.51,426.21 L155.75,426.21 L158.76,426.24 L160.74,426.25 L162.19,426.26 L164.84,426.28 L167.5,426.31 L167.9,426.31 L168.64,426.32 L172.54,426.37 L182.38,426.34 L186.75,426.29 L186.78,426.29 L187.58,426.3 L187.61,426.3 L188.74,426.3 L190.62,426.31 L196.33,426.3 L199.87,426.32 L205.8,426.36 L215.0,426.4 L218.52,426.41 L221.67,426.45 L221.68,426.45 L222.13,426.44 L222.17,426.45 L224.66,426.49 L224.67,426.49 L226.48,426.5 L228.68,426.51 L228.94,426.49 L232.65,426.53 L242.03,426.55 L242.57,426.56 L243.13,426.56 L272.46,426.92 L272.47,426.92 L273.98,425.47 L274.16,425.09 L274.74,422.15 L274.4,419.84 L273.36,415.32 L272.21,411.73 L270.83,409.09 L270.57,407.08 L277.01,407.2 L294.8,408.66 L294.4,412.0 L311.84,411.6 L317.66,411.47 L317.66,411.47 L326.02,411.35 L326.22,411.35 L340.1,411.17 L341.36,411.14 L342.53,411.14 L349.83,411.1 L350.23,411.09 L351.12,411.09 L357.1,411.06 L357.44,411.07 L360.81,411.05 L362.63,411.05 L362.69,411.05 L375.36,410.99 L375.36,410.99 L381.3,410.88 L398.21,410.57 L398.27,410.56 L403.95,410.5 L406.26,410.46 L407.88,410.42 L408.13,410.41 L408.47,410.42 L413.93,410.28 L414.41,410.27 L431.13,409.93 L431.28,409.93 L435.75,411.97 L435.76,411.97 L445.71,409.98 L445.71,409.98 L445.85,409.97 L446.25,409.96 L452.52,410.1 L461.11,410.29 L473.27,411.16 L473.61,411.17 L473.9,411.19 L473.92,411.2 L475.1,411.28 L475.16,411.28 L475.96,411.33 L488.64,411.93 L488.78,411.92 L493.42,412.26 L494.0,412.31 L494.04,412.31 L500.22,412.53 L520.81,413.25 L520.81,413.25 L546.76,413.91 L546.82,413.92 L551.52,413.99 L555.6,413.85 L559.43,413.65 L574.83,412.85 L576.99,412.73 L576.99,412.73 L596.75,413.18 L597.82,413.24 L610.05,414.07 L622.67,414.93 L622.67,414.94 L630.83,415.27 L630.83,415.27 L631.59,415.29 L688.3,416.52 L692.03,416.55 L718.29,416.78 L718.31,416.78 L724.56,416.93 L750.87,417.55 L752.36,416.02 L752.55,415.55 L753.13,415.55 L753.13,415.56 L774.84,415.94 Z" fill="black" fill-rule="evenodd"/>
</svg>
