<?xml version="1.0" encoding="UTF-8"?>
<svg xmlns="http://www.w3.org/2000/svg" viewBox="0 0 1000 1000">
  <path d="M735.52,722.38 L735.73,722.34 L736.49,721.82 L736.94,721.35 L736.9,720.6 L736.47,719.03 L736.22,718.64 L736.04,718.35 L736.34,718.0 L736.5,717.82 L738.28,716.81 L742.55,716.65 L744.67,716.12 L745.13,715.78 L744.75,715.18 L744.71,714.8 L745.9,714.66 L747.67,714.01 L747.8,713.9 L747.62,713.58 L748.44,712.27 L751.62,710.4 L751.61,710.18 L751.36,710.09 L751.44,709.96 L752.71,708.96 L753.57,708.58 L755.59,708.57 L756.04,708.33 L756.39,707.58 L757.35,707.11 L761.17,706.51 L763.0,706.05 L764.23,705.49 L765.33,704.76 L765.6,704.18 L765.45,703.87 L765.77,703.7 L766.47,703.56 L766.61,703.89 L766.86,705.58 L765.71,706.76 L763.87,707.36 L755.99,710.86 L750.64,713.84 L745.33,717.29 L740.73,720.57 L734.1,725.78 L733.82,726.05 L728.34,731.19 L725.58,734.08 L723.09,736.92 L720.9,739.92 L720.16,741.16 L719.9,742.28 L719.86,742.46 L717.0,745.49 L714.76,748.43 L711.1,753.95 L708.55,758.42 L707.1,761.22 L703.17,768.77 L701.11,773.44 L699.51,777.8 L698.0,782.85 L697.78,783.57 L696.84,787.76 L696.29,791.32 L695.85,795.69 L695.7,799.53 L695.75,803.53 L696.31,809.56 L696.74,812.32 L697.71,816.89 L699.04,822.12 L701.39,829.45 L702.31,831.99 L703.24,834.53 L703.66,835.35 L706.52,844.09 L706.97,845.69 L709.08,853.3 L709.71,856.16 L710.63,861.58 L711.48,869.1 L712.0,870.68 L711.48,870.63 L710.87,869.88 L710.73,868.1 L710.17,864.93 L710.23,862.69 L709.85,859.99 L709.09,855.83 L707.61,849.89 L706.73,847.57 L705.77,846.09 L705.73,845.69 L705.56,844.04 L705.23,842.44 L704.76,841.36 L704.15,840.51 L703.15,837.7 L701.99,837.24 L700.66,835.17 L700.85,834.11 L700.81,833.71 L700.2,832.19 L700.1,832.0 L699.63,831.16 L698.64,828.58 L698.8,827.23 L698.11,824.72 L696.86,824.0 L696.33,823.03 L696.29,822.14 L696.54,821.84 L696.78,820.49 L696.75,819.9 L696.44,819.35 L696.33,818.86 L696.48,817.83 L696.14,816.9 L695.09,816.01 L695.38,812.04 L695.23,811.07 L694.79,810.12 L694.94,806.93 L694.88,799.22 L694.92,798.14 L695.17,796.98 L695.09,796.45 L694.87,796.18 L694.9,791.66 L695.81,788.55 L695.64,788.3 L695.15,788.17 L695.47,786.4 L696.0,784.86 L696.12,782.96 L696.15,782.85 L696.57,781.35 L696.75,781.07 L697.09,780.91 L697.26,780.69 L696.92,779.32 L696.59,778.84 L696.95,776.91 L698.06,774.7 L698.82,773.83 L699.18,773.11 L699.29,772.69 L699.2,772.16 L699.27,771.51 L700.18,769.39 L701.89,766.96 L702.67,765.19 L703.87,763.67 L704.49,762.66 L704.21,762.15 L704.3,761.87 L704.91,761.05 L705.22,760.85 L705.23,760.84 L706.01,759.62 L705.71,759.32 L705.6,758.96 L706.41,757.16 L707.1,757.12 L707.3,757.31 L707.67,757.21 L708.63,755.86 L708.88,754.82 L708.86,753.81 L708.44,753.37 L708.46,753.12 L709.41,752.77 L710.82,750.78 L711.14,749.9 L711.5,749.78 L712.05,749.84 L712.51,749.68 L713.7,748.51 L713.91,748.2 L713.93,747.9 L715.7,745.79 L715.77,745.13 L716.02,744.38 L716.46,743.95 L716.48,743.61 L716.02,743.34 L714.05,743.57 L713.74,743.51 L713.44,743.17 L713.59,743.02 L719.08,741.93 L719.14,741.85 L720.06,740.71 L722.2,737.25 L721.89,736.91 L722.0,736.49 L724.22,733.83 L724.79,732.2 L724.73,732.07 L724.58,732.07 L724.21,732.22 L724.16,731.89 L724.77,730.37 L725.53,729.04 L725.6,729.02 L725.72,729.53 L725.91,729.6 L726.63,729.3 L727.04,728.57 L728.09,727.92 L728.53,727.35 L728.3,726.77 L728.48,726.34 L730.01,724.97 L731.1,724.92 L731.44,724.37 L731.29,724.21 L731.23,723.28 L731.39,722.0 L731.94,720.96 L732.26,720.83 L732.56,720.97 L733.01,721.34 L733.55,722.11 L734.4,722.6 L735.52,722.38 Z M505.61,241.25 L505.61,241.26 L505.61,254.74 L505.79,254.67 L508.93,253.46 L509.57,253.38 L511.21,253.72 L513.99,255.72 L514.74,256.44 L514.89,256.8 L515.43,257.46 L516.78,258.76 L520.6,262.47 L522.52,264.17 L527.76,267.95 L530.01,268.29 L533.43,268.16 L536.09,265.17 L536.5,265.05 L540.78,265.34 L541.9,265.68 L543.77,266.52 L545.27,267.19 L546.19,268.25 L548.63,268.36 L549.25,268.13 L552.29,263.32 L559.2,266.12 L562.82,270.88 L562.82,270.9 L562.95,271.82 L562.81,272.62 L562.81,274.19 L564.31,279.78 L566.76,280.34 L569.51,280.75 L573.78,280.54 L580.57,280.8 L581.6,281.2 L583.95,282.12 L588.42,284.31 L595.16,285.5 L599.9,285.52 L602.39,284.39 L603.37,283.71 L604.44,283.62 L606.43,283.71 L607.18,283.74 L608.8,284.57 L610.52,285.69 L614.11,290.14 L616.22,290.72 L619.22,288.41 L621.63,286.55 L621.78,286.07 L622.88,284.67 L624.27,283.99 L627.07,284.43 L628.9,285.63 L629.36,285.74 L636.16,286.92 L638.41,287.11 L642.97,292.94 L644.28,294.99 L644.49,295.15 L647.69,295.86 L649.26,295.83 L651.87,295.27 L654.61,296.12 L654.05,299.99 L652.28,303.37 L652.28,303.37 L653.09,303.95 L659.56,306.25 L660.41,306.31 L662.69,305.71 L666.24,303.31 L669.98,300.0 L672.39,297.4 L672.93,296.57 L673.3,296.36 L674.48,296.01 L675.6,296.15 L679.02,297.7 L680.43,298.75 L680.49,298.87 L679.89,301.34 L679.95,301.64 L680.59,302.46 L681.06,302.61 L682.5,302.78 L682.94,302.83 L683.63,302.61 L685.54,301.65 L686.86,301.21 L687.91,301.4 L688.09,301.5 L689.97,302.52 L690.49,303.26 L690.45,304.74 L690.01,305.89 L689.72,306.29 L689.63,306.86 L689.9,307.38 L690.34,307.82 L690.98,308.16 L692.26,308.48 L696.15,308.48 L700.65,304.63 L706.76,301.57 L707.9,301.47 L709.74,302.59 L710.08,302.98 L711.11,306.46 L711.09,306.96 L710.74,307.33 L710.04,307.61 L709.07,307.63 L708.71,307.91 L708.33,308.52 L708.34,309.9 L710.7,314.42 L711.36,315.01 L711.38,315.03 L712.22,315.5 L713.22,315.79 L714.41,315.89 L715.42,315.61 L716.15,315.12 L716.49,314.73 L719.71,308.59 L722.75,305.4 L724.24,303.61 L725.16,300.05 L727.21,299.08 L727.94,298.74 L728.84,298.32 L729.26,298.45 L729.91,299.01 L730.48,300.19 L730.75,302.9 L731.67,304.96 L732.88,306.03 L733.63,306.44 L740.48,308.12 L744.05,307.59 L744.42,307.32 L744.88,306.93 L745.34,306.26 L745.72,305.42 L746.01,304.61 L746.22,303.87 L746.5,303.16 L746.96,302.67 L747.95,302.63 L748.79,302.98 L749.78,303.41 L750.59,303.65 L751.08,304.01 L751.22,304.21 L751.37,304.43 L751.26,304.98 L751.05,306.02 L751.12,306.9 L751.26,307.43 L759.43,311.88 L763.22,311.26 L764.06,311.34 L765.01,311.6 L768.26,315.21 L768.91,315.92 L773.61,313.81 L779.04,313.64 L779.72,313.7 L781.21,313.36 L782.53,312.9 L783.38,312.12 L783.81,311.03 L784.34,308.92 L784.97,307.15 L788.64,306.44 L799.34,305.72 L806.85,306.91 L808.42,307.15 L812.85,306.41 L813.32,305.01 L824.74,300.15 L827.11,300.27 L827.66,300.45 L828.4,302.06 L828.38,302.54 L828.17,303.04 L828.19,303.48 L828.46,303.89 L828.75,304.08 L835.9,304.9 L838.65,305.08 L843.59,304.9 L845.71,304.7 L847.37,304.55 L849.31,303.53 L849.7,303.21 L850.1,302.49 L850.23,301.74 L850.11,301.02 L849.84,300.48 L849.89,300.2 L851.47,298.26 L851.81,298.14 L852.32,298.17 L856.92,299.44 L858.83,299.97 L863.35,301.38 L863.63,301.62 L863.71,302.37 L865.37,305.49 L877.71,313.81 L881.1,314.77 L885.59,315.18 L886.64,316.92 L887.44,317.77 L892.81,320.02 L902.43,323.23 L902.74,323.25 L905.16,322.54 L905.38,322.32 L905.51,321.65 L906.06,322.88 L906.59,323.96 L907.07,324.48 L911.06,326.69 L914.93,328.51 L922.05,325.66 L922.42,325.4 L927.56,324.88 L934.56,326.17 L935.9,326.65 L937.59,327.85 L937.6,327.91 L937.6,328.58 L937.63,332.15 L937.61,332.29 L937.61,333.8 L937.63,336.3 L937.63,336.65 L937.64,337.43 L937.62,340.51 L937.64,340.99 L937.62,341.89 L937.62,342.37 L937.62,342.71 L937.62,343.94 L937.63,348.23 L937.63,348.23 L937.62,348.98 L937.63,349.76 L937.65,350.37 L937.64,352.3 L937.64,353.21 L937.64,353.41 L937.61,357.5 L937.62,357.88 L937.63,358.19 L937.64,361.18 L937.62,362.14 L937.63,366.51 L937.62,371.12 L937.62,372.41 L937.62,374.43 L937.64,375.23 L937.64,375.68 L937.64,376.53 L937.64,376.54 L937.63,376.57 L937.64,377.22 L937.63,382.59 L937.65,383.35 L937.64,383.47 L937.63,383.82 L937.63,384.08 L937.63,384.73 L937.62,390.16 L937.62,390.16 L937.63,392.91 L937.64,393.76 L937.64,393.99 L937.63,395.31 L937.63,395.59 L937.63,396.17 L937.62,399.5 L937.62,399.85 L937.62,403.17 L937.64,403.79 L937.63,404.68 L937.62,405.14 L937.62,405.3 L937.63,405.59 L937.63,405.76 L937.63,406.13 L937.64,406.24 L937.63,406.31 L937.63,408.52 L937.63,408.84 L937.63,411.37 L937.63,411.42 L937.63,411.97 L937.64,413.35 L937.65,414.06 L937.65,420.86 L937.65,420.87 L937.65,424.6 L937.65,426.21 L937.66,428.32 L937.66,428.32 L937.66,428.96 L937.65,430.42 L937.68,431.73 L937.65,436.36 L937.65,440.47 L939.61,441.88 L942.53,445.96 L945.67,448.13 L946.53,448.5 L948.78,450.8 L949.58,451.71 L952.35,454.88 L954.34,461.07 L954.01,464.23 L953.34,468.35 L952.72,470.43 L952.72,470.43 L953.9,472.7 L955.39,474.21 L960.35,477.56 L962.8,483.25 L964.66,484.86 L966.79,485.92 L964.56,491.21 L966.53,492.84 L968.24,493.27 L968.71,494.02 L969.16,496.42 L969.23,498.09 L969.58,499.76 L969.77,500.14 L969.84,500.27 L970.59,500.93 L971.26,500.8 L973.19,499.48 L973.19,499.48 L973.46,499.41 L974.46,499.48 L974.7,499.83 L975.0,507.54 L974.08,512.35 L974.76,518.41 L973.05,521.82 L973.02,521.88 L972.75,522.41 L972.75,522.45 L972.41,526.1 L971.32,527.29 L960.48,543.83 L959.6,546.39 L961.77,548.73 L962.66,553.27 L962.62,553.65 L962.31,554.28 L959.48,556.23 L958.77,556.72 L958.32,557.14 L957.73,561.29 L959.9,563.74 L960.79,564.07 L961.01,563.99 L961.32,567.74 L961.63,571.37 L962.85,574.75 L962.81,575.61 L961.62,580.57 L960.94,581.69 L960.87,581.77 L958.73,584.27 L958.39,584.43 L956.02,586.34 L952.29,591.66 L948.67,596.83 L948.11,602.02 L948.56,602.48 L952.5,607.89 L951.42,608.96 L950.39,609.16 L948.72,609.1 L945.75,608.69 L940.64,608.56 L936.65,609.3 L931.13,611.11 L915.06,617.26 L913.85,617.72 L904.43,621.33 L897.61,624.04 L894.98,625.24 L892.13,626.74 L890.41,627.83 L889.37,628.75 L888.25,630.18 L887.73,631.21 L886.73,631.2 L885.52,631.73 L884.28,631.76 L884.01,631.56 L883.95,630.73 L885.14,629.44 L886.06,628.9 L888.26,627.04 L889.52,626.3 L890.97,624.15 L891.32,623.79 L891.98,623.4 L892.46,623.28 L893.12,623.31 L893.9,623.62 L895.19,623.46 L896.61,622.92 L897.65,622.29 L897.57,621.16 L897.86,620.71 L898.67,619.88 L899.65,619.4 L900.57,619.57 L901.08,619.95 L902.14,620.43 L903.69,620.29 L904.85,619.9 L904.24,618.58 L903.8,618.63 L903.68,618.6 L902.86,618.4 L902.76,618.38 L902.58,617.9 L902.16,617.48 L901.51,616.82 L901.4,616.71 L901.12,616.49 L900.57,616.36 L899.41,616.48 L899.37,616.5 L899.35,616.52 L898.81,616.84 L897.7,617.27 L896.5,617.59 L895.93,617.74 L895.65,617.81 L895.64,617.81 L895.36,617.89 L891.24,618.83 L890.75,618.94 L890.59,618.98 L888.66,619.28 L887.03,619.84 L885.96,619.92 L885.8,619.93 L885.79,619.93 L885.79,619.93 L885.11,619.87 L885.0,619.86 L884.95,619.83 L884.94,619.83 L884.85,619.79 L884.58,619.67 L884.56,619.66 L884.21,619.5 L884.2,619.5 L884.19,619.5 L884.11,619.46 L883.94,619.16 L883.89,619.06 L883.71,618.74 L883.7,618.72 L883.49,618.34 L883.41,618.21 L884.22,618.13 L884.83,618.2 L885.98,617.16 L887.47,615.62 L889.35,612.64 L890.48,607.62 L890.53,606.95 L890.32,605.54 L888.2,601.79 L887.43,601.02 L887.02,600.9 L884.8,601.85 L883.29,602.32 L881.56,603.1 L879.02,605.66 L878.02,607.55 L877.84,608.75 L877.47,609.3 L875.98,610.02 L874.36,610.36 L873.93,610.25 L873.22,609.11 L873.0,608.76 L872.86,607.74 L872.38,607.37 L870.7,607.19 L870.21,608.31 L869.03,609.23 L867.84,610.16 L867.82,610.19 L867.76,610.27 L867.67,610.41 L867.43,610.78 L867.38,610.85 L867.3,611.05 L867.23,611.25 L867.09,611.6 L867.1,611.62 L867.24,612.3 L867.25,612.35 L867.38,612.45 L868.17,613.06 L868.19,613.08 L868.27,613.14 L868.29,613.16 L869.03,613.73 L869.33,614.15 L869.46,614.34 L869.48,614.37 L869.47,614.38 L869.47,614.39 L869.03,615.11 L867.67,616.33 L867.06,617.41 L867.04,617.44 L867.02,617.48 L867.02,617.48 L866.9,617.74 L866.91,617.76 L866.91,617.76 L867.0,618.21 L867.13,618.82 L867.26,618.97 L868.26,620.19 L869.54,620.91 L871.24,621.35 L872.95,621.64 L873.05,621.66 L873.08,621.66 L874.76,621.94 L874.79,621.95 L874.51,622.64 L873.6,623.96 L873.24,625.31 L874.07,625.49 L876.15,626.54 L876.4,627.87 L876.46,631.41 L875.9,633.46 L875.91,635.63 L876.46,636.38 L877.22,636.73 L878.01,636.66 L879.12,636.41 L880.92,635.78 L881.1,634.63 L881.11,633.01 L881.96,632.35 L883.83,633.64 L884.18,633.69 L884.39,633.55 L886.68,633.74 L886.72,633.58 L887.71,633.46 L888.35,633.94 L887.73,633.91 L884.93,635.86 L883.74,636.89 L882.46,637.73 L866.33,647.24 L862.3,649.91 L860.22,651.58 L859.58,652.33 L859.34,652.61 L859.15,653.09 L854.35,656.3 L850.9,658.8 L848.48,660.76 L846.68,662.76 L845.77,663.18 L842.6,665.36 L840.89,666.96 L840.5,667.67 L838.05,668.17 L836.35,668.2 L832.93,669.85 L831.46,670.68 L827.03,673.2 L809.31,682.27 L804.12,684.58 L795.66,687.84 L790.06,690.13 L781.61,694.07 L779.73,694.82 L777.96,696.04 L776.1,697.0 L773.72,698.45 L772.39,699.66 L771.86,699.77 L770.94,700.23 L768.8,701.66 L768.73,701.93 L768.83,702.38 L768.25,702.65 L768.2,702.5 L768.02,701.97 L768.45,701.36 L768.58,701.18 L771.41,698.75 L776.25,695.83 L779.48,694.59 L779.83,694.21 L780.11,693.53 L785.16,690.99 L788.11,689.92 L792.36,687.93 L793.32,687.78 L795.16,687.0 L796.71,686.52 L797.01,685.93 L796.75,685.45 L796.93,683.94 L797.27,683.31 L796.72,682.96 L795.97,682.72 L795.5,682.91 L795.24,683.5 L793.28,683.17 L792.25,683.42 L790.48,684.42 L788.52,685.2 L784.94,686.16 L782.14,687.45 L781.32,687.93 L779.63,688.41 L779.11,688.37 L778.74,687.23 L778.74,686.86 L779.59,686.45 L780.18,686.01 L780.29,685.34 L778.96,683.98 L780.59,682.47 L780.14,682.24 L781.77,680.62 L781.84,680.14 L781.51,679.81 L781.03,679.66 L779.55,679.84 L778.92,679.99 L777.08,680.84 L776.6,680.92 L776.23,680.55 L774.83,680.95 L773.65,681.8 L773.57,682.61 L773.68,683.72 L772.29,683.95 L771.88,684.02 L768.63,685.05 L768.41,685.53 L767.82,685.82 L761.36,688.92 L760.32,689.18 L760.69,688.41 L760.88,687.23 L760.47,686.41 L760.14,686.19 L758.66,685.9 L758.7,685.71 L759.62,685.16 L759.7,684.75 L759.48,684.38 L759.0,684.2 L756.15,683.68 L755.45,683.65 L754.86,683.76 L754.16,682.06 L754.35,681.62 L755.16,680.66 L755.12,680.36 L755.01,679.99 L754.6,679.88 L754.0,679.53 L753.81,679.41 L753.79,679.4 L753.67,678.84 L753.67,678.83 L753.61,678.52 L753.35,678.08 L753.35,678.07 L753.34,678.07 L752.8,677.93 L752.65,677.89 L751.84,678.12 L749.7,678.73 L749.67,678.74 L748.87,678.97 L748.66,679.03 L748.17,679.43 L747.52,679.96 L748.0,680.62 L749.66,681.99 L749.73,683.02 L750.18,683.35 L750.51,683.39 L751.06,683.76 L751.43,684.16 L751.43,684.35 L750.77,684.97 L750.54,685.38 L751.39,688.0 L751.61,688.19 L754.09,688.11 L754.71,688.26 L754.79,688.7 L755.01,689.11 L756.82,689.92 L757.56,690.03 L757.85,690.29 L758.41,691.69 L759.03,692.36 L763.06,694.9 L765.27,696.6 L765.93,697.19 L766.52,697.93 L766.41,698.41 L762.24,699.92 L760.77,700.92 L759.11,701.66 L757.96,701.91 L756.34,702.54 L755.12,703.1 L754.35,703.76 L752.8,704.57 L752.17,704.79 L748.51,705.35 L746.93,706.16 L745.78,705.31 L745.34,705.31 L745.08,705.64 L744.57,705.2 L744.94,703.69 L744.53,701.47 L744.2,700.99 L743.31,700.84 L741.39,700.84 L740.43,700.62 L740.09,700.71 L739.99,700.73 L739.71,700.9 L739.44,701.07 L739.09,701.6 L738.4,702.65 L738.09,703.97 L738.07,704.05 L738.07,704.05 L738.07,704.06 L738.07,704.06 L738.1,705.05 L738.11,705.16 L738.13,705.31 L738.14,705.36 L738.14,705.41 L738.15,705.44 L738.24,706.08 L738.37,707.01 L738.34,707.35 L738.29,707.86 L737.26,708.96 L737.0,709.44 L737.26,710.03 L737.75,710.72 L738.62,711.95 L738.62,712.36 L737.66,714.24 L736.97,714.75 L734.64,716.45 L732.42,717.71 L730.58,719.41 L729.69,719.81 L727.92,721.51 L725.89,721.55 L723.16,720.51 L722.64,720.63 L721.21,721.47 L721.09,721.99 L721.54,722.69 L721.46,722.99 L720.87,723.69 L720.61,724.35 L720.61,725.13 L720.91,726.6 L721.32,727.45 L720.95,728.08 L720.25,728.41 L719.66,728.89 L718.7,730.77 L717.7,731.44 L714.38,736.05 L713.82,736.31 L713.42,737.57 L713.34,737.79 L713.28,737.82 L712.72,738.15 L711.94,739.15 L709.89,742.59 L709.8,742.73 L709.65,743.15 L709.64,743.18 L709.62,743.25 L709.49,743.27 L709.2,743.33 L709.14,743.35 L708.92,743.4 L708.03,743.4 L707.99,743.4 L707.87,743.37 L707.26,743.26 L707.18,743.25 L707.08,743.21 L707.02,743.19 L706.86,743.13 L706.84,743.1 L706.82,743.06 L706.8,743.03 L706.71,742.88 L706.71,742.75 L706.71,742.73 L706.71,742.61 L706.71,742.61 L706.76,742.22 L706.63,741.83 L706.18,741.44 L705.7,740.81 L705.69,740.72 L705.59,740.3 L705.57,740.27 L705.0,739.48 L704.6,739.35 L704.46,739.3 L704.12,739.19 L703.45,739.09 L703.34,739.08 L703.13,739.11 L702.49,739.22 L701.79,739.34 L701.33,739.49 L700.14,739.9 L699.62,740.07 L699.44,740.18 L697.48,741.4 L697.07,741.33 L697.04,741.35 L696.99,741.38 L695.7,742.25 L694.78,743.99 L694.67,746.24 L695.19,747.42 L696.48,749.23 L698.03,750.41 L700.24,751.33 L704.77,752.49 L704.34,753.73 L703.9,753.8 L701.68,758.49 L701.53,759.15 L701.61,759.6 L701.87,759.93 L701.28,760.52 L699.87,761.59 L699.61,762.33 L698.77,764.76 L698.29,765.46 L697.99,766.53 L697.77,768.31 L697.14,769.78 L696.66,770.34 L696.22,772.18 L696.37,773.1 L696.15,773.92 L695.67,774.73 L694.23,778.01 L694.04,778.68 L693.82,779.08 L693.23,779.71 L692.71,780.01 L691.98,780.26 L690.5,780.26 L688.18,781.41 L686.33,783.07 L684.6,782.81 L683.71,782.4 L683.53,781.92 L684.26,782.04 L685.0,781.85 L685.15,781.41 L685.67,780.89 L686.59,780.89 L687.07,780.63 L686.74,779.64 L686.99,779.23 L688.1,778.46 L688.1,777.53 L687.88,776.98 L686.81,776.43 L685.89,776.79 L685.44,777.42 L684.15,778.68 L681.79,780.12 L680.83,780.56 L679.02,782.33 L678.1,782.18 L677.4,782.26 L677.03,782.55 L677.02,782.58 L676.77,783.36 L676.85,784.66 L677.14,785.1 L677.58,785.39 L679.87,785.43 L680.94,785.58 L681.57,785.69 L682.49,786.13 L683.82,786.39 L685.48,786.24 L686.22,785.95 L686.7,785.61 L686.92,785.28 L688.01,784.82 L689.32,784.62 L689.95,784.19 L690.54,783.97 L692.44,783.86 L692.57,784.32 L691.66,788.35 L690.92,792.52 L691.02,794.58 L690.39,794.66 L690.13,795.01 L690.08,795.78 L689.71,796.08 L688.71,795.87 L688.34,795.58 L687.55,795.67 L687.23,796.19 L687.42,797.35 L688.56,798.22 L688.45,798.46 L688.22,798.52 L687.88,798.83 L687.82,799.12 L687.9,800.49 L688.56,800.65 L688.82,800.89 L688.86,801.35 L688.49,803.07 L688.34,803.18 L688.08,802.98 L684.26,803.03 L683.36,803.31 L682.92,803.72 L683.23,804.4 L683.34,805.53 L683.14,806.48 L682.92,806.84 L682.92,807.44 L683.97,809.81 L684.02,810.19 L683.45,810.62 L683.14,811.1 L683.14,812.61 L682.69,812.85 L682.34,814.46 L683.12,815.49 L683.47,815.73 L684.21,815.71 L686.22,817.26 L688.06,820.16 L688.53,820.62 L688.99,820.51 L689.21,821.8 L689.3,824.03 L690.92,829.59 L690.87,831.34 L691.2,832.03 L692.14,834.02 L692.95,835.38 L692.57,837.8 L692.31,838.06 L691.96,838.8 L691.96,839.66 L692.27,840.4 L692.07,840.86 L691.61,841.43 L691.18,841.69 L691.18,842.5 L691.46,842.91 L692.31,843.19 L692.66,843.13 L692.94,842.91 L693.34,843.09 L693.25,844.13 L692.6,845.27 L692.77,845.57 L693.75,845.86 L694.32,845.73 L694.6,845.47 L694.54,845.27 L695.45,845.7 L695.8,845.86 L696.39,846.91 L696.04,847.91 L694.98,849.0 L694.76,850.92 L694.84,851.44 L695.06,851.56 L695.91,851.14 L696.2,850.88 L696.4,850.25 L697.22,849.68 L698.29,849.48 L698.88,849.74 L699.23,850.11 L698.77,851.47 L697.6,852.43 L697.49,852.76 L698.03,852.95 L697.99,854.3 L698.25,856.14 L698.45,856.27 L699.12,856.27 L699.78,855.81 L700.58,855.68 L700.93,857.17 L700.85,857.47 L699.89,858.41 L699.89,858.95 L701.11,860.85 L701.68,860.98 L701.81,861.58 L701.72,862.3 L700.94,863.96 L701.68,865.2 L702.5,866.22 L702.73,866.81 L702.66,866.99 L701.87,867.27 L701.79,867.67 L702.9,868.85 L703.55,869.26 L705.28,869.7 L708.1,869.76 L708.71,869.94 L709.04,872.49 L708.33,873.34 L707.61,873.3 L706.89,873.54 L706.79,873.76 L707.29,875.81 L707.46,875.98 L708.07,876.12 L708.99,876.03 L710.54,875.52 L711.07,875.02 L711.39,874.47 L711.4,873.83 L710.71,872.29 L710.24,872.23 L709.94,871.68 L711.23,870.9 L712.17,871.03 L712.08,872.71 L712.17,874.25 L712.63,877.62 L710.67,878.22 L706.66,878.51 L703.51,879.02 L697.93,880.52 L696.91,881.64 L696.57,882.56 L696.6,883.86 L693.58,885.94 L687.16,884.23 L686.12,883.69 L680.94,880.04 L674.74,873.9 L674.49,873.07 L660.6,871.09 L658.74,870.82 L650.07,871.1 L649.81,871.43 L647.44,872.36 L641.06,871.36 L633.15,870.12 L631.49,869.33 L622.63,864.08 L618.85,860.15 L616.87,859.34 L608.19,856.86 L608.13,856.86 L605.47,856.71 L604.78,857.38 L599.5,855.41 L596.2,851.5 L592.13,848.74 L591.04,848.63 L588.21,848.99 L574.7,846.02 L570.49,843.71 L565.97,835.08 L565.68,834.13 L563.0,825.53 L560.57,818.37 L558.68,814.38 L554.82,809.77 L550.66,807.76 L545.77,801.34 L545.35,798.47 L545.45,798.17 L545.77,797.89 L546.98,796.17 L547.24,790.23 L546.13,784.89 L545.35,783.86 L545.24,783.82 L544.56,783.55 L544.01,783.76 L542.28,782.88 L539.75,780.82 L539.25,780.35 L539.16,780.09 L541.39,777.17 L542.42,774.69 L542.79,773.29 L543.33,767.78 L540.49,761.42 L538.88,759.08 L534.6,756.51 L532.94,756.3 L532.74,756.42 L532.68,756.72 L529.84,756.72 L516.99,746.84 L514.62,744.54 L512.78,740.34 L512.57,739.54 L513.19,737.44 L511.29,736.14 L506.26,730.89 L501.5,723.56 L499.77,720.54 L499.59,720.05 L499.24,719.8 L495.18,718.29 L493.21,717.71 L490.96,716.68 L490.45,716.22 L486.94,713.06 L484.51,710.52 L480.47,700.96 L481.43,694.29 L481.09,694.1 L477.57,693.22 L476.26,691.64 L474.46,687.24 L473.25,686.35 L469.35,682.49 L468.65,680.4 L468.51,679.34 L468.89,678.52 L468.83,676.79 L466.81,672.1 L465.98,670.64 L462.86,668.01 L459.22,664.08 L458.39,662.08 L458.64,659.15 L458.8,658.96 L457.48,652.67 L457.17,651.89 L456.71,650.74 L448.08,640.42 L447.79,640.07 L436.45,632.77 L433.44,631.62 L430.39,627.9 L429.97,626.8 L428.76,624.71 L426.8,623.93 L423.15,623.64 L416.06,619.91 L415.18,613.12 L414.96,612.71 L410.34,610.18 L408.19,609.97 L403.83,603.04 L400.12,602.12 L387.73,602.06 L387.06,602.96 L386.24,603.27 L377.87,601.62 L376.09,601.26 L369.04,600.24 L364.6,599.85 L357.66,600.68 L356.97,601.04 L352.18,600.5 L341.57,596.06 L340.13,595.35 L339.04,594.51 L337.33,594.51 L337.15,594.51 L334.16,596.8 L332.56,602.75 L331.27,602.49 L329.12,601.65 L325.3,600.92 L324.29,601.31 L320.36,603.66 L316.16,603.72 L312.36,604.5 L310.58,605.59 L309.96,607.53 L306.54,614.97 L303.9,618.64 L301.96,620.1 L300.27,626.22 L300.17,628.32 L297.09,632.32 L295.63,637.32 L296.33,640.16 L296.7,640.13 L297.41,640.45 L297.74,641.66 L296.93,642.41 L291.64,645.15 L288.39,646.28 L280.51,655.54 L279.72,659.04 L276.72,659.95 L276.2,660.0 L267.64,658.69 L260.27,656.23 L253.92,652.51 L253.96,651.8 L251.59,649.34 L249.98,647.99 L247.57,646.74 L243.84,645.96 L242.61,646.13 L236.24,644.62 L232.4,641.66 L230.65,638.93 L230.6,638.91 L227.29,637.79 L221.0,636.66 L218.24,636.34 L213.72,635.18 L205.14,630.18 L203.42,628.76 L200.09,624.47 L198.46,621.95 L196.41,620.7 L194.48,620.32 L192.24,619.69 L186.97,617.33 L178.18,611.46 L176.51,608.85 L175.7,606.05 L175.74,605.12 L174.51,602.04 L169.64,594.85 L167.17,591.96 L166.62,591.9 L166.26,591.19 L165.27,584.07 L165.83,578.74 L165.72,572.44 L164.15,568.36 L160.33,563.62 L158.93,562.65 L153.23,557.15 L152.27,549.19 L148.14,542.0 L145.07,541.2 L144.11,540.22 L139.83,535.86 L133.67,531.06 L127.73,527.47 L124.91,527.51 L123.79,527.26 L114.43,523.17 L113.18,520.67 L102.67,513.7 L101.16,511.5 L101.0,510.29 L100.6,508.77 L99.29,506.95 L95.99,504.53 L91.59,503.05 L88.62,500.98 L85.49,498.31 L80.0,492.01 L77.76,491.18 L76.1,490.31 L71.9,485.74 L70.7,484.91 L70.02,484.45 L63.32,482.86 L60.9,482.09 L55.82,479.29 L55.59,479.1 L55.48,479.01 L55.36,478.91 L55.09,478.61 L54.68,478.15 L52.1,473.23 L44.64,462.02 L42.9,459.85 L40.22,458.4 L38.86,458.05 L36.26,458.42 L32.2,456.09 L32.2,456.06 L32.24,455.87 L32.27,455.71 L32.26,455.67 L32.24,455.61 L32.06,455.5 L31.91,455.51 L31.88,455.52 L31.87,455.51 L31.75,455.21 L31.72,455.14 L31.71,455.11 L31.67,455.03 L31.22,454.77 L31.21,454.77 L31.03,454.61 L30.98,454.56 L29.67,454.01 L29.42,453.96 L26.64,451.6 L26.59,451.57 L25.96,451.55 L25.43,451.09 L25.15,450.84 L25.0,450.53 L25.85,444.16 L25.95,443.61 L27.08,440.37 L27.12,440.37 L27.36,440.36 L27.89,440.37 L29.48,440.37 L29.54,440.37 L40.72,440.32 L41.93,440.31 L43.18,440.31 L47.81,440.31 L55.59,440.29 L55.97,440.29 L57.34,440.27 L63.29,440.26 L70.67,440.25 L77.74,440.27 L78.78,440.28 L111.91,440.38 L111.97,440.38 L112.08,440.37 L114.73,440.38 L131.88,440.39 L132.15,440.39 L132.3,440.39 L133.41,440.38 L133.52,440.38 L134.49,440.39 L137.35,440.38 L137.46,440.38 L148.97,440.39 L154.09,440.39 L168.9,440.39 L169.09,440.39 L176.99,440.4 L177.0,440.41 L213.79,440.42 L217.0,440.41 L235.66,440.41 L264.4,440.39 L267.88,440.39 L268.47,440.4 L268.67,440.4 L268.67,440.39 L272.44,440.38 L281.65,440.39 L281.85,440.39 L283.41,440.38 L283.42,434.11 L283.42,431.5 L283.41,429.91 L283.39,402.55 L283.39,397.78 L283.38,396.88 L283.39,396.78 L283.38,395.13 L283.39,393.54 L283.38,390.92 L283.38,390.33 L283.38,389.03 L283.38,387.73 L283.38,384.05 L283.39,383.6 L283.39,383.52 L283.39,380.41 L283.39,380.34 L283.38,378.83 L283.37,378.25 L283.38,378.22 L283.38,377.45 L283.39,376.65 L283.4,375.15 L283.39,370.87 L283.39,370.49 L283.4,367.91 L283.41,367.16 L283.44,365.1 L283.45,364.85 L283.72,352.01 L283.89,345.04 L283.91,344.01 L283.97,339.74 L283.97,339.73 L284.27,326.52 L284.34,322.25 L284.36,321.35 L284.34,320.73 L284.38,320.17 L284.42,319.14 L284.45,317.0 L284.52,313.78 L284.65,308.1 L284.68,306.24 L284.77,302.53 L284.77,302.18 L284.83,299.33 L284.89,297.22 L284.92,295.12 L284.93,294.08 L284.92,293.01 L284.91,292.68 L284.91,292.37 L284.91,292.32 L284.91,292.23 L284.91,291.76 L284.91,290.81 L284.93,289.63 L284.92,289.01 L284.92,276.75 L284.91,274.4 L284.9,273.44 L284.89,272.7 L284.89,272.7 L284.9,267.86 L284.9,267.85 L284.9,267.76 L284.91,267.57 L284.92,267.49 L284.92,267.47 L284.92,267.2 L284.92,267.07 L284.92,266.83 L284.92,266.59 L284.92,266.33 L284.92,265.98 L284.92,262.34 L284.92,262.05 L284.92,262.04 L284.92,261.83 L284.96,250.44 L284.98,246.71 L284.98,241.19 L284.98,237.93 L284.98,233.73 L285.0,230.15 L285.0,226.2 L285.0,213.03 L284.99,212.51 L284.98,212.37 L285.0,211.31 L285.01,209.92 L285.01,209.67 L285.01,209.61 L285.01,209.58 L285.01,209.58 L285.0,207.5 L285.07,177.72 L285.08,169.26 L285.12,146.34 L285.06,127.32 L285.05,127.27 L285.06,115.65 L287.91,114.06 L348.82,114.07 L358.26,114.08 L373.18,114.11 L373.18,114.12 L375.97,114.11 L376.31,114.11 L376.41,114.11 L376.51,114.11 L376.6,114.11 L381.68,114.11 L382.45,114.12 L385.71,114.12 L385.98,114.12 L387.87,114.12 L426.94,114.14 L429.32,114.12 L429.83,114.12 L434.78,114.12 L436.44,114.12 L437.76,114.12 L439.03,114.12 L441.52,114.11 L441.52,114.11 L443.3,114.11 L443.94,114.11 L445.86,114.12 L445.87,114.12 L447.17,114.11 L447.17,114.12 L447.41,114.12 L447.41,114.12 L450.39,114.12 L450.39,114.12 L453.11,114.12 L453.11,114.12 L454.25,114.12 L454.25,114.12 L457.94,114.13 L457.94,114.13 L458.62,114.13 L458.62,114.13 L462.66,114.13 L462.67,114.13 L462.67,114.13 L463.32,114.13 L463.33,114.13 L463.71,114.13 L463.71,114.13 L466.03,114.14 L467.11,114.14 L467.11,114.14 L467.17,114.14 L467.18,114.14 L467.77,114.14 L473.65,114.13 L473.65,114.13 L474.17,114.13 L475.08,114.13 L475.08,114.13 L475.64,114.13 L475.65,114.13 L478.18,114.12 L478.18,114.13 L480.12,114.13 L480.12,114.13 L481.38,114.13 L481.38,114.13 L482.13,114.11 L483.07,114.12 L483.08,114.11 L483.11,114.12 L492.49,114.12 L499.11,114.12 L505.36,114.11 L505.61,114.11 L505.61,146.31 L505.61,158.98 L505.61,177.97 L505.61,192.24 L505.61,209.62 L505.61,220.66 L505.61,241.25 Z" fill="black" fill-rule="evenodd"/>
</svg>
